<mxfile host="app.diagrams.net" modified="2024-01-26T20:17:09.631Z" agent="Mozilla/5.0 (Windows NT 10.0; Win64; x64) AppleWebKit/537.36 (KHTML, like Gecko) Chrome/120.0.0.0 Safari/537.36" etag="8q6HPv-76qSg2L8EWNJ6" version="23.0.2" type="device" pages="2">
  <diagram name="Modelo De Domínio" id="05qMmzaEd2qRSFF7wQ0u">
    <mxGraphModel dx="474" dy="787" grid="1" gridSize="10" guides="1" tooltips="1" connect="1" arrows="1" fold="1" page="1" pageScale="1" pageWidth="583" pageHeight="827" math="0" shadow="0">
      <root>
        <mxCell id="0" />
        <mxCell id="1" parent="0" />
        <mxCell id="hOmgcJJUhy_uIMFGv_SF-2" value="&lt;font style=&quot;font-size: 24px;&quot;&gt;&lt;b&gt;MODELO DE DOMÍNIO&lt;/b&gt;&lt;/font&gt;" style="text;html=1;strokeColor=none;fillColor=none;align=center;verticalAlign=middle;whiteSpace=wrap;rounded=0;" parent="1" vertex="1">
          <mxGeometry x="142" y="62.81999999999999" width="300" height="60" as="geometry" />
        </mxCell>
        <mxCell id="hOmgcJJUhy_uIMFGv_SF-3" value="" style="shape=image;verticalLabelPosition=bottom;labelBackgroundColor=default;verticalAlign=top;aspect=fixed;imageAspect=0;image=data:image/png,iVBORw0KGgoAAAANSUhEUgAABeMAAAG3CAYAAAA3sU5bAAAAAXNSR0IArs4c6QAAAARnQU1BAACxjwv8YQUAAAAJcEhZcwAAFxEAABcRAcom8z8AAFpzSURBVHhe7d0JmG1nWeD7dujua19v68VuWzTXyKmKu1KA0IQogUAgzBJk0EAYwjwPEZFIoBkkICBIGMOkDGEQBAxEogYwtGFGBpkhikECQoIgSMTIEPZ9d/hiVzbvTk7t2t+31/D7Pc//OZCcWt+31qraWftNpc5/AAAAAAAAAAAAAAAAAAAAAAAAAAAAAAAAAAAAAAAAAAAAAAAAAAAAAAAAAAAAAAAAAAAAAAAAAAAAAAAAAAAAAAAAAAAAAAAAAAAAAAAAAAAAAAAAAAAAAAAAAAAAAAAAAAAAAAAAAAAAAAAAAAAAAAAAAAAAAAAAAAAAAAAAAAAAAAAAAAAAAAAAAAAAAAAAAAAAAAAAAAAAAAAAAAAAAAAAAAAAAAAAAAAAAAAAAAAAAAAAAAAAAAAAAAAAAAAAAAAAAAAAAAAAAAAAAAAAAAAAAAAAAAAAAAAAAAAAAAAAAAAAAAAAAAAAAAAAAAAAAAAAAAAAAAAAAAAAAAAAAAAAAAAAAAAAAAAAAAAAAAAAAAAAAAAAAAAAAAAAAAAAAAAAAAAAAAAAAAAAAAAAAAAAAAAAAAAAGISDDjrotyVJkiStv+3t7SuUx3QAAGBIZg/8P//zPz+VJEmS1ImeWR7VAQCAITGMlyRJkjqVYTysUvJFJkmSdKnKY0N1hvGSJElSpzKMh1VKvsgkSZIuVXlsqM4wXpIkSepUhvGwSskXmSRJ0qUqjw3VGcZLkiRJncowHlYp+SKTJEm6VOWxoTrDeEmSJKlTGcbDKiVfZJIkSZeqPDZUZxgvSZIkdSrDeFil5ItMkiTpUpXHhuoM4yVJkqROZRgPq5R8kUmSJF2q8thQnWG8JEmS1KkM42GVki8ySZKkS1UeG6ozjJckSZI6lWE8rFLyRSZJknSpymNDdYbxkiRJUqcyjIdVSr7IJEmSLlV5bGhiNpCXJEmStP62t7evUB7TgVXI3nBLkiTtrDw2AAAAAMvK3nBLkiTtrDw2AAAAAMvK3nBLkiTtrDw2AAAAAMvK3nBLkiTtrDw2AAAAAMvK3nBLkiTtrDw2AAAAAMvK3nBLkiTtrDw2AAAAAMvK3nBLkiTtrDw2AAAAAMvK3nBLkiTtrDw2AAAAAMvK3nBLkiTtrDw2AAAAAMvK3nBLkiTtrDw2AAAAAMvK3nBLkiTtrDw2AAAAAMvK3nBLkiTtrDw2AAAAAMvK3nBLkiTtrDw2AAAAAMvK3nBLkiTtrDw2AAAAAMvK3nBLkiTtrDw2AAAAAMvK3nBLkiTtrDw2AAAAAMvK3nBLkiTtrDw2AAAAAMvK3nBLkiTtrDw2AAAAAMvK3nBLkiTtrDw2AAAAAMvK3nBLkiTtrDw2AAAAAMvK3nBLkiTtrDw2AAAAAMvK3nBLkiTtrDw2AAAAAMvK3nBLkiTtrDw2AAAAAMvK3nBLkiTtrDw2AAAAAMvK3nBLkiTtrDw2AAAAAMvK3nBLkiTtrDw2AAAAAMvK3nBLkiTtrDw2AAAAAMvK3nBLkiTtrDw2AAAAAMvK3nBLkiTtrDw2AAAAAMvK3nBLkiTtrDw2AAAAAMvK3nBLkiTtrDw2AAAAAMvK3nBLkiTtrDw2AAAAAMvK3nBLkiTtrDw2AAAAAMvK3nBLkiTtrDw2AAAAAMvK3nBLkiTtrDw2AAAAAMvK3nBLkiTtrDw2AAAAAMvK3nBLkiTtrDw2AAAAAMvK3nBLkiTtrDw2AAAAAMvK3nBLkiTtrDw2AAAAAMvK3nBLkiTtrDw2AAAAAMvK3nBLkiTtrDw2AAAAAMvK3nBLkiTtrDw2AAAAAMvK3nBLkiTtrDw2AAAAAMvK3nBLkiTtrDw2AAAAAMvK3nBLkiTtrDw2AAAAAMvK3nBLkiTtrDw2AAAAAMvK3nBLkiTtrDw2AAAAAMvK3nBLkiTtrDw2AAAAAMvK3nBLkiTtrDw2AAAAAMvK3nBLkiTtrDw2AAAAAMvK3nBL0pi76lWvOj300EOnhx9++PSGN7zh9Jd/+Zent73tbad3uMMdpsccc8z01re+9fRmN7vZ9Igjjpj+0i/90vRqV7vadDKZpMeShlJ5bAAA6I19+/b9WDyn//RBBx20b3Nzc3tjY+Ma8f+vHf//evHrNWd/7eCDDz4wfv3vv/ALv/B/x4f8wPc+EgAqyd5wS9KQu971rje9053uNH34wx8+fc5znjN9wxveMP3ABz4wPf/886d78Y//+I/TD37wg9PTTjvt4uOecMIJF69z3eteN92H1KfKYwMAQGccdNBBPxPPKTeLX4+PXhadEf//g9Hnon+bPcPstjjGF6J3lOP9dvy1Y6Pr7Nu37yfLsgCwvJ3/0FlVt7jFLabHHnvs9M53vvPFg6g73vGO//4dpbe//e2nt7vd7aZHH330qJqd8+zcZ9dgdi1mza7L7PrMrtOs2TVbZ9m93Guz417yOVD7/s+Oe8l1vuRaX9LOa37Jdd957btw/WuX3Z8xdNhhh03vc5/7XDwcP+uss6Zf/epXy+i8rXPOOWf62te+dvqIRzxiepOb3CTda1fLPp9qla3f1bL91ypbv3XlsaG5yWRyg83NzSPizfD1ouvGXq4z+462jY2Nw+KvX2tozc5tdo7R4bPznZ13/PUj4q9ff3YtalYueVOzdWfnODvfra2tavd09vkyu66zaxr//4hdtF222szsOzPn702N4lr8TFlyaXF9bhzHuVFc2xtGR86OO7tus3taoeuWZUdjdt6z6xnX9eKv/9k1nl3r+Os3ml37VVeW3ZM4zn+d7feSezb7uqv5tT1r9vU9WyPWvfas2Zqlw2fN9lG6+HMpPuaI+JjZNa3+urrO4lx/sdyWIfnB2f2Lc3tU3Ns3RV+K0ueWin0sekHs4S7xebRZ9tVbs8+V2ddD+fqYfc3Ovm4uftaq/bXb1S55PZldh9n1mF2X2fWJv3fJa0f6NdeqcuuAPosXl+wfMHvqlFNOKeMn+uJd73pXei/30l3vetdydNZt9t3a2T0aYrMfGXP88cdP/+RP/mT6mc98plyB7vniF784Pf3006cPfvCDO/8jblr52te+lq7f1VrK1m9deWxoLtuL6hRvMlcyjNuNeHP7rWwvXSn2d1rZajOx7j3n91GjOLdHliWXlh23VrHfj5ZlRyPO+2vz16FmZdk9iWea+2XH1lo6pdyWXtu3b9/Pxrk8NF4DzuzoPzM+G/1h/DP0V2O7vfoRN3E9Z8P37JzU4crtA/os++Lea4bx/WMYP2xDH8Zf5SpXmT70oQ+dnnHGGdOLLrqonHV//Mu//Mv01FNPnd7vfvdLz2/dtWIYv1i2fuvKY0Nz2V5UJ8P4tK+VrTYTa/ZpGH/u/HFrFkuO5mc5z36GdXYNKvaXZek9MYzvVL0dxh944IE/Hv9Mmn0uvWXunDpdvK5+PX59Sez9luVUOs0wvp+V2wf0WfbFvdcM4/vHMH7YhjqMf9CDHjT90z/90+m3v/3tcqb9N/sxOi9/+cunRx55ZHrO66gVw/jFsvVbVx4bmsv2ojoZxudtb2//VNluE7Fmn4bxz5o/bs3ic/QmZenBi/Nt8nmwo4eUpffEML5T9W4YH69LV4ue04d/NlxecQ7/GL++YGNj4xrl9Don9mgY38PK7QP6LPvi3muG8f1jGD9sQxvGP/rRj55+6lOfKmc3XLOh/A1ucIP0GrSsFcP4xbL1W1ceG5rL9qI6GcYv7PZlu03Een0axs9+Vnx6/Eo9pSw9eHGur5o799pdqSy9J4bxnao3w/jY6+y15I079j603hivub9cTrczDOP7Wbl9QJ9lX9x7zTC+fwzjh20Iw/hDDz10+vSnP316/vnnl7Maj3UP5VsxjF8sW7915bGhuWwvqpNhfF7s8bllu03Emr0Zxs9kx67YB8uygxf3Z/Zdtdk1qFJZds8M4ztV54fxW1tbPxH7fP7cvgdbfF2/L369Zzn9tYv9GMb3sHL7gD7Lvrj3mmF8/xjGD1vfh/HPfe5zB/WjaJYx+1n4T3jCE9LrU7tWDOMXy9ZvXXlsaC7bi+pkGL+wj5ftNhHr9WoYH8f5ZHb8WpVlB20ymfx0du4V+9Oy9J4ZxneqTg/jZ58r8frxlWTfY+jT0bHlUqyNYXw/K7cP6LPsi3uvGcb3j2H8sPV1GP+ABzxg+nd/93flLJj53//7f09vfOMbp9erVq0Yxi+Wrd+68tjQXLYX1ckwfnFlu03Een0bxj85O36tJpPJ9cvSgxXX9C7Zudcq1rt3WXrPDOM7VSeH8fE58v/E3l45t9dRFl97fxFdt1ya5mZrZ/tStyu3D+iz7It7rxnG949h/LD1bRh/vetdb/qGN7yh7J553/rWt6a//du/nV67GrViGL9Ytn7rymNDc9leVCfD+MvsOmXL1cVavRrGb2xsHJYdv2JPKEsPVtyblyXnXa19+/b9ZFl6zwzjO1XnhvGxp9nPhv/bHXtUFF/zL4qvw58tl6kZw/h+Vm4f0GfZF/deM4zvH8P4YevTMH72o1guvPDCsnMuyyte8Yr0Gq66VgzjF8vWb115bGgu24vqZBi/uFUNrvdHrNerYfxMdvyKvacsO1hxb76QnHeVYq1vlmVXwjC+U3VqGO9z43L7TvTAcrmaiK9/w/geVm4f0GfZF/deM4zvH8P4YevDMP7KV76y74Zfwutf//r0eq6yVgzjF8vWb115bGgu24vqZBh/mb2pbLm6WKuPw/gPzB+/ZmXZQYrz+2/z51uz+Dx4TVl6JQxcO1VnhvHxefaIZH/K+8Pt7e0rlEtXlWF8Pyu3D+iz7It7rxnG949h/LB1fRh/m9vcZvqJT3yi7JbdevOb35xe11XVimH8Ytn6rSuPDc1le1GdDOMvs38rW64u1urjMP4x88evXLMfG9Ra3JdjkvOtVnzd37EsvRKG8Z2qE8P42MdT5valy+/c+Fr6lXIJqzGM72fl9gF9ln1x7zXD+P4xjB+2Lg/jTzjhhOlFF11Udsqy3vnOd6bXdxW1Yhi/WLZ+68pjQ3PZXlQnw/jLbjKZ/FzZdlWxVu+G8XGsq2VrVOyxZenBiWv5ouR8q7W9vf2jZemVMIzvVGsfxsceHju3J+2up5RLWYVhfD8rtw/os+yLe68ZxvePYfywdXUY/+IXv7jskFU47bTT0uu811oxjF8sW7915bGhuWwvqpNh/GUXe71L2XZVsVbvhvEz2Rq1ir2/vSw7OHFun83OuUax1j+VZVfGML5TrXUYH58L90j2pF0WX6d/dsghh/yXcllXKo5tGN/Dyu0D+iz74t5rhvH9Yxg/bF0cxv/hH/5h2R2r9LznPS+93nupFcP4xbL1W1ceG5rL9qI6GcZfdrHXF5VtVxVr9XIYH8d7e7ZOrcqyg7Jv374fy861Yi8pS6+MYXynWtswfvbPk2Q/WrJ4ff1kfG1NyuVdmTiuYXwPK7cP6LPsi3uvGcb3j2H8sHVtGP9Hf/RHZWfU8Bu/8RvpdV+2VgzjF8vWb115bGgu24vqZBh/uX26bLuqWKevw/jfzNapVaz3i2XpwYivwV/NzrVitypLr4xhfKda1zD+h+Lr81PJfrS3/i2u643KNV6JOJ5hfA8rtw/os+yLe68ZxvePYfywdWkY/7rXva7sipqya79srRjGL5at37ry2NBcthfVyTD+8jviiCN+uGy9mlinl8P4jY2NzWydWq16/10Q5/W8+fOsWSz5Q99beXXivtw3W0traS3D+PgceHqyF62ouL53K5d6z+JYhvE9rNw+oM+yL+69ZhjfP4bxw9aVYfzrX//6siNqevSjH51e/2VrxTB+sWz91pXHhuayvahOhvH71Q3L1quJNXo5jJ/J1qlV7P+tZdnBiPP62/nzrNjnyrIrFffl3slaWk/Nh/Hxz5GbJPvQCotrfPdyuffMML6fldsH9Fn2xb3XDOP7xzB+2LowjH/lK19ZdkNNr33ta9Prv5daMYxfLFu/deWxoblsL6qTYfzlF/s9sWy9mlint8P4OOYZ2Vq1KssOwhWveMX/kp1jreJePacsvVJx7HvNr6W11XwYH2u+e24PWm2PKZd6JeJ1wDC+h5XbB/RZ9sW91wzj+6fGMP4ud7lLOTrrtu5h/Iknnlh2Qk2f+tSn0uu/11oxjF8sW7915bGhuWwvqpNh/H51Vtl6NbFGn78z/v7z69QsPmf/Z1m69yaTya9k51iruP8r/dnTl4jzuEe2ntZS02F8fE7dNtmDVlRc3z8ol3pl4piG8T2s3D6gz7Iv7r1mGN8/NYbxxx57bDk667bOYfzd7na3sgtqu+ENb5jeg73WimH8Ytn6rSuPDc1le1GdDOP3r7L1amKN3g7jJ5PJT2dr1SrO4fiydO/F+Txr/vxqVpZdubgnd8vW01pqOoyP9d42t75W15vKZV4pw/h+Vm4f0GfZF/deM4zvnxrD+Dvf+c7l6Kzbuobx173udadf/OIXyy6o6aEPfWh6D1ZRK4bxi2Xrt648NjSX7UV1MozfvyahbL+KWKO3w/iZxve0yoBqHeJcPjF3btWKe/SpsuzKxbHvmq2ptdRsGB///DgqWV8rKL6mPlku88rFsQ3je1i5fUCfZV/ce80wvn9qDOPveMc7lqOzbusaxr/zne8sO6Cml7zkJen1X1WtGMYvlq3fuvLY0Fy2F9XJMH7/ij3fp2y/ilij18P4OPap82tV7KKybK8dcsgh/zE5t2rFvX9yWXrl4vjHzq+ntdVsGB9rvWpuba2g+Fr9l+3t7SuUy7xycXzD+B5Wbh/QZ9kX914zjO+fGsP4O9zhDuXorNs6hvEvfOELy+rU9P73vz+9/qusFcP4xbL1W1ceG5rL9qI6Gcbvd68s268ijt/374xv+p3RGxsbVy5L91acx83nz6tmW1tbh5WlVy6Of+f59bS2mgzjDzzwwB9P1tYKitfTq5fLXIVhfD8rtw/os+yLe68ZxvdPjWH8McccU47OurUexh999NFl5f750pe+NP2rv/qr6Wte85rpU57ylOkJJ5ww/fVf//Xpfe9734v/UOLZj1+6973vPT3uuOOmD3/4w6dPfvKTL/69s6H4P/3TP5WjtPGtb31resghh6T3YJW1Yhi/WLZ+68pjQ3PZXlQnw/j97vNl+1XE8Xs9jF/DYO4hZeneinvxtOS8qlWWrSJeR+6Yram11GQYH+s8YG7dLvWd6APRi6MTovvPPkfja+6X439fJ7p1dK/Z34u/9vL4tdmPi7q8JpPJLcslribO2TC+h5XbB/RZ9sW91x75yEdOX/rSl3a6d7zjHWXEUd9HP/rRdA9d6jnPeU56L/fS7W53u3IF6jvnnHPS89L3mn2XenaPavWe97yn3JnuO/vss6evfOUrpw95yEOmhx9+eHo+u+nGN77xxa+Bp5566vRzn/tcWaWOe97znukeVl0rhvGLZeu3rjw2jE52LWpVlhyVg/o5jJ/+wi/8wv9dTmHl4vi9HsbPxPG/Nr9exU4vy/ZW3IsPJ+dVqw+UZauIc7lDsmat3hPrPUMLO67clqriPpw1d1/W3Xlx7idNJpNrxvZ+4Hu73H/79u37sTjGraIXx3G+suO4LXtg2U5Vsz8DZcfnS1c7Obk+VYq1zplbu5OV2wf0WfYiNIZm39Hayu///u+nexh6LYfxb3zjG9M9qH0nnnhiuSvdNftDZV/wghdMjzrqqPQcVtmd7nSni79z/pvf/GZZfTWe/exnp+vVqBXD+MWy9VtXHhtGJ7sWtSpLjkq8qezlMD72/cvlFFYujt/7YXwc+xXZmpX6t7JsbyXnVLNHl2WriHvfbBgfaz2uLMv6/GDch29n92cNfWhzc/NXy75WJo578zjH18+tVa1Yq9qf6dBHs3/5nV2nGsW1P6csC1BX9iI0hgzj62cYP76ue93rTv/1X/+13JXued/73je9//3vn+69dle72tUu/hcVn//858tulnfWWWela9SqFcP4xbL1W1ceG0Ynuxa1KkuOSrzx7esw/nfLKaxcHL/3w/jJZPJr2Zq12tra+vmydO/EfbhRdk4V+4WydBVxPobxIxL34fD5+9K6+Dz4Zvz68LKlauJ15iqxzrOi2Y++Sfeygv6wLEdhGA8MUvYiNIYM4+tnGD++TjvttHJHuuWv//qvpw960IPSPa+jJz7xidPzzz+/7G53Zj+XPjtmzVoxjF8sW7915bFhdLJrUauy5KjEG99eDuOj95RTWLk4du+H8Ycccsh/zNas2APK0r0T9+HJyflUqyxbTZyPYfyIxH14+Px9aVl8DvxDVPUPOZ23b9++n401fz/bz16KY76jLMEOhvHAIGUvQmPIML5+hvHj6va3v325G90x+9Ewj3vc49L9rrvt7e3pH/zBH5Sd7r/b3va26fFq1oph/GLZ+q0rjw2jk12LWpUlRyXe+PZ1GF/tfsWxez+Mn4njfyFbt1KnlmV7J67T+5PzqdXbyrLVxPkYxo9I3IM3ZPemUZ+P9ZsO4nfa2to6LNb/s2Rfy/TZcljmGMYDg5S9CI0hw/j6GcaPqzPOOKPcjW4488wzpze60Y3SvXapO97xjhd/5/7+ePzjH58eo3atGMYvlq3fuvLYMDrZtahVWXJU4o1vb4fxsferldNYqTj2IIbxscYL5tesVZzL18uyvZOdT8UeWpatJu6FYfyIxH346Px9aVXc/18q21ir2Md9oguyPe5vGxsb/185HHMM44FByl6ExpBhfP0M48dT174r/mlPe1q6zy73yle+suw+t87P8VYM4xfL1m9deWwYnexa1KosOSrxxrfPw/jjymmsVBx7KN8Z/8vZuhW7Ulm6NzY3N49IzqNa+/btO6gsXU3cd8P4EYn7cOH8fWlR3Ptqf27HMsqPrnlNttfLazKZXLschoRhPDBI2YvQGDKMr59h/Hjq0nfFH3/88eke+9AznvGMchaX9rnPfS79/a1qxTB+sWz91pXHhtHJrkWtypKjEm98Ww3jb7ajVf2M49eV01ipOO4ghvEz2bq1ivO5d1m2NzY3Nx+fnUutyrJVxX0wjB+J2XdzZ/elQZ+O5X/oe7voltjbA+b2epnF5/Ax5UNZwDAeGKTsRWgMGcbXzzB+HHXlu+Jnf7Dpsccem+6xT73+9a8vZ/R/HHnkkenvbVUrhvGLZeu3rjw2jE52LWpVlhyVeOPbZBhflrvYEUcc8cPZ79ltsfd/LIdcqTj2kIbxn55ft1ZxPn9Ulu2N2Pe758+jVnF9/rwsW1WsYxg/EpPJ5PrZfald3Pcnly10UuzxyOjcnXvOivM4vnwIl8EwHhik7EVoDBnG188wfhx14bviL7zwwukd7nCHdH997KlPfWo5s+n0oQ99aPp7WtaKYfxi2fqtK48No5Ndi1qVJUcl3vg2H8bPxF9byZB4a2vrJ8ohVyaOO5hhfKzx9GztGsVaXynL9kZ2HrWK63PfsmxVsY5h/EjE9b9Ndl9q14cf6xJ7/OnY65vn976jZ5ffyuUwjAcGKXsRGkOG8fUzjB9+N7jBDcodWK973OMe6f763Ote97rpy172svTvta4Vw/jFsvVbVx4bRie7FrUqS45KvPFdyzA+1n1x9vt2WxzntuWQKxPHHcwwvvV3zm5ubh5Qlu68ra2tw7JzqFWraxOfV4bxIxGfU3fM7kvN4p73algae35pcg5vKH+b/WAYDwxS9iI0hgzj62cYP/xmf1Dquj3wgQ9M96bV1Yph/GLZ+q0rjw2jk12LWpUlRyXe+K5rGH/X7Pct0TPLIVcmjjmYYfxMtnat4pzuVpbtvNjvo+f3X6u4Lt8uy1YXaxnGj0Tcg3vN35PaxT1/R1m+N2LPO/8LoQ+Wv8x+MowHBil7ERpDhvH1M4wffp/61KfKHViPk046Kd2XVlsrhvGLZeu3rjw2jE52LWpVlhyVeOO7lmH8ZDL5uez3LdGHyiFXJo45qGF8rPORbP0axVqvKMt2Xuz3bfP7r9hry7LVxT0wjB+JuP4Pzu5LzWLNXn5Xeez7ydE/XvGKV/wv5S+xnwzjgUHKXoTGkGF8/Qzjh926/+DW2c+qz/al1deKYfxi2fqtK48No5Ndi1qVJUcl3viuZRg/E3/93+Z/3zKVw61MHHNo3xn/O/NrV+y8smznJXuv2Z3LstXF55Vh/EjE9T8+uy81izVfVJbvne3t7f9U/ie7YBgPDFL2IjSGDOPrZxg/7GY/z3xdzj333Omhhx6a7kurrxXD+MWy9VtXHhtGJ7sWtSpLjkq88V3nMP5N879vmeIcfrEcciXimEMbxh86v3bNrnSlK/2PsnRnTSaTa2Z7r9X29vYVytLVxeeVYfxIxPU/LrsvlXthWZ6RMIwHBil7ERpDhvH1M4wfdl/5ylfK1W/vuOOOS/ekOrViGL9Ytn7rymPD6GTXolZlyVGJN75rG8bH2o/Mfu9ui+McXw65EnHMQQ3jZ7L1azWZTO5Ulu2s2OcJ8/uu2NfKsk3E55Vh/EjE9b9vdl8qd2pZnpEwjAcGKXsRGkOG8fUzjB9u97///cuVb+/P/uzP0j2pXq0Yxi+Wrd+68tgwOtm1qFVZclTije86vzP+OvO/b8lOL4dciTjeEIfx75lfv2IvKct2Vlz7v0j2XauXlmWbiHMzjB+Jzc3Nu2f3pWZxz3v3B7iyN4bxwCBlL0JjyDC+fobxw+2UU04pV76t7373u9Mb3/jG6Z5Ur1YM4xfL1m9deWwYnexa1KosOSrxxndtw/iZ7PfutjiHC8rhViKOObhh/GytbA+V+lxZtrOSPVcrrv1tyrJNxHqG8SMR1/9G2X2p3fb29k+VLTAChvHAIGUvQmPIML5+hvHD7eyzzy5Xvq1nPOMZ6X5Ut1YM4xfL1m9deWwYnexa1KosOSrxxnfdw/iPz//eZYrz+JlyyD2L4w1uGL+xsXHlbA+1avkz0ncrrvvVsj3X6oADDviRsnQTcX6G8SMR139fdl9qF+verWyBETCMBwYpexEaQ4bx9TOMH2bXv/71y1Vv65vf/Ob0mte8Zron1a0Vw/jFsvVbVx4bRie7FrUqS45KvPFd6zA+1n9u9vt3WxznDuWQexbHG9wwfibbQ60mk8nRZdnOiev+m9meaxRr/UNZtpnZ10K2lxrFWobx6/UDcR++O39fahf33Y+qGRHDeGCQshehMWQYXz/D+GF2wgknlKve1ote9KJ0P6pfK4bxi2Xrt648NoxOdi1qVZYclXjju+7vjL/9/O9dsueXQ+5ZHGuQw/hY763ZPir1wrJs58R1+PNkv1WKtU4uyzYTaxrGj0jcg49m96Z2k8nkpmULDJxhPDBI2YvQGDKMr59h/DB7wxveUK56W0ceeWS6H9WvFcP4xbL1W1ceG0Ynuxa1KkuOSrzxXeswfvazh7Pfv9viPD5ZDrlncbyhfmf8Q+b3UKsuD1Rib9/O9lyjdQws4/wM40ck7sHLsnvToPeWLTBwhvHAIGUvQmPIML5+hvHD7Pzzzy9XvZ3TTjst3Yva1Iph/GLZ+q0rjw2jk12LWpUlRyXe+K51GD8Tf/+f53//MpXD7Vkca6jD+CvN76Fm29vbP1qW7ozNzc3tbK+1Kss2FZ9XhvEjEvfhN+bvS6vi/p9UtsGAGcYDg5S9CI0hw/j6GcYPr1/5lV8pV7ytBzzgAel+1KZWDOMXy9ZvXXlsGJ3sWtSqLDkq8cZ37cP42MOfZB+z2+I41yuH3JM41iCH8TOxZrPvCo9uXZbtjDj/45J9VinW+puybFOxrmH8iMQ9+KXs3rQq1r932QoDZRgPDFL2IjSGDOPrZxg/vH7zN3+zXPF2vvrVr6Z7UbtaMYxfLFu/deWxYXSya1GrsuSoxBvfLgzjV/UHaj66HHJP4jiDHcbHuqfP76NWcX7PKct2RuxrJf/iZz97Slm2qbjuhvEjE/fh77P706ou/4HN7J1hPDBI2YvQGDKMr59h/PB6/vOfX654O69+9avTvahdrRjGL5at37ry2DA62bWoVVlyVOKN79qH8ZPJ5JrZxyzRW8oh9ySOM+TvjL9PtpcaxVqfKst2RuzrX+f3Was4/5X8lxq7Fesaxo9M3IeTs/vTsngdv1PZDgNjGA8MUvYiNIYM4+tnGD+8zjzzzHLF27n73e+e7kXtasUwfrFs/daVx4bRya5FrcqSoxJvfNc+jJ/JPma3zc6lHG5P4liDHcZf6UpX+h/ZXmq1ubn5n8vSa7dv376Dsj3WqizbXHxeGcaPTHyd3Ti7P62Lz4ffLltiQAzjgUHKXoTGkGF8/Qzjh9e5555brngbF1100fTKV75yuhe1qxXD+MWy9VtXHhtGJ7sWtSpLjkq88e3KMP4D8x+zTHE++8ohlxbHGewwfibWXskfmLs/xTneoiy7drGf+8/vr2IfLMs2F9fcMH6E4n58bP7+rKnXbm9v/1TZFgNgGA8MUvYiNIYM4+tnGD+srn71q5er3c573/vedC9qWyuG8Ytl67euPDaMTnYtalWWHJV449uJYXzs46Ts43bb5ubm3cshlxbHGfQwPtZ9TbafGsVaTy/Lrl3s54/n91exx5Zlm4trbhg/QnEvjs/u0Zo6bzKZ/FrZGj1nGA8MUvYiNIYM4+tnGD+sjj766HK123nOc56T7kVta8UwfrFs/daVx4bRya5FrcqSoxJvfLvynfG3nv+YJXtpOeTS4hiDHsbPfrZztp8axTl+tCy7drGfZv9FwOzPQSjLNhfX3DB+hOJ+/Le4H9+ev0dr7qXxtfBzZYv0lGE8MEjZi9AYMoyvn2H8sHrkIx9ZrnY7d73rXdO9qG2tGMYvlq3fuvLYMDrZtahVWXJU4o1vJ4bxP/uzP/v/Zh+32+J8PlMOubQ4zqCH8dvb2z+a7adWseQPfm/l9Tn44IMPzPZWq7LsWsTnlWH8SMX9WMl/YbTivhP7elTZIj1kGA8MUvYiNIYM4+tnGD+sXvCCF5Sr3c7sR+Nke1HbWjGMXyxbv3XlsWF0smtRq7LkqMQb304M42fi950//3HLtL29/Z/KIZcSxxj0MH4m1v5itqcabW5u3qQsuzaxj3vN76tWcW3fXpZdi1jfMH6k4n7sy+5TF4q9/X38+sCyVXrEMB4YpOxFaAwZxtfPMH5YveENbyhXu43Pfvaz6T7UvlYM4xfL1m9deWwYnexa1KosOSrxxrczw/jYy0p+lvnm5uaNyyGXEscY/DA+1n/p/H4q9pSy7NrEtX51sq8qxVoPK8uuRaxvGD9icU+ekd2rrhT7Ozt+vVfZLj1gGA8MUvYiNIYM4+tnGD+s3v3ud5er3cZb3vKWdB9qXyuG8Ytl67euPDaMTnYtalWWHJV449ul74x/4PzHLdkTyiGXEh8/hu+Mv022p0p9sCy7NnG+X072VaWNjY0rl2XXIs7VMH7EZj+GKu7LF7L71aVijx+JX48t26bDDOOBQcpehMaQYXz9DOOH1TnnnFOudhsnn3xyug+1rxXD+MWy9VtXHhtGJ7sWtSpLjkq88e3MMH5ra+sq2cfutjinPf2YkDjG4Ifx4QezPdWqrLkWk8nkp7M91aosuzbxeWUYP3LxOX+P7H51sfgcel/8eruydTrIMB4YpOxFaAwZxtev5TD+vPPOm5555pmDa/aHpmbXdh3967/+a7nabTzkIQ9J96H2tTIbxt/qVrfqTS1l96V15bFhdLJrUauy5KjEG9/ODONnso9dpnK4pcTHj2EYPzvPv5vfU60mk8kNyrLNxXW+S7anGsVaZ5Rl1yb20HIY/6notKEV53bzcjl7K85jJT/2q1Wx33fEr7cq26dDDOOBQcpehMaQYXz9Wg7jh+qJT3xiem1bd+ihh5YdtfNrv/Zr6V7UPtYvuy+tK48No5Ndi1qVJUcl3vh2ahgf+3lX9vG7bXNzc7scctfi40cxjI/1n5vtq1K/U5ZtLs7zZcl+anX/suzaxPk2G8YPtbiGtyiXs7fiNfC/x7l8fv7cul5c+zPj15uV06ADDOOBQcpehMaQYXz9DOP3rivD+KOOOqrsqJ0jjzwy3Yvax/pl96V15bFhdLJrUauy5KjEG9+uDeOflH38bptMJvcrh9y1+PhRDOPjGt0021el3luWbS6u8xeT/VQp1tpXll2b2INh/B6La9j7YfxMnMut58+tL8U9+LN1/hc1/B+G8cAgZS9CY8gwvn6G8XvXlWH8Pe95z7Kjdq5+9aune1H7WL/svrSuPDaMTnYtalWWHJV449u1H1Nzs/mPXbJXlUPuWnzsKIbxM9m+alWWbKp8d3C6nwpdVJZdq/i8MozfY3ENBzGMn4nz+a358+tTcS9eP5lMrl1OhzUwjAcGKXsRGkOG8fUzjN+7rgzjH/awh5UdtXHhhRem+9B6Yv2y+9K68tgwOtm1qFVZclTijW+nhvEHHHDAj2Qfv9vivL5QDrlr8fGjGcbHHj6a7a1Sh5dlm4nzazmY/uOy7Fo1PudBFtdwMMP4mTinZ8+fY9+Ke/Lqra2tQ8op0ZBhPDBI2YvQGDKMr59h/N51ZRg/+4NkW/qHf/iHdB9aT6xfdl9aVx4bRie7FrUqS45KvPHt1DB+Jn7/Z+c/fpk2Nzf/aznkrsTHjuk74586v6+KPbYs20xc4xcl+6hSrHW3suxaxT4M4/dYXMNBDeNn4pxen51rDztla2vrKuW0aMAwHhik7EVoDBnG188wfu+6Mox/3OMeV3bUxic+8Yl0H1pPrF92X1pXHhtGJ7sWtSpLjkq88e3cMD729PLsGLttc3PzluWQuxIfO6Zh/OHz+6pVnO87yrLNxLor+Rc7+9PW1tYVy7JrFdfZMH6PxTUc3DB+9l8dxXm9LzvfPhbn8rRl/4Uru2MYDwxS9iI0hgzj62cYv3ddGcY/6UlPKjtq46//+q/TfWg9sX7ZfWldeWwYnexa1KosOSrxxreL3xl/r/mPX7LfK4fclfi40QzjZ7K91aos2cSBBx7449keahT38utl2bWLvRjG77G4hoMbxs8cfPDBcWrt/kDj2sW5fDl6cDk9KjGMBwYpexEaQ4bx9TOM37uuDONPOumksqM23vOe96T70Hpi/bL70rry2DA62bWoVVlyVOKNb+eG8fv27TsoO8Zui3N7XznkrsTHjm0Y/975vdUqzvkXy7LVTSaTX8v2UKM4r5eVZdcu9mIYv8fiGg5yGD8z+8NQ4xzPnT/nPhf36/3L/pdQXD7DeGCQshehMWQYXz/D+L3ryjD+5JNPLjtq46yzzkr3ofXE+mX3pXXlsWF0smtRq7LkqMQb384N42fiYy6aP8YylcPtSnzcqIbxsY/HZfurUctzjvWeP79+xW5fll27uMaG8XssruFgh/EzcX77or/Kzr3nvXYymVy1nCYrYhgPDFL2IjSGDOPrZxi/d10Zxs8+h1t6y1veku5D64n1y+5L68pjw+hk16JWZclRiTe+nRzGx77emh1nt21ubv7Pcsj9Fh83qmH8xsbGNbL91Wh2X8uy1cV6n55fv1b79u37sbLs2sU1NozfY3ENBz2Mn5n9DPk41z+ZP/chFPfvN8tpsgKG8cAgZS9CY8gwvn6G8XvXlWH8y172srKjNk4//fR0H1pPrF92X1pXHhtGJ7sWtSpLjkq88e3qd8Y/dv4YS/aQcsj9Fh8zqmH8TLa/WpUlq2o8PPpCWbYTYj+G8XssruHgh/GXiPN94fz5D6G4h6+PfqacJntgGA8MUvYiNIYM4+tnGL93XRnGv/rVry47auOMM85I96H1xPpl96V15bFhdLJrUauy5KjEG99ODuMnk8kNsuPsttlAphxyv8XHjW4YH3v539kea7TMf62wW7HOrebXrdjzyrKdEPfSMH6PxTUczTB+Js73xOw6DKAvRbcrp8mSDOOBQcpehMaQYXz9DOP3rivD+Fe84hVlR2289a1vTfeh9cT6ZfeldeWxYXSya1GrsuSoxBvfTg7jww9mx9ltcX7/VI633+Ljxvid8Q+f31+t4ryPL8tWE+s8e37dWk0mk079wZFxfQ3j91hcw1EN42fivG8fnb/zOgyoZ5XTZAmG8cAgZS9CY8gwvn6G8XvXlWH8i1/84rKjNt75znem+9B6Yv2y+9K68tgwOtm1qFVZclTijW9Xh/Gzvf1Ndqzdtrm5+d/LIfdLfMwYh/Fb8/ur2JvKstXEtf1ksm6Vtre3/1NZthPi3A3j91hcw9EN42f27dv3k3H+r5q/HgPpg3Ffr15OlV0wjAcGKXsRGkOG8fUzjN+7rgzjn//855cdtfG+970v3YfWE+uX3ZfWlceG0cmuRa3KkqMSb3y7PIz//exYu20ymfxaOeR+iY8Z3TB+JvZ00fweK3VRWbKK2XA8WbNWf1uW7Yz4vDKM32NxDUc5jL9EnP994jpcOH9dBtDXopuX02Q/GcYDg5S9CI0hw/j6GcbvXVeG8c985jPLjtr48Ic/nO5D64n1y+5L68pjw+hk16JWZclRiTe+nR3Gx8fdef44S/bscsj9Er9/rMP4P53fY622trauUpZdubiuv5ytWanfK8t2Rpy/Yfwei2s46mH8zMbGxmZci2avCS3b3Ny8ezlN9oNhPDBI2YvQGDKMr59h/N51ZRj/1Kc+teyojU9+8pPpPrSeWL/svrSuPDaMTnYtalWWHJV449vZYfzGxsb/lx1rt8U5fqQccr/Ex4xyGB/7eXC2z0o9pCy7cnEeJyXrVSnWulFZtjNiT4bxeyyu4eiH8ZeIa/GbcU2+On+N+l6cV6def7vMMB4YpOxFaAwZxtfPMH7vujKM/53f+Z2yozbOO++8dB9aT6xfdl9aVx4bRie7FrUqS45KvPHt7DB+Jj72X+ePtUzlcPslfv8oh/Gr+pcf+9npZdmVi+v6kWS9KpUlOyXO3zB+j8U1NIzfYd++fT8W1+Wp89dpAPmDXfeDYTwwSNmL0BgyjK+fYfzedWUY/5jHPKbsqI3vfOc76T60nli/7L60rjw2jE52LWpVlhyVeOPb6WF87O/Ps+Ptto2NjcPKIS9X/P5RDuNnYk8XZHut0L+VJVcuWatWHypLdkrcQ8P4PRbX0DA+EddmK67NK+avV897ZTk9FjCMBwYpexEaQ4bx9TOM37uuDONPOOGEsqN2rnWta6V7UftYv+y+tK48NoxOdi1qVZYclXjj2/XvjD9h/lhLdkI55OWK3zvmYfxrs73WaBLKsisT+79RtlaNYq0Ty7KdEvsyjN9jcQ0N4y9DfOleP67TW+avW4/zHfKXwTAeGKTsRWgMGcbXzzB+77oyjH/oQx9adtTOUUcdle5F7WP9svvSuvLYMDrZtahVWXJU4o1vp4fxs+9oz4632+I8/6wc8nLF7x/tMH4ymdwj22ulHliWXZm4pr+brFOr65RlOyWugWH8HotraBi/H+I6HRPX673z16+nPbacFnMM44FByl6ExpBhfP0M4/euK8P4u9/97mVH7dztbndL96L2sX7ZfWldeWwYnexa1KosOSrxxrfTw/iZ7HhL9I1yuMsVv3e0w/itra2fyPZaozj/15dlVyaO+4H5dWpVluycuK6G8XssrqFh/C5sbm7+aly3t81fxx628n9BOASG8cAgZS9CY8gwvn6G8XvXlWH8LW95y7KjdmZfo9le1D7WL7svrSuPDaOTXYtalSVHJd74dn4YH3tcyR/IOfsDSsshL1P83tEO42dib+fP77VGcf4XlCVXJlunRrH3d5YlOyf2Zhi/x+IaGsYvYXNz86i4dn+RXdO+FPs/ppwOhWE8MEjZi9AYMoyvn2H83nVlGH/YYYeVHbXzwhe+MN2L2sf6ZfeldeWxYXSya1GrsuSoxBvfPgzjn5Mdc4nuXA55meL3jX0Yf8r8XmsV12BfWXbPNjc3j8jWqFHs+xFl2c6JvRnG77G4hobxexBfizeJ6/in89e1L8X+r1VOhWAYDwxS9iI0hgzj69dyGP/Od75zeswxxwyuQw45JL226+iiiy4qV7uNM888M92H2tfK1772tem73vWu3tRSdl9aVx4bRie7FrUqS45KvPHt/DB+MpkcnR1zt8W5/n455GWK3zvqYXzsa/ZzoNM9r7pY6z5l2T2L4z1+/vi12tjYuEZZtnPimrYcxr84vj6vPbTKpWSPyr8gO3Xuc6YPvbucAsEwHhik7EVoDBnG16/lMP6Nb3xjugetrvPPP79c7Tb+/u//Pt2H2tfKbBifrd/VWsrWb115bBid7FrUqiw5KvHGt/PD+H379v1kdszdFuf6N+WQlyl+76iH8QcccMCPZPutUVyDPyrL7lkc793zx69VWbKT4po2G8bHWo8ry8JCs+80j8+VV2efQx3u8WX7o2cYDwxS9iI0hgzj62cYP6w+/vGPl6vdzlWvetV0L2pbK4bxi2Xrt648NoxOdi1qVZYclXjj2/lh/Ezs85+y4+62ONQPfO+Ii8XvG/Uwfib29plsz6tudl/LknuWHb9Sby5LdlJcU8N4Omn2X5TE502zH4O112bf2V+2PmqG8cAgZS9CY8gwvn6G8cPqrLPOKle7nVvf+tbpXtS2VgzjF8vWb115bBid7FrUqiw5KvHGty/D+Ndnx91tk8nk+uWQC8XvG/0wPvb3vPn91mp//2DdyzL70SLZsSv1kLJsJ8XnlWE8nRZf81eOz58Xzn8+dbAPli2PmmE8MEjZi9AYMoyvn2H8sPrjP/7jcrXbefzjH5/uRW1rxTB+sWz91pXHhtHJrkWtypKjEm98ezGMj2M8ZP6YS/bYcsiF4veMfhg/mUx+JdtzjTY3N+9ell1aHOcx88et2FZZtpMM4+mLjY2NzfgcWtUf0F2rp5TtjpZhPDBI2YvQGDKMr59h/LB61rOeVa52O2eccUa6F7WtFcP4xbL1W1ceG0Ynuxa1KkuOSrzx7cUwfnNz839mx91tcb5vLYdcKH7f6IfxM9meaxTX4RVlyaXFcd42f9xKfbcs2VlxPQ3j6ZV9+/b9bHwuPS0+p74z/znWhba2tq5YtjpKhvHAIGUvQmPIML5+hvHD6kEPelC52u18+ctfTveitrViGL9Ytn7rymPD6GTXolZlyVGJN769GMbPZMddoovK4RaK32MYH2KPH5vfc6XOK0suLTlmleKevb4s2VmxR8N4eulKV7rS/4jPqSdln2vrbHNzc9R/mKthPDBI2YvQGDKMr59h/LC6yU1uUq52W7e61a3S/ahdrRjGL5at37ry2DA62bWoVVlyVOKNb2+G8bHX92XH3m379u07qBwyFb/HMD7E/mbfqZrufdVtb2//VFl21+LjD50/Xq3imtynLNtZsUfDeHqtfKf8ydnn3DqKvXz56KOP/qGyvdExjAcGKXsRGkOG8fUzjB9eF154Ybni7TzhCU9I96J2tWIYv1i2fuvKY8PoZNeiVmXJUYk3vn36zvjfmz/ukt2zHDI1+/tzv79Kce27/p3xN5zfc60mk8mdyrK7FtfxEdkxa3TwwQcfWJbtrLgehvEMQnx+/VJ8np01/3m3jmIvDy7bGh3DeGCQshehMWQYXz/D+OH14Q9/uFzxdt7//vene1G7WjGMXyxbv3XlsWF0smtRq7LkqMQb394M4zc3N2+ZHXu3xTm/rBwyFb/HML7I9l2pl5Qldy2u45nJ8VZerHNBWbLTYp+G8QxKfJ4dn33+Ne4TZTujYxgPDFL2IjSGDOPrZxg/vF772teWK97WzW52s3Q/alMrhvGLZeu3rjw2jE52LWpVlhyVeOPbp2H8f82OvUSfLYdMxd83jC9ij3+V7b1CnytL7lpyrCrFtdjzHzTbQuzTMJ7Bic+120TfyD4PWxXr36JsZ1QM44FByl6ExpBhfP0M44fXE5/4xHLF23rmM5+Z7kdtasUwfrFs/daVx4bRya5FrcqSoxJvfHszjJ+J/X4xO/5uO+CAA36kHPL7xN83jC9in4+f33ettre3r1CW3W9xDa+eHatSx5ZlOy2uiWE8g7SxsXGN+Lz76vznYavi8/1pZSujYhgPDFL2IjSGDOPrZxg/vO52t7uVK97W2Wefne5HbWrFMH6xbP3WlceG0cmuRa3KkqMSb3z7Nox/dXb8JbpZOeT3ib9nGF9sbGwclu29Urcry+63uIYPS45TpX379v1kWbbT4poYxjNY8Tl3o+xzsVEfKtsYFcN4YJCyF6ExZBhfP8P44XWNa1yjXPH27n73u6d7Uv1aMYxfLFu/deWxYXSya1GrsuSoxBvfXg3j41j3nz/2MsV5P6kc8vvE3zeM3yHbe6VeWJbcb3ENz0iOU6PzypKdF9fEMJ5Bi8+7e2efjy2KtX+mbGM0DOOBQcpehMaQYXz9DOOH2Qc+8IFy1dt685vfnO5H9WvFMH6xbP3WlceG0cmuRa3KkqMSb3x7NYzf3Nzczo6/2+K831kO+X3i7xvG7xB7/cv5vddomSFMfNx35o9To9jb75clOy/2ahjP4MXn3qr+K6nd1osfV7VKhvHAIGUvQmPIML5+hvHD7OSTTy5Xvb2jjjoq3ZPq1oph/GLZ+q0rjw2jk12LWpUlRyXe+PZqGD+THX+ZyuG+T/w9w/gdYp+PyPZfo8lk8v+UZS/XxsbGlbNj1Ghzc/PXyrKdF/fLMJ7Bi8+9g7PPyQa9tGxhNAzjgUHKXoTGkGF8/Qzjh9mxxx5brnp7r3zlK9M9qW6tGMYvlq3fuvLYMDrZtahVWXJU4o1v74bxsee3Z2vstq2trauUQ15K/D3D+B1in1fL9l+jWOs2ZdnLtbm5+evZMWq0vb39o2XZzotraBjPKMTn4KvmPydrF5/zHy3Lj4ZhPDBI2YvQGDKMr59h/HC78MILy5Vv75a3vGW6J9WrFcP4xbL1W1ceG0Ynuxa1KkuOSrzx7eN3xj9h/vhL9sByyEuJv24YPyf2+935/dcorsnJZcnLFb//jfMfX6m/K0v2QlxDw3hGIT4Hbz3/OdmgL5XlR8MwHhik7EVoDBnG188wfrj95V/+Zbny7Z155pnpnlSvVgzjF8vWb115bBid7FrUqiw5KvHGt3fD+M3NzZtka+y2OPfXlENeSvw9w/g5sdc/y85h1cU6Z5clL1f8/gvnP75SzypL9kJcQ8N4RiE+B//b/Odki2LpH/jeDsbBMB4YpOxFaAwZxtfPMH64PfnJTy5Xfj0e9rCHpftSnVoxjF8sW7915bFhdLJrUauy5KjEG98+DuP/c7bGEp1fDnkp8dcN4+dMJpNmPxLmwAMP/L/KsgsdfPDBB2UfW6O4T7coy/ZC7NcwntGIz8HPZJ+bNdve3v6psvwoGMYDg5S9CI0hw/j6GcYPt9kfpLpOn//856dXvepV071p9bViGL9Ytn7rymPD6GTXolZlyVGJN769G8bPrGoAc+CBB/54OeS/i79uGD9nY2NjMzuHGm1ubh5Vll0oft/95z+uVrHcD31v1X6IzyvDeEYjPgffl31uVu4XyvKjYBgPDFL2IjSGDOPrZxg/7D7wgQ+Uq78e7nm7WjGMXyxbv3XlsWF0smtRq7LkqMQb314O4+OYL51fY8luVQ757+KvGcYnYr//kp3Hqot1nlGWXCh+36nzH1ej2MtHypK9EXs2jGc04vPwTfOfl7WLz/sbleVHwTAeGKTsRWgMGcbXzzB+2D3+8Y8vV399nv70p6d702prxTB+sWz91pXHhtHJrkWtypKjEm98ezmM39zcvHu2zm6L8z+pHPLfxV83jE/Enl83fw6V+lhZcqG4dl9PPm7lxTq/W5bsjdizYTyjEZ+DH8k+N2sWa/bqR1ftlWE8MEjZi9AYMoyvn2H8sDvssMPK1V+vBz7wgen+tLpaMYxfLFu/deWxYXSya1GrsuSoxBvfvv6Ymn3ZOkv0gXLIfxd/zTA+Efu9d3YeNYrlFv5omMlk8nPZx9Qo1rpBWbY34j4ZxjMa8Tn45exzs3JHluVHwTAeGKTsRWgMGcbXzzB++L3lLW8pd2B9vvnNb07vete7pvvTamrFMH6xbP3WlceG0cmuRa3KkqMSb3x7OYyfib1/O1trt5XD/bv4a4bxiclk8tPZedQo1rppWfb7xN+/1/zvr1VZslfi88ownlFY4R/mvati3WuVLYyCYTwwSNmL0BgyjK+fYfzw+43f+I1yB9bLQL5urRjGL5at37ry2DA62bWoVVlyVOKNb5+H8X+RrbXbJpPJNcshLxZ/zTB+gdj3l+bPo1JPLUt+n7hur05+f43eXZbslbg+hvGMwuwPe84+LxvkD3CtVLymGMYDbWQvQmPIML5+hvHj6IILLih3Yb0M5OvVimH8Ytn6rSuPDaOTXYtalSVHJd749nYYH8d99Pw6S/bQcsiLxf83jF8g9vyy7Fwq9MGy5PeJPXwl+f01emxZslfi+hjGj0Tcg1uX/zlKcf6v2vn52Kp9+/YdVLYwCobxwCBlL0JjyDC+fobx4+gFL3hBuQvd8JjHPCbdp5avFcP4xbL1W1ceG0Ynuxa1KkuOSrzx7fN3xl8vW2u3xXFOK4e8WPw1w/gFJpPJnbJzqVFZ8lLimv1M9ntr1NcfRRHXyDB+JMo9+Eb0sO3t7SuUvzwKW1tbPzH/+diqI4444ofLNkbBMB4YpOxFaAwZxtfPMH4cXec61yl3oTte9apXpXvVcrViGL9Ytn7rymPD6GTXolZlyVGJN769HcbPZGst0dfiOjwpfn1K9NTojPLXqxZr9m4Yf+CBB/54di6V+r4/JDGu2V2T31elsmTvxDUyjB+J5J68tI9/6PAy4lyfP3fuTYrP+bPLFkbDMB4YpOxFaAwZxtfPMH48nXLKKeVOdMeHPvSh6R3ucId0v9pdrRjGL5at37ry2DA62bWoVVlyVOKNb6+H8bH/T2br9aHYe++G8TOx77/PzqdCv1OW/Hex9suT37fyYp0zy5K9E3s3jB+ByWTyc9k9mRX35VPx6+9sbW1do/z2QYlzu/3O821ZXNtL/ZdUY2AYDwxS9iI0hgzj62cYP55ueMMbljvRPa94xSumhx56aLrvvnbMMcdMTz/99PTv1agVw/jFsvVbVx4bRie7FrUqS45KvPHt+3fGv2B+rb4U176Xw/jYe6vvSH1vWfLfxTX7YvL7avRbZcneiWtkGD8Ccf1vPn8/suIefTh+fczGxsaVy4f2WpzLodF5l5xf6+J6/m7ZymgYxgODlL0IjSHD+PoZxo+r17zmNeVudM9syPu4xz1uurW1le69D1372teePve5z52ef/755aymF/9LkOz3rrpWDOMXy9ZvXXlsGJ3sWtSqLDkq8ca318P4zc3NO2br9aG49n39zvjbZOdTo7Lkxfbt2/eT2e+pUZzj1cqyvRN7N4wfgbj+D52/H/vRJ+KenRSvmzcuh+mV2P/tYv9N/pm1qNnXV9nOaBjGA4OUvQiNIcP4+hnGj6ujjjqq3I3u+upXvzp9/vOfPz3yyCPTc+hiv/7rvz79y7/8y3IGl/awhz0s/ZhV14ph/GLZ+q0rjw2jk12LWpUlR6XVYKMst3Kx/2Z/oOeqi733chh/yCGH/MfsfCp1eFm26b94KUv20mxYmJ1TjWItw/g1iWv/B9k92UX/HMd4dfx6r62trZ8vh+2s2Odv7dj72oprdcWypdEwjAcGKXsRGkOG8fUzjB9fL3/5y8sd6b7Z58xsmH3Na14zPZd1NfuXGieeeOL0TW9608XD6csy+xE82TFWXSuG8Ytl67euPDaMTnYtalWWHJV449vrYfxMnMMF2ZpdL/bdy2H8TOz/E/PnU6O4Rr9dlpyt+eL5v1+p08uSvRTXzDB+BOLavzO7J8sWxzsnfn3p5ubm3eN/7yvLrN1sP7Gvv92513UV1+UjZVujYhgPDFL2IjSGDOPrZxg/vq5+9atPzzvvvHJX+uMd73jH9AlPeML0Nre5TXpeNZt9l/4jHvGI6Rve8IbpF7/4xbKj/fOxj30sPeaqa8UwfrFs/daVx4bRya5FrcqSoxJvfHs/jI/jnz6/Xh+Ka9/bYXzs/aTsnFZdrPOOsuTsPp87//drFGs+uCzZS7F/w/gRiOv/pfn7seJmP5f99Nk93tzcvGXL7wiPNa8ePSLWf++O/XShZ5ctjophPDBI2YvQGDKMr1/LYfzXv/716dlnn60Fve1tb0vvUY2OP/74clf66Rvf+Mb0Xe961/R5z3vexT+j/ba3ve308MMPT891f7vKVa4yveUtbzk97rjjpk9/+tOnp5122vQjH/nI9IILLiirLi9bb9W1Yhi/WLZ+68pjQ3PxxuiX1ll2LWqVrd+ycsmbinWH8J3xx2drdr3Yd2+H8ZPJ5KbZOdVoc3PzgNkfPpn9vRodfPDBB5XT7KX4vGo5jP+oLrMXlduyctn9aND5cU5vn51X/O+Hx6+3ia4W//u/lW3t2oEHHvjj8fGHx9f5/eJYz4n//ekoW3vtxf5uUbY9KobxwCBlL0JjyDC+fi2H8Vy2D37wg+k9qtWb3/zmsvJwXHTRRRd/5/qHP/zh6bvf/e7pX/zFX0z/5E/+ZPqqV71q+qIXvWh6yimnTE899dTpW97ylul73vOe6cc//vHpueeee/HPqa/p0EMPTe/BKmvFMH6xbP3WlceG5rK9qE6ba/hD9eKN7xCG8U3/pc2qin33dhg/k53TAPpGOb3eis+rZsN4XW6nlNuyUgcccMCPJGutuwujv4veFp+Dr49f/zB+fVE0G7A/NX59Rvn/r4n+PHpH9Nn4e9mxutjflcs/OobxwCBlL0JjyDC+fobx3dF6GH/Tm960rExt97jHPdJ7sMpaMYxfLFu/deWxoblsL6qTYfzysjW7Xlz7Xg/jY//vz86rz8U5vbacXm/FORjGd6cqw/iNjY1rJGupYvF1NdofyWQYDwxS9iI0hgzj62cY3x2th/Gzfu/3fq+sTk3Petaz0uu/yloxjF8sW7915bGhuWwvqpNh/PJijQ/Nr9n14tr3/TvjnzB/TgPonuX0esswvlNVGcZPJpM7JWupYvv27ev1j6/aC8N4YJCyF6ExZBhfP8P47ljHMH7WH/3RH5UdUMvb3/729NqvslYM4xfL1m9deWxoLtuL6mQYv7xY45nza3a9vg/jY//Xzc6rz8XX4AHl9HrLML5TVRnGx3F/Z24d1e0l5dKPkmE8MEjZi9AYMoyvn2F8d6xrGD/rHe94R9kFNcz+ENjsuq+yVgzjF8vWb115bGgu24vqZBi/vDiP22brdrnYc6+H8TPZefW4L5XT6jXD+E5VZRgf9/g1yVqqVFzvfeXSj5JhPDBI2YvQGDKMr59hfHescxh/rWtda/qZz3ym7IQaJpNJeu1XVSuG8Ytl67euPDY0l+1FdTKMX97W1tZPZOt2ubj2QxjGv23+vHpclcFpa/F5ZRjfnWp9Z/xfz62jej2hXPbRMowHBil7ERpDhvH1M4zvjnUO42f96q/+6vSb3/xm2Q2rdvTRR6fXfVW1Yhi/WLZ+68pjQ3PZXlQnw/i9iXP5crZ2VxvCMH52Dtm59bH4+rtjOa1ei3tiGN+dan1n/L8ka2nFxXX++3hd+M/lso+WYTwwSNmL0BgyjK+fYXx3rHsYP+u4444ru2HVTjzxxPSar6pWDOMXy9ZvXXlsaC7bi+pkGL83sc4fz6/b5eLa934Yv7W1dUh2bn1s9l9XlNPqtfi8MozvTrW+Mz5bSysu/pl8y3LJR80wHhik7EVoDBnG188wvju6MIyfdb/73a/siFU67bTT0uu9qloxjF8sW7915bGhuWwvqpNh/N7EuRyXrd3VhjCMn8nOrW/FvfhMOZ3ei3MxjO9OKx/Gx/39mWQdrbi4zr9bLvnoGcYDg5S9CI0hw/j6GcZ3R1eG8bPucY97+JE1K/bZz342vdarqhXD+MWy9VtXHhuay/aiOhnG702cy9Wytbta7HcQw/g4jzOy8+tZzy+n03txPwzju1ONYfyNknW0wuIav7NcboJhPDBI2YvQGDKMr59hfHd0aRg/6853vvP0ggsuKLtjFbLrvKpaMYxfLFu/deWxoblsL6qTYfzeZWt3tbj2Q/nO+IfMn1vfintxm3I6vRfnYhjfnVY+jI9jPmBuDa22T8Q/iw8ol5tgGA8MUvYiNIYM4+tnGN8dXRvGz5p9fnzlK18pO2SvbnrTm6bXeRW1Yhi/WLZ+68pjQ3PZXlQnw/i9i7XeM792VxvKMD7O4+Ds/PrUFa94xf9STqf3DOM7VY3vjH96so5W02cnoVxqCsN4YJCyF6ExZBhfP8P47ujiMH7Wda973elb3/rWskv24vjjj0+v8SpqxTB+sWz91pXHhuayvahOhvF7F9fwKdn6XSyu/SCG8TNxPt+YP78e9YlyGoNgGN+panxn/Olza2gFxdfNlzc2Nq5RLjM7GMYDg5S9CI0hw/j6GcZ3R1eH8Zd00kknlZ2yrJe//OXptV1FrRjGL5at37ry2NBcthfVyTB+7+J8bpGt38Vir0Maxp86f359Ke7D08tpDEKcj2F8d6rxnfFnJ+tob31sMplctVxi5hjGA4OUvQiNIcP4+hnGd0fXh/Gz7nKXu0zPOeecsmN260Mf+lB6XVdRK4bxi2Xrt648NjSX7UV1Mozfu+3t7R/N1u9ice0HM4yPc7lPdo496WblNAYh7oVhfHeq8Z3x351bQ3vrzVtbWz9RLi8Jw3hgkLIXoTFkGF8/w/ju6MMwftbVrna16ete97qya3Yru6arqBXD+MWy9VtXHhuay/aiOhnGr0as9/n59bvYkIbxBx988IHZOfahcgqDYRjfqVY6jD/iiCN+OFlDy/eScmm5DIbxwCBlL0JjyDC+fobx3dGXYfwl3elOd5q+613vKrtnf1372tdOr+dea8UwfrFs/daVx4bmsr2oTobxqxHrvXJ+/S42pGH8TJzPP2bn2fE+ULY/GJPJ5E7JeWo9rXQYv7GxceVkDe2+8+Kft3csl5XLYRgPDFL2IjSGDOPrZxjfHX0bxl/S7A8l/exnP1vOgstz3/veN72Oe60Vw/jFsvVbVx4bmsv2ojoZxq9GnFMvfmTKAIfxr8jOs+M9sWx/MOKc7jx3jlpfKx3Gx/FuPXd87b5T/Fia3TGMBwYpexEaQ4bx9TOM746+DuMv6elPf/r0n//5n8vZsMjJJ5+cXr+91oph/GLZ+q0rjw3NZXtRnQzjV2MSsj10raEN4+OcejcEjntwvbL9wYhzukt2rlpLKx3Gx0vbT8cxnxh9bsca2r/Oiq+NW5RLyS4YxgODlL0IjSHD+Podc8wx5Qqwbn0fxs86+OCDp4961KMu/oNKubRzzz334kH8zW9+8/Ta7bVWDOMXy9ZvXXlsaC7bi+pkGL862R66Vlz7QQ3j4/P3v2fn2eXK1gclPq/ulp2r1tLK/wDXS0wmkxvE8Z8f97uPPx6qWXF93hfX6uhy2ViCYTwwSNmL0BgyjK/fHe5wh3IFWLchDON3NvuZ8qeeemo5u3E6++yzp0972tOmN73pTdNrtMpaMYxfLFu/deWxoblsL6qTYfzqxJpnze+ha8W1H9QwfibO67Pz59nV4vq/o2x7UCaTyT2y89VaqjaM3ynWOTI+n0+K/mZu/TF3evwz9VfLJWIPDOOBQcpehMaQYXz9ZgNTumFow/hLOuyww6ZPetKTpu9+97vLmQ7bxz72selJJ51U7TvgF9WKYfxi2fqtK48NzWV7UZ0M41cnzuvEbB9dKvY4xGH8C+fPs6tNJpNHlW0PSpzbvebPVWuryTB+p42NjWvEa8v/irXfEr9+e24/gy7Od/ZfCTwlfj24XA5WwDAeGKTsRWgMGcbX79hjjy1XgHUb6jB+Z7PB/CMe8Yjpm9/85um3v/3tcub9ds4550xf97rXTR/5yEc2H8DvrBXD+MWy9VtXHhuay/aiOhnGr06secP5PXStuPaDG8bHOd02O9eOdmjZ9qDEPejFH2A8kpoP43c64ogjfjj2MHstfHx8Xrw9+uaOvQ2lc+O8To5fb15OmxUzjAcGKXsRGkOG8fW7y13uUq5Afd/97ncvjtwYhvE7u/KVrzx90IMeNH3JS14y/au/+qvpN77xjXIluu0jH/nI9KUvfen0uOOOmx5++OHpua2jVgzjF8vWb115bGgu20vjvtuwbP1mGcavThlCpXvZj5p8XsS1H9wwvuXQZq+VLQ9OfF7dNzvfSlX9GhlAax3GZ+KfM/8z9nXPMsB+d/RvZa+9KPb9T9GfR4+L/3+dclpUZBgPDFL2IiRJQ+sWt7jF9Ld+67emp5xyyvT973//9Otf/3oZc7b1rW99a/rpT396+ta3vvXiwfuJJ544vcc97jG9+tWvnu5b6krlsQEAYGUOOuigfZPJ5Kbx64PjeePZ8esZ8evfxq9r/U76WP8z8eub49fnxq/33NraukrZMgDszc5/4EjSmDrkkEMuHtLf8573nP6v//W/ps9+9rOnr33ta6dvf/vbL/4u9dkfkvqZz3xm+oUvfGH6la98ZXrBBRdcPEy/xHe+852Lh/rnnXfexT9S5uMf//j0fe973/Sss86a/vmf//nFf8jsC1/4wumjHvWoi/9Lketf//rpPqQ+VB4bAACa2NrauuJBBx30i7M/DDWeRX4j/vfvxq/Pj14V/Wn8/3dEH40+E30h+kr0L/H3vhPtfI6ZfQf+P0dfimY/WuZvorfH/35d/Dobtj92MpncL3691cbGxpW3t7f/U9kCAKxe/ANn5z+kJEmXU7wxmF71qldN/5401MpjAwBA581+XNjm5uZ/Lv8XALoje8MtSZK0s/LYAAAAACwre8MtSZK0s/LYAAAAACwre8MtSZK0s/LYAAAAACwre8MtSZK0s/LYAAAAACwre8MtSZK0s/LYAAAAACwre8MtSZK0s/LYAAAAACwre8MtSZK0s/LYAAAAACwre8MtSZK0s/LYAAAAACwre8MtSZK0s/LYAAAAACwre8MtSZK0s/LYAAAAACwre8MtSZK0s/LYAAAAACwre8MtSZK0s/LYAAAAACwre8MtSZK0s/LYAAAAACwre8MtSZK0s/LYAAAAACwre8MtSZK0s/LYAAAAACwre8MtSZK0s/LYAAAAACwre8MtSZK0s/LYAAAAACwre8MtSZK0s/LYAAAAACwre8MtSZK0s/LYAAAAACwre8MtSZK0s/LYAAAAACwre8MtSZK0s/LYAAAAACwre8MtSZK0s/LYAAAAACwre8MtSZK0s/LYAAAAACwre8MtSZK0s/LYAAAAACwre8MtSZK0s/LYAAAAACwre8MtSZK0s/LYAAAAACwre8MtSZK0s/LYAAAAACwre8MtSZK0s/LYAAAAACwre8MtSZK0s/LYAAAAACwre8MtSZK0s/LYAAAAACwre8MtSZK0s/LYAAAAACwre8MtSZK0s/LYAAAAACwre8MtSZK0s/LYAAAAACwre8MtSZK0s/LYAAAAACwre8MtSZK0s/LYAAAAACwre8MtSZK0s/LYAAAAACwre8MtSZK0s/LYAAAAACwre8MtSZK0s/LYAAAAACwre8MtSZK0s/LYAAAAACwre8MtSZK0s/LYAAAAACwre8MtSZK0s/LYAAAAACwre8MtSZK0s/LYAAAAACwre8MtSZK0s/LYAAAAACwre8MtSZK0s/LYAAAAACwre8MtSZK0s/LYAAAAACwre8MtSZK0s/LY0MRBBx3025IkSZLW3/b29hXKYzqwCtkbbkmSpJ2Vx4bqZg/82fqSJEmS1tIzy6M6sArJF5kkSdKlKo8N1RnGS5IkSZ3KMB5WKfkikyRJulTlsaE6w3hJkiSpUxnGwyolX2SSJEmXqjw2VGcYL0mSJHUqw3hYpeSLTJIk6VKVx4bqDOMlSZKkTmUYD6uUfJFJkiRdqvLYUJ1hvCRJktSpDONhlZIvMkmSpEtVHhuqM4yXJEmSOpVhPKxS8kUmSZJ0qcpjQ3WG8ZIkSVKnMoyHVUq+yCRJki5VeWyozjBekiRJ6lSG8bBKyReZJEnSpSqPDdUZxkuSJEmdyjAeVin5IpMkSbpU5bGhOsN4SZIkqVMZxgMAwFDNBvKSJEmS1t/29vYVymM6AAAAAAAAAAAAAAAAAAAAAAAAAAAAAAAAAAAAAAAAAAAAAAAAAAAAAAAAAAAAAAAAAAAAAAAAAAAAAAAAAAAAAAAAAAAAAAAAAAAAAAAAAAAAAAAAAAAAAAAAAAAAAAAAAAAAAAAAAAAAAAAAAAAAAAAAAAAAAAAAAAAAAAAAAAAAAAAAAAAAAAAAAAAAAAAAAAAAAAAAAAAAAAAAAAAAAAAAAAAAAAAAAAAAAAAAAAAAAAAAAAAAAAAAAAAAAAAAAAAAAAAAAAAAAAAAAAAAAAAAAAAAAAAAAAAAAAAAAAAAAAAAAAAAAAAAAAAAAAAAAAAAAAAAAAAAAAAAAAAAAAAAAAAAAAAAAAAAAAAAAAAAAAAAAAAAAAAAAAAAAAAAAAAAAAAAAAAAAAAAAAAAAAAAAAAAAAAAAAAAAAAAAAAAAAAAAAAAAAAAAAAAAAAAAAAAAAAAAAAAAAAAAAAAAAAAAAAAAAAAAAAAAAAAAAAAAAAAAAAAAAAAAAAAAAAAAAAAAAAAAAAAAAAAAAAAAAAAAAAAAAAAAAAAAAAAAAAAAAAAAAAAAAAAAAAAAAAAAAAAAAAAAAAAAAAAAAAAAAAAAAAAAAAAAAAAAAAAAAAAAAAAAAAAAAAAAAAAAAAAAAAAAAAAAAAAAAAAAAAAAAAAAAAAAAAAAAAAAAAAAAAAAAAAAAAAAAAAAAAAAAAAAAAAAAAAAAAAAAAAAAAAAAAAAAAAAAAAAAAAAAAAAAAAAAAAAAAAAAAAAAAAAAAAAAAAAAAAAAAAAAAAAAAAAAAAAAAAAAAAAAAAAAAAAAAAAAAAAAAAAAAAAAAAAAAAAAAAAAAAAAAAAAAAAAAAAAAAAAAAAAAAAAAAAAAAAAAAAAAAAAAAAAAAAAAAAADAOPyH//D/Ayr4xHLC2HTvAAAAAElFTkSuQmCC;" parent="1" vertex="1">
          <mxGeometry x="420" y="20" width="147" height="42.82" as="geometry" />
        </mxCell>
        <mxCell id="hOmgcJJUhy_uIMFGv_SF-4" value="&lt;font style=&quot;font-size: 14px;&quot;&gt;Usuário&lt;/font&gt;" style="rounded=1;whiteSpace=wrap;html=1;" parent="1" vertex="1">
          <mxGeometry x="269" y="170" width="110" height="40" as="geometry" />
        </mxCell>
        <mxCell id="hOmgcJJUhy_uIMFGv_SF-5" value="&lt;font style=&quot;font-size: 14px;&quot;&gt;Conta&lt;/font&gt;" style="rounded=1;whiteSpace=wrap;html=1;" parent="1" vertex="1">
          <mxGeometry x="269" y="260" width="110" height="40" as="geometry" />
        </mxCell>
        <mxCell id="hOmgcJJUhy_uIMFGv_SF-9" value="" style="endArrow=diamondThin;endFill=0;endSize=24;html=1;rounded=0;exitX=0.5;exitY=0;exitDx=0;exitDy=0;entryX=0.5;entryY=1;entryDx=0;entryDy=0;" parent="1" source="hOmgcJJUhy_uIMFGv_SF-5" target="hOmgcJJUhy_uIMFGv_SF-4" edge="1">
          <mxGeometry width="160" relative="1" as="geometry">
            <mxPoint x="190" y="370" as="sourcePoint" />
            <mxPoint x="260" y="200" as="targetPoint" />
          </mxGeometry>
        </mxCell>
        <mxCell id="hOmgcJJUhy_uIMFGv_SF-10" value="&lt;span style=&quot;font-size: 14px;&quot;&gt;Movimentação&lt;/span&gt;" style="rounded=1;whiteSpace=wrap;html=1;" parent="1" vertex="1">
          <mxGeometry x="269" y="360" width="110" height="40" as="geometry" />
        </mxCell>
        <mxCell id="hOmgcJJUhy_uIMFGv_SF-11" value="" style="endArrow=diamondThin;endFill=0;endSize=24;html=1;rounded=0;exitX=0.5;exitY=0;exitDx=0;exitDy=0;entryX=0.5;entryY=1;entryDx=0;entryDy=0;" parent="1" source="hOmgcJJUhy_uIMFGv_SF-10" target="hOmgcJJUhy_uIMFGv_SF-5" edge="1">
          <mxGeometry width="160" relative="1" as="geometry">
            <mxPoint x="334" y="270" as="sourcePoint" />
            <mxPoint x="334" y="190" as="targetPoint" />
          </mxGeometry>
        </mxCell>
        <mxCell id="hOmgcJJUhy_uIMFGv_SF-14" value="&lt;span style=&quot;font-size: 14px;&quot;&gt;Compra&lt;/span&gt;" style="rounded=1;whiteSpace=wrap;html=1;" parent="1" vertex="1">
          <mxGeometry x="130" y="470" width="110" height="40" as="geometry" />
        </mxCell>
        <mxCell id="hOmgcJJUhy_uIMFGv_SF-15" value="&lt;span style=&quot;font-size: 14px;&quot;&gt;Recebimento&lt;/span&gt;" style="rounded=1;whiteSpace=wrap;html=1;" parent="1" vertex="1">
          <mxGeometry x="410" y="470" width="110" height="40" as="geometry" />
        </mxCell>
        <mxCell id="hOmgcJJUhy_uIMFGv_SF-16" value="&lt;span style=&quot;font-size: 14px;&quot;&gt;Venda&lt;/span&gt;" style="rounded=1;whiteSpace=wrap;html=1;" parent="1" vertex="1">
          <mxGeometry x="269" y="470" width="110" height="40" as="geometry" />
        </mxCell>
        <mxCell id="hOmgcJJUhy_uIMFGv_SF-17" value="" style="endArrow=block;endSize=16;endFill=0;html=1;rounded=0;exitX=0.5;exitY=0;exitDx=0;exitDy=0;entryX=0.5;entryY=1;entryDx=0;entryDy=0;edgeStyle=orthogonalEdgeStyle;" parent="1" source="hOmgcJJUhy_uIMFGv_SF-14" target="hOmgcJJUhy_uIMFGv_SF-10" edge="1">
          <mxGeometry width="160" relative="1" as="geometry">
            <mxPoint x="240" y="280" as="sourcePoint" />
            <mxPoint x="400" y="280" as="targetPoint" />
            <Array as="points">
              <mxPoint x="185" y="440" />
              <mxPoint x="324" y="440" />
            </Array>
          </mxGeometry>
        </mxCell>
        <mxCell id="hOmgcJJUhy_uIMFGv_SF-18" value="" style="endArrow=block;endSize=16;endFill=0;html=1;rounded=0;exitX=0.5;exitY=0;exitDx=0;exitDy=0;entryX=0.5;entryY=1;entryDx=0;entryDy=0;" parent="1" source="hOmgcJJUhy_uIMFGv_SF-16" target="hOmgcJJUhy_uIMFGv_SF-10" edge="1">
          <mxGeometry width="160" relative="1" as="geometry">
            <mxPoint x="195" y="480" as="sourcePoint" />
            <mxPoint x="334" y="410" as="targetPoint" />
          </mxGeometry>
        </mxCell>
        <mxCell id="hOmgcJJUhy_uIMFGv_SF-19" value="" style="endArrow=block;endSize=16;endFill=0;html=1;rounded=0;exitX=0.5;exitY=0;exitDx=0;exitDy=0;entryX=0.5;entryY=1;entryDx=0;entryDy=0;edgeStyle=orthogonalEdgeStyle;" parent="1" source="hOmgcJJUhy_uIMFGv_SF-15" target="hOmgcJJUhy_uIMFGv_SF-10" edge="1">
          <mxGeometry width="160" relative="1" as="geometry">
            <mxPoint x="334" y="480" as="sourcePoint" />
            <mxPoint x="334" y="410" as="targetPoint" />
            <Array as="points">
              <mxPoint x="460" y="470" />
              <mxPoint x="460" y="440" />
              <mxPoint x="324" y="440" />
            </Array>
          </mxGeometry>
        </mxCell>
        <mxCell id="hOmgcJJUhy_uIMFGv_SF-20" value="&lt;span style=&quot;font-size: 14px;&quot;&gt;Cota&lt;/span&gt;" style="rounded=1;whiteSpace=wrap;html=1;" parent="1" vertex="1">
          <mxGeometry x="190" y="590" width="110" height="40" as="geometry" />
        </mxCell>
        <mxCell id="hOmgcJJUhy_uIMFGv_SF-21" value="" style="endArrow=diamondThin;endFill=0;endSize=24;html=1;rounded=0;exitX=0.5;exitY=0;exitDx=0;exitDy=0;entryX=0.5;entryY=1;entryDx=0;entryDy=0;edgeStyle=orthogonalEdgeStyle;" parent="1" source="hOmgcJJUhy_uIMFGv_SF-20" target="hOmgcJJUhy_uIMFGv_SF-14" edge="1">
          <mxGeometry width="160" relative="1" as="geometry">
            <mxPoint x="334" y="370" as="sourcePoint" />
            <mxPoint x="334" y="290" as="targetPoint" />
          </mxGeometry>
        </mxCell>
        <mxCell id="hOmgcJJUhy_uIMFGv_SF-22" value="" style="endArrow=diamondThin;endFill=0;endSize=24;html=1;rounded=0;exitX=0.5;exitY=0;exitDx=0;exitDy=0;entryX=0.5;entryY=1;entryDx=0;entryDy=0;edgeStyle=orthogonalEdgeStyle;" parent="1" source="hOmgcJJUhy_uIMFGv_SF-20" target="hOmgcJJUhy_uIMFGv_SF-16" edge="1">
          <mxGeometry width="160" relative="1" as="geometry">
            <mxPoint x="249" y="578" as="sourcePoint" />
            <mxPoint x="195" y="520" as="targetPoint" />
          </mxGeometry>
        </mxCell>
        <mxCell id="hOmgcJJUhy_uIMFGv_SF-23" value="" style="endArrow=open;endFill=1;endSize=12;html=1;rounded=0;exitX=0.5;exitY=1;exitDx=0;exitDy=0;entryX=1;entryY=0.5;entryDx=0;entryDy=0;edgeStyle=orthogonalEdgeStyle;" parent="1" source="hOmgcJJUhy_uIMFGv_SF-15" target="hOmgcJJUhy_uIMFGv_SF-20" edge="1">
          <mxGeometry width="160" relative="1" as="geometry">
            <mxPoint x="440" y="610" as="sourcePoint" />
            <mxPoint x="600" y="610" as="targetPoint" />
            <Array as="points">
              <mxPoint x="465" y="610" />
            </Array>
          </mxGeometry>
        </mxCell>
        <mxCell id="hOmgcJJUhy_uIMFGv_SF-24" value="&lt;span style=&quot;font-size: 14px;&quot;&gt;Fundo &lt;br&gt;Imobiliario&lt;/span&gt;" style="rounded=1;whiteSpace=wrap;html=1;" parent="1" vertex="1">
          <mxGeometry x="64" y="700" width="110" height="40" as="geometry" />
        </mxCell>
        <mxCell id="hOmgcJJUhy_uIMFGv_SF-25" value="&lt;span style=&quot;font-size: 14px;&quot;&gt;Ação&lt;/span&gt;" style="rounded=1;whiteSpace=wrap;html=1;" parent="1" vertex="1">
          <mxGeometry x="190" y="700" width="110" height="40" as="geometry" />
        </mxCell>
        <mxCell id="hOmgcJJUhy_uIMFGv_SF-26" value="&lt;span style=&quot;font-size: 14px;&quot;&gt;Título Tesouro Direto&lt;/span&gt;" style="rounded=1;whiteSpace=wrap;html=1;" parent="1" vertex="1">
          <mxGeometry x="320" y="700" width="110" height="40" as="geometry" />
        </mxCell>
        <mxCell id="hOmgcJJUhy_uIMFGv_SF-29" value="" style="endArrow=block;endSize=16;endFill=0;html=1;rounded=0;entryX=0.5;entryY=1;entryDx=0;entryDy=0;exitX=0.5;exitY=0;exitDx=0;exitDy=0;edgeStyle=orthogonalEdgeStyle;" parent="1" source="hOmgcJJUhy_uIMFGv_SF-24" target="hOmgcJJUhy_uIMFGv_SF-20" edge="1">
          <mxGeometry width="160" relative="1" as="geometry">
            <mxPoint x="80" y="780" as="sourcePoint" />
            <mxPoint x="240" y="780" as="targetPoint" />
            <Array as="points">
              <mxPoint x="115" y="700" />
              <mxPoint x="115" y="670" />
              <mxPoint x="245" y="670" />
            </Array>
          </mxGeometry>
        </mxCell>
        <mxCell id="hOmgcJJUhy_uIMFGv_SF-30" value="" style="endArrow=block;endSize=16;endFill=0;html=1;rounded=0;entryX=0.5;entryY=1;entryDx=0;entryDy=0;exitX=0.5;exitY=0;exitDx=0;exitDy=0;" parent="1" source="hOmgcJJUhy_uIMFGv_SF-25" target="hOmgcJJUhy_uIMFGv_SF-20" edge="1">
          <mxGeometry width="160" relative="1" as="geometry">
            <mxPoint x="125" y="680" as="sourcePoint" />
            <mxPoint x="255" y="640" as="targetPoint" />
          </mxGeometry>
        </mxCell>
        <mxCell id="hOmgcJJUhy_uIMFGv_SF-31" value="" style="endArrow=block;endSize=16;endFill=0;html=1;rounded=0;entryX=0.5;entryY=1;entryDx=0;entryDy=0;exitX=0.5;exitY=0;exitDx=0;exitDy=0;edgeStyle=orthogonalEdgeStyle;" parent="1" source="hOmgcJJUhy_uIMFGv_SF-26" target="hOmgcJJUhy_uIMFGv_SF-20" edge="1">
          <mxGeometry width="160" relative="1" as="geometry">
            <mxPoint x="255" y="680" as="sourcePoint" />
            <mxPoint x="255" y="640" as="targetPoint" />
            <Array as="points">
              <mxPoint x="375" y="670" />
              <mxPoint x="245" y="670" />
            </Array>
          </mxGeometry>
        </mxCell>
      </root>
    </mxGraphModel>
  </diagram>
  <diagram id="0Df4q0bLYJ1hnCgdUi9V" name="Mapeamento de Histórias">
    <mxGraphModel dx="472" dy="778" grid="1" gridSize="10" guides="1" tooltips="1" connect="1" arrows="1" fold="1" page="1" pageScale="1" pageWidth="827" pageHeight="1169" math="0" shadow="0">
      <root>
        <mxCell id="0" />
        <mxCell id="1" parent="0" />
        <mxCell id="iLkB3V-Q7PKIjUPxOMpI-1" value="&lt;b style=&quot;&quot;&gt;&lt;font style=&quot;font-size: 37px;&quot;&gt;MAPEAMENTO DE HISTÓRIAS&lt;/font&gt;&lt;/b&gt;" style="text;html=1;strokeColor=none;fillColor=none;align=center;verticalAlign=middle;whiteSpace=wrap;rounded=0;" parent="1" vertex="1">
          <mxGeometry x="503.5" y="51.56" width="646" height="60" as="geometry" />
        </mxCell>
        <mxCell id="iLkB3V-Q7PKIjUPxOMpI-2" value="" style="shape=image;verticalLabelPosition=bottom;labelBackgroundColor=default;verticalAlign=top;aspect=fixed;imageAspect=0;image=data:image/png,iVBORw0KGgoAAAANSUhEUgAABeMAAAG3CAYAAAA3sU5bAAAAAXNSR0IArs4c6QAAAARnQU1BAACxjwv8YQUAAAAJcEhZcwAAFxEAABcRAcom8z8AAFpzSURBVHhe7d0JmG1nWeD7dujua19v68VuWzTXyKmKu1KA0IQogUAgzBJk0EAYwjwPEZFIoBkkICBIGMOkDGEQBAxEogYwtGFGBpkhikECQoIgSMTIEPZ9d/hiVzbvTk7t2t+31/D7Pc//OZCcWt+31qraWftNpc5/AAAAAAAAAAAAAAAAAAAAAAAAAAAAAAAAAAAAAAAAAAAAAAAAAAAAAAAAAAAAAAAAAAAAAAAAAAAAAAAAAAAAAAAAAAAAAAAAAAAAAAAAAAAAAAAAAAAAAAAAAAAAAAAAAAAAAAAAAAAAAAAAAAAAAAAAAAAAAAAAAAAAAAAAAAAAAAAAAAAAAAAAAAAAAAAAAAAAAAAAAAAAAAAAAAAAAAAAAAAAAAAAAAAAAAAAAAAAAAAAAAAAAAAAAAAAAAAAAAAAAAAAAAAAAAAAAAAAAAAAAAAAAAAAAAAAAAAAAAAAAAAAAAAAAAAAAAAAAAAAAAAAAAAAAAAAAAAAAAAAAAAAAAAAAAAAAAAAAAAAAAAAAAAAAAAAAAAAAAAAAAAAAAAAAAAAAAAAAAAAAAAAAAAAAAAAAAAAGISDDjrotyVJkiStv+3t7SuUx3QAAGBIZg/8P//zPz+VJEmS1ImeWR7VAQCAITGMlyRJkjqVYTysUvJFJkmSdKnKY0N1hvGSJElSpzKMh1VKvsgkSZIuVXlsqM4wXpIkSepUhvGwSskXmSRJ0qUqjw3VGcZLkiRJncowHlYp+SKTJEm6VOWxoTrDeEmSJKlTGcbDKiVfZJIkSZeqPDZUZxgvSZIkdSrDeFil5ItMkiTpUpXHhuoM4yVJkqROZRgPq5R8kUmSJF2q8thQnWG8JEmS1KkM42GVki8ySZKkS1UeG6ozjJckSZI6lWE8rFLyRSZJknSpymNDdYbxkiRJUqcyjIdVSr7IJEmSLlV5bGhiNpCXJEmStP62t7evUB7TgVXI3nBLkiTtrDw2AAAAAMvK3nBLkiTtrDw2AAAAAMvK3nBLkiTtrDw2AAAAAMvK3nBLkiTtrDw2AAAAAMvK3nBLkiTtrDw2AAAAAMvK3nBLkiTtrDw2AAAAAMvK3nBLkiTtrDw2AAAAAMvK3nBLkiTtrDw2AAAAAMvK3nBLkiTtrDw2AAAAAMvK3nBLkiTtrDw2AAAAAMvK3nBLkiTtrDw2AAAAAMvK3nBLkiTtrDw2AAAAAMvK3nBLkiTtrDw2AAAAAMvK3nBLkiTtrDw2AAAAAMvK3nBLkiTtrDw2AAAAAMvK3nBLkiTtrDw2AAAAAMvK3nBLkiTtrDw2AAAAAMvK3nBLkiTtrDw2AAAAAMvK3nBLkiTtrDw2AAAAAMvK3nBLkiTtrDw2AAAAAMvK3nBLkiTtrDw2AAAAAMvK3nBLkiTtrDw2AAAAAMvK3nBLkiTtrDw2AAAAAMvK3nBLkiTtrDw2AAAAAMvK3nBLkiTtrDw2AAAAAMvK3nBLkiTtrDw2AAAAAMvK3nBLkiTtrDw2AAAAAMvK3nBLkiTtrDw2AAAAAMvK3nBLkiTtrDw2AAAAAMvK3nBLkiTtrDw2AAAAAMvK3nBLkiTtrDw2AAAAAMvK3nBLkiTtrDw2AAAAAMvK3nBLkiTtrDw2AAAAAMvK3nBLkiTtrDw2AAAAAMvK3nBLkiTtrDw2AAAAAMvK3nBLkiTtrDw2AAAAAMvK3nBLkiTtrDw2AAAAAMvK3nBLkiTtrDw2AAAAAMvK3nBLkiTtrDw2AAAAAMvK3nBLkiTtrDw2AAAAAMvK3nBLkiTtrDw2AAAAAMvK3nBLkiTtrDw2AAAAAMvK3nBLkiTtrDw2AAAAAMvK3nBLkiTtrDw2AAAAAMvK3nBLkiTtrDw2AAAAAMvK3nBLkiTtrDw2AAAAAMvK3nBLkiTtrDw2AAAAAMvK3nBLkiTtrDw2AAAAAMvK3nBLkiTtrDw2AAAAAMvK3nBLkiTtrDw2AAAAAMvK3nBL0pi76lWvOj300EOnhx9++PSGN7zh9Jd/+Zent73tbad3uMMdpsccc8z01re+9fRmN7vZ9Igjjpj+0i/90vRqV7vadDKZpMeShlJ5bAAA6I19+/b9WDyn//RBBx20b3Nzc3tjY+Ma8f+vHf//evHrNWd/7eCDDz4wfv3vv/ALv/B/x4f8wPc+EgAqyd5wS9KQu971rje9053uNH34wx8+fc5znjN9wxveMP3ABz4wPf/886d78Y//+I/TD37wg9PTTjvt4uOecMIJF69z3eteN92H1KfKYwMAQGccdNBBPxPPKTeLX4+PXhadEf//g9Hnon+bPcPstjjGF6J3lOP9dvy1Y6Pr7Nu37yfLsgCwvJ3/0FlVt7jFLabHHnvs9M53vvPFg6g73vGO//4dpbe//e2nt7vd7aZHH330qJqd8+zcZ9dgdi1mza7L7PrMrtOs2TVbZ9m93Guz417yOVD7/s+Oe8l1vuRaX9LOa37Jdd957btw/WuX3Z8xdNhhh03vc5/7XDwcP+uss6Zf/epXy+i8rXPOOWf62te+dvqIRzxiepOb3CTda1fLPp9qla3f1bL91ypbv3XlsaG5yWRyg83NzSPizfD1ouvGXq4z+462jY2Nw+KvX2tozc5tdo7R4bPznZ13/PUj4q9ff3YtalYueVOzdWfnODvfra2tavd09vkyu66zaxr//4hdtF222szsOzPn702N4lr8TFlyaXF9bhzHuVFc2xtGR86OO7tus3taoeuWZUdjdt6z6xnX9eKv/9k1nl3r+Os3ml37VVeW3ZM4zn+d7feSezb7uqv5tT1r9vU9WyPWvfas2Zqlw2fN9lG6+HMpPuaI+JjZNa3+urrO4lx/sdyWIfnB2f2Lc3tU3Ns3RV+K0ueWin0sekHs4S7xebRZ9tVbs8+V2ddD+fqYfc3Ovm4uftaq/bXb1S55PZldh9n1mF2X2fWJv3fJa0f6NdeqcuuAPosXl+wfMHvqlFNOKeMn+uJd73pXei/30l3vetdydNZt9t3a2T0aYrMfGXP88cdP/+RP/mT6mc98plyB7vniF784Pf3006cPfvCDO/8jblr52te+lq7f1VrK1m9deWxoLtuL6hRvMlcyjNuNeHP7rWwvXSn2d1rZajOx7j3n91GjOLdHliWXlh23VrHfj5ZlRyPO+2vz16FmZdk9iWea+2XH1lo6pdyWXtu3b9/Pxrk8NF4DzuzoPzM+G/1h/DP0V2O7vfoRN3E9Z8P37JzU4crtA/os++Lea4bx/WMYP2xDH8Zf5SpXmT70oQ+dnnHGGdOLLrqonHV//Mu//Mv01FNPnd7vfvdLz2/dtWIYv1i2fuvKY0Nz2V5UJ8P4tK+VrTYTa/ZpGH/u/HFrFkuO5mc5z36GdXYNKvaXZek9MYzvVL0dxh944IE/Hv9Mmn0uvWXunDpdvK5+PX59Sez9luVUOs0wvp+V2wf0WfbFvdcM4/vHMH7YhjqMf9CDHjT90z/90+m3v/3tcqb9N/sxOi9/+cunRx55ZHrO66gVw/jFsvVbVx4bmsv2ojoZxudtb2//VNluE7Fmn4bxz5o/bs3ic/QmZenBi/Nt8nmwo4eUpffEML5T9W4YH69LV4ue04d/NlxecQ7/GL++YGNj4xrl9Don9mgY38PK7QP6LPvi3muG8f1jGD9sQxvGP/rRj55+6lOfKmc3XLOh/A1ucIP0GrSsFcP4xbL1W1ceG5rL9qI6GcYv7PZlu03Een0axs9+Vnx6/Eo9pSw9eHGur5o799pdqSy9J4bxnao3w/jY6+y15I079j603hivub9cTrczDOP7Wbl9QJ9lX9x7zTC+fwzjh20Iw/hDDz10+vSnP316/vnnl7Maj3UP5VsxjF8sW7915bGhuWwvqpNhfF7s8bllu03Emr0Zxs9kx67YB8uygxf3Z/Zdtdk1qFJZds8M4ztV54fxW1tbPxH7fP7cvgdbfF2/L369Zzn9tYv9GMb3sHL7gD7Lvrj3mmF8/xjGD1vfh/HPfe5zB/WjaJYx+1n4T3jCE9LrU7tWDOMXy9ZvXXlsaC7bi+pkGL+wj5ftNhHr9WoYH8f5ZHb8WpVlB20ymfx0du4V+9Oy9J4ZxneqTg/jZ58r8frxlWTfY+jT0bHlUqyNYXw/K7cP6LPsi3uvGcb3j2H8sPV1GP+ABzxg+nd/93flLJj53//7f09vfOMbp9erVq0Yxi+Wrd+68tjQXLYX1ckwfnFlu03Een0bxj85O36tJpPJ9cvSgxXX9C7Zudcq1rt3WXrPDOM7VSeH8fE58v/E3l45t9dRFl97fxFdt1ya5mZrZ/tStyu3D+iz7It7rxnG949h/LD1bRh/vetdb/qGN7yh7J553/rWt6a//du/nV67GrViGL9Ytn7rymNDc9leVCfD+MvsOmXL1cVavRrGb2xsHJYdv2JPKEsPVtyblyXnXa19+/b9ZFl6zwzjO1XnhvGxp9nPhv/bHXtUFF/zL4qvw58tl6kZw/h+Vm4f0GfZF/deM4zvH8P4YevTMH72o1guvPDCsnMuyyte8Yr0Gq66VgzjF8vWb115bGgu24vqZBi/uFUNrvdHrNerYfxMdvyKvacsO1hxb76QnHeVYq1vlmVXwjC+U3VqGO9z43L7TvTAcrmaiK9/w/geVm4f0GfZF/deM4zvH8P4YevDMP7KV76y74Zfwutf//r0eq6yVgzjF8vWb115bGgu24vqZBh/mb2pbLm6WKuPw/gPzB+/ZmXZQYrz+2/z51uz+Dx4TVl6JQxcO1VnhvHxefaIZH/K+8Pt7e0rlEtXlWF8Pyu3D+iz7It7rxnG949h/LB1fRh/m9vcZvqJT3yi7JbdevOb35xe11XVimH8Ytn6rSuPDc1le1GdDOMvs38rW64u1urjMP4x88evXLMfG9Ra3JdjkvOtVnzd37EsvRKG8Z2qE8P42MdT5valy+/c+Fr6lXIJqzGM72fl9gF9ln1x7zXD+P4xjB+2Lg/jTzjhhOlFF11Udsqy3vnOd6bXdxW1Yhi/WLZ+68pjQ3PZXlQnw/jLbjKZ/FzZdlWxVu+G8XGsq2VrVOyxZenBiWv5ouR8q7W9vf2jZemVMIzvVGsfxsceHju3J+2up5RLWYVhfD8rtw/os+yLe68ZxvePYfywdXUY/+IXv7jskFU47bTT0uu811oxjF8sW7915bGhuWwvqpNh/GUXe71L2XZVsVbvhvEz2Rq1ir2/vSw7OHFun83OuUax1j+VZVfGML5TrXUYH58L90j2pF0WX6d/dsghh/yXcllXKo5tGN/Dyu0D+iz74t5rhvH9Yxg/bF0cxv/hH/5h2R2r9LznPS+93nupFcP4xbL1W1ceG5rL9qI6GcZfdrHXF5VtVxVr9XIYH8d7e7ZOrcqyg7Jv374fy861Yi8pS6+MYXynWtswfvbPk2Q/WrJ4ff1kfG1NyuVdmTiuYXwPK7cP6LPsi3uvGcb3j2H8sHVtGP9Hf/RHZWfU8Bu/8RvpdV+2VgzjF8vWb115bGgu24vqZBh/uX26bLuqWKevw/jfzNapVaz3i2XpwYivwV/NzrVitypLr4xhfKda1zD+h+Lr81PJfrS3/i2u643KNV6JOJ5hfA8rtw/os+yLe68ZxvePYfywdWkY/7rXva7sipqya79srRjGL5at37ry2NBcthfVyTD+8jviiCN+uGy9mlinl8P4jY2NzWydWq16/10Q5/W8+fOsWSz5Q99beXXivtw3W0traS3D+PgceHqyF62ouL53K5d6z+JYhvE9rNw+oM+yL+69ZhjfP4bxw9aVYfzrX//6siNqevSjH51e/2VrxTB+sWz91pXHhuayvahOhvH71Q3L1quJNXo5jJ/J1qlV7P+tZdnBiPP62/nzrNjnyrIrFffl3slaWk/Nh/Hxz5GbJPvQCotrfPdyuffMML6fldsH9Fn2xb3XDOP7xzB+2LowjH/lK19ZdkNNr33ta9Prv5daMYxfLFu/deWxoblsL6qTYfzlF/s9sWy9mlint8P4OOYZ2Vq1KssOwhWveMX/kp1jreJePacsvVJx7HvNr6W11XwYH2u+e24PWm2PKZd6JeJ1wDC+h5XbB/RZ9sW91wzj+6fGMP4ud7lLOTrrtu5h/Iknnlh2Qk2f+tSn0uu/11oxjF8sW7915bGhuWwvqpNh/H51Vtl6NbFGn78z/v7z69QsPmf/Z1m69yaTya9k51iruP8r/dnTl4jzuEe2ntZS02F8fE7dNtmDVlRc3z8ol3pl4piG8T2s3D6gz7Iv7r1mGN8/NYbxxx57bDk667bOYfzd7na3sgtqu+ENb5jeg73WimH8Ytn6rSuPDc1le1GdDOP3r7L1amKN3g7jJ5PJT2dr1SrO4fiydO/F+Txr/vxqVpZdubgnd8vW01pqOoyP9d42t75W15vKZV4pw/h+Vm4f0GfZF/deM4zvnxrD+Dvf+c7l6Kzbuobx173udadf/OIXyy6o6aEPfWh6D1ZRK4bxi2Xrt648NjSX7UV1MozfvyahbL+KWKO3w/iZxve0yoBqHeJcPjF3btWKe/SpsuzKxbHvmq2ptdRsGB///DgqWV8rKL6mPlku88rFsQ3je1i5fUCfZV/ce80wvn9qDOPveMc7lqOzbusaxr/zne8sO6Cml7zkJen1X1WtGMYvlq3fuvLY0Fy2F9XJMH7/ij3fp2y/ilij18P4OPap82tV7KKybK8dcsgh/zE5t2rFvX9yWXrl4vjHzq+ntdVsGB9rvWpuba2g+Fr9l+3t7SuUy7xycXzD+B5Wbh/QZ9kX914zjO+fGsP4O9zhDuXorNs6hvEvfOELy+rU9P73vz+9/qusFcP4xbL1W1ceG5rL9qI6Gcbvd68s268ijt/374xv+p3RGxsbVy5L91acx83nz6tmW1tbh5WlVy6Of+f59bS2mgzjDzzwwB9P1tYKitfTq5fLXIVhfD8rtw/os+yLe68ZxvdPjWH8McccU47OurUexh999NFl5f750pe+NP2rv/qr6Wte85rpU57ylOkJJ5ww/fVf//Xpfe9734v/UOLZj1+6973vPT3uuOOmD3/4w6dPfvKTL/69s6H4P/3TP5WjtPGtb31resghh6T3YJW1Yhi/WLZ+68pjQ3PZXlQnw/j97vNl+1XE8Xs9jF/DYO4hZeneinvxtOS8qlWWrSJeR+6Yram11GQYH+s8YG7dLvWd6APRi6MTovvPPkfja+6X439fJ7p1dK/Z34u/9vL4tdmPi7q8JpPJLcslribO2TC+h5XbB/RZ9sW91x75yEdOX/rSl3a6d7zjHWXEUd9HP/rRdA9d6jnPeU56L/fS7W53u3IF6jvnnHPS89L3mn2XenaPavWe97yn3JnuO/vss6evfOUrpw95yEOmhx9+eHo+u+nGN77xxa+Bp5566vRzn/tcWaWOe97znukeVl0rhvGLZeu3rjw2jE52LWpVlhyVg/o5jJ/+wi/8wv9dTmHl4vi9HsbPxPG/Nr9exU4vy/ZW3IsPJ+dVqw+UZauIc7lDsmat3hPrPUMLO67clqriPpw1d1/W3Xlx7idNJpNrxvZ+4Hu73H/79u37sTjGraIXx3G+suO4LXtg2U5Vsz8DZcfnS1c7Obk+VYq1zplbu5OV2wf0WfYiNIZm39Hayu///u+nexh6LYfxb3zjG9M9qH0nnnhiuSvdNftDZV/wghdMjzrqqPQcVtmd7nSni79z/pvf/GZZfTWe/exnp+vVqBXD+MWy9VtXHhtGJ7sWtSpLjkq8qezlMD72/cvlFFYujt/7YXwc+xXZmpX6t7JsbyXnVLNHl2WriHvfbBgfaz2uLMv6/GDch29n92cNfWhzc/NXy75WJo578zjH18+tVa1Yq9qf6dBHs3/5nV2nGsW1P6csC1BX9iI0hgzj62cYP76ue93rTv/1X/+13JXued/73je9//3vn+69dle72tUu/hcVn//858tulnfWWWela9SqFcP4xbL1W1ceG0Ynuxa1KkuOSrzx7esw/nfLKaxcHL/3w/jJZPJr2Zq12tra+vmydO/EfbhRdk4V+4WydBVxPobxIxL34fD5+9K6+Dz4Zvz68LKlauJ15iqxzrOi2Y++Sfeygv6wLEdhGA8MUvYiNIYM4+tnGD++TjvttHJHuuWv//qvpw960IPSPa+jJz7xidPzzz+/7G53Zj+XPjtmzVoxjF8sW7915bFhdLJrUauy5KjEG99eDuOj95RTWLk4du+H8Ycccsh/zNas2APK0r0T9+HJyflUqyxbTZyPYfyIxH14+Px9aVl8DvxDVPUPOZ23b9++n401fz/bz16KY76jLMEOhvHAIGUvQmPIML5+hvHj6va3v325G90x+9Ewj3vc49L9rrvt7e3pH/zBH5Sd7r/b3va26fFq1oph/GLZ+q0rjw2jk12LWpUlRyXe+PZ1GF/tfsWxez+Mn4njfyFbt1KnlmV7J67T+5PzqdXbyrLVxPkYxo9I3IM3ZPemUZ+P9ZsO4nfa2to6LNb/s2Rfy/TZcljmGMYDg5S9CI0hw/j6GcaPqzPOOKPcjW4488wzpze60Y3SvXapO97xjhd/5/7+ePzjH58eo3atGMYvlq3fuvLYMDrZtahVWXJU4o1vb4fxsferldNYqTj2IIbxscYL5tesVZzL18uyvZOdT8UeWpatJu6FYfyIxH346Px9aVXc/18q21ir2Md9oguyPe5vGxsb/185HHMM44FByl6ExpBhfP0M48dT174r/mlPe1q6zy73yle+suw+t87P8VYM4xfL1m9deWwYnexa1KosOSrxxrfPw/jjymmsVBx7KN8Z/8vZuhW7Ulm6NzY3N49IzqNa+/btO6gsXU3cd8P4EYn7cOH8fWlR3Ptqf27HMsqPrnlNttfLazKZXLschoRhPDBI2YvQGDKMr59h/Hjq0nfFH3/88eke+9AznvGMchaX9rnPfS79/a1qxTB+sWz91pXHhtHJrkWtypKjEm98Ww3jb7ajVf2M49eV01ipOO4ghvEz2bq1ivO5d1m2NzY3Nx+fnUutyrJVxX0wjB+J2XdzZ/elQZ+O5X/oe7voltjbA+b2epnF5/Ax5UNZwDAeGKTsRWgMGcbXzzB+HHXlu+Jnf7Dpsccem+6xT73+9a8vZ/R/HHnkkenvbVUrhvGLZeu3rjw2jE52LWpVlhyVeOPbZBhflrvYEUcc8cPZ79ltsfd/LIdcqTj2kIbxn55ft1ZxPn9Ulu2N2Pe758+jVnF9/rwsW1WsYxg/EpPJ5PrZfald3Pcnly10UuzxyOjcnXvOivM4vnwIl8EwHhik7EVoDBnG188wfhx14bviL7zwwukd7nCHdH997KlPfWo5s+n0oQ99aPp7WtaKYfxi2fqtK48No5Ndi1qVJUcl3vg2H8bPxF9byZB4a2vrJ8ohVyaOO5hhfKzx9GztGsVaXynL9kZ2HrWK63PfsmxVsY5h/EjE9b9Ndl9q14cf6xJ7/OnY65vn976jZ5ffyuUwjAcGKXsRGkOG8fUzjB9+N7jBDcodWK973OMe6f763Ote97rpy172svTvta4Vw/jFsvVbVx4bRie7FrUqS45KvPFdyzA+1n1x9vt2WxzntuWQKxPHHcwwvvV3zm5ubh5Qlu68ra2tw7JzqFWraxOfV4bxIxGfU3fM7kvN4p73algae35pcg5vKH+b/WAYDwxS9iI0hgzj62cYP/xmf1Dquj3wgQ9M96bV1Yph/GLZ+q0rjw2jk12LWpUlRyXe+K5rGH/X7Pct0TPLIVcmjjmYYfxMtnat4pzuVpbtvNjvo+f3X6u4Lt8uy1YXaxnGj0Tcg3vN35PaxT1/R1m+N2LPO/8LoQ+Wv8x+MowHBil7ERpDhvH1M4wffp/61KfKHViPk046Kd2XVlsrhvGLZeu3rjw2jE52LWpVlhyVeOO7lmH8ZDL5uez3LdGHyiFXJo45qGF8rPORbP0axVqvKMt2Xuz3bfP7r9hry7LVxT0wjB+JuP4Pzu5LzWLNXn5Xeez7ydE/XvGKV/wv5S+xnwzjgUHKXoTGkGF8/Qzjh926/+DW2c+qz/al1deKYfxi2fqtK48No5Ndi1qVJUcl3viuZRg/E3/93+Z/3zKVw61MHHNo3xn/O/NrV+y8smznJXuv2Z3LstXF55Vh/EjE9T8+uy81izVfVJbvne3t7f9U/ie7YBgPDFL2IjSGDOPrZxg/7GY/z3xdzj333Omhhx6a7kurrxXD+MWy9VtXHhtGJ7sWtSpLjkq88V3nMP5N879vmeIcfrEcciXimEMbxh86v3bNrnSlK/2PsnRnTSaTa2Z7r9X29vYVytLVxeeVYfxIxPU/LrsvlXthWZ6RMIwHBil7ERpDhvH1M4wfdl/5ylfK1W/vuOOOS/ekOrViGL9Ytn7rymPD6GTXolZlyVGJN75rG8bH2o/Mfu9ui+McXw65EnHMQQ3jZ7L1azWZTO5Ulu2s2OcJ8/uu2NfKsk3E55Vh/EjE9b9vdl8qd2pZnpEwjAcGKXsRGkOG8fUzjB9u97///cuVb+/P/uzP0j2pXq0Yxi+Wrd+68tgwOtm1qFVZclTije86vzP+OvO/b8lOL4dciTjeEIfx75lfv2IvKct2Vlz7v0j2XauXlmWbiHMzjB+Jzc3Nu2f3pWZxz3v3B7iyN4bxwCBlL0JjyDC+fobxw+2UU04pV76t7373u9Mb3/jG6Z5Ur1YM4xfL1m9deWwYnexa1KosOSrxxndtw/iZ7PfutjiHC8rhViKOObhh/GytbA+V+lxZtrOSPVcrrv1tyrJNxHqG8SMR1/9G2X2p3fb29k+VLTAChvHAIGUvQmPIML5+hvHD7eyzzy5Xvq1nPOMZ6X5Ut1YM4xfL1m9deWwYnexa1KosOSrxxnfdw/iPz//eZYrz+JlyyD2L4w1uGL+xsXHlbA+1avkz0ncrrvvVsj3X6oADDviRsnQTcX6G8SMR139fdl9qF+verWyBETCMBwYpexEaQ4bx9TOMH2bXv/71y1Vv65vf/Ob0mte8Zron1a0Vw/jFsvVbVx4bRie7FrUqS45KvPFd6zA+1n9u9vt3WxznDuWQexbHG9wwfibbQ60mk8nRZdnOiev+m9meaxRr/UNZtpnZ10K2lxrFWobx6/UDcR++O39fahf33Y+qGRHDeGCQshehMWQYXz/D+GF2wgknlKve1ote9KJ0P6pfK4bxi2Xrt648NoxOdi1qVZYclXjju+7vjL/9/O9dsueXQ+5ZHGuQw/hY763ZPir1wrJs58R1+PNkv1WKtU4uyzYTaxrGj0jcg49m96Z2k8nkpmULDJxhPDBI2YvQGDKMr59h/DB7wxveUK56W0ceeWS6H9WvFcP4xbL1W1ceG0Ynuxa1KkuOSrzxXeswfvazh7Pfv9viPD5ZDrlncbyhfmf8Q+b3UKsuD1Rib9/O9lyjdQws4/wM40ck7sHLsnvToPeWLTBwhvHAIGUvQmPIML5+hvHD7Pzzzy9XvZ3TTjst3Yva1Iph/GLZ+q0rjw2jk12LWpUlRyXe+K51GD8Tf/+f53//MpXD7Vkca6jD+CvN76Fm29vbP1qW7ozNzc3tbK+1Kss2FZ9XhvEjEvfhN+bvS6vi/p9UtsGAGcYDg5S9CI0hw/j6GcYPr1/5lV8pV7ytBzzgAel+1KZWDOMXy9ZvXXlsGJ3sWtSqLDkq8cZ37cP42MOfZB+z2+I41yuH3JM41iCH8TOxZrPvCo9uXZbtjDj/45J9VinW+puybFOxrmH8iMQ9+KXs3rQq1r932QoDZRgPDFL2IjSGDOPrZxg/vH7zN3+zXPF2vvrVr6Z7UbtaMYxfLFu/deWxYXSya1GrsuSoxBvfLgzjV/UHaj66HHJP4jiDHcbHuqfP76NWcX7PKct2RuxrJf/iZz97Slm2qbjuhvEjE/fh77P706ou/4HN7J1hPDBI2YvQGDKMr59h/PB6/vOfX654O69+9avTvahdrRjGL5at37ry2DA62bWoVVlyVOKN79qH8ZPJ5JrZxyzRW8oh9ySOM+TvjL9PtpcaxVqfKst2RuzrX+f3Was4/5X8lxq7Fesaxo9M3IeTs/vTsngdv1PZDgNjGA8MUvYiNIYM4+tnGD+8zjzzzHLF27n73e+e7kXtasUwfrFs/daVx4bRya5FrcqSoxJvfNc+jJ/JPma3zc6lHG5P4liDHcZf6UpX+h/ZXmq1ubn5n8vSa7dv376Dsj3WqizbXHxeGcaPTHyd3Ti7P62Lz4ffLltiQAzjgUHKXoTGkGF8/Qzjh9e5555brngbF1100fTKV75yuhe1qxXD+MWy9VtXHhtGJ7sWtSpLjkq88e3KMP4D8x+zTHE++8ohlxbHGewwfibWXskfmLs/xTneoiy7drGf+8/vr2IfLMs2F9fcMH6E4n58bP7+rKnXbm9v/1TZFgNgGA8MUvYiNIYM4+tnGD+srn71q5er3c573/vedC9qWyuG8Ytl67euPDaMTnYtalWWHJV449uJYXzs46Ts43bb5ubm3cshlxbHGfQwPtZ9TbafGsVaTy/Lrl3s54/n91exx5Zlm4trbhg/QnEvjs/u0Zo6bzKZ/FrZGj1nGA8MUvYiNIYM4+tnGD+sjj766HK123nOc56T7kVta8UwfrFs/daVx4bRya5FrcqSoxJvfLvynfG3nv+YJXtpOeTS4hiDHsbPfrZztp8axTl+tCy7drGfZv9FwOzPQSjLNhfX3DB+hOJ+/Le4H9+ev0dr7qXxtfBzZYv0lGE8MEjZi9AYMoyvn2H8sHrkIx9ZrnY7d73rXdO9qG2tGMYvlq3fuvLYMDrZtahVWXJU4o1vJ4bxP/uzP/v/Zh+32+J8PlMOubQ4zqCH8dvb2z+a7adWseQPfm/l9Tn44IMPzPZWq7LsWsTnlWH8SMX9WMl/YbTivhP7elTZIj1kGA8MUvYiNIYM4+tnGD+sXvCCF5Sr3c7sR+Nke1HbWjGMXyxbv3XlsWF0smtRq7LkqMQb304M42fi950//3HLtL29/Z/KIZcSxxj0MH4m1v5itqcabW5u3qQsuzaxj3vN76tWcW3fXpZdi1jfMH6k4n7sy+5TF4q9/X38+sCyVXrEMB4YpOxFaAwZxtfPMH5YveENbyhXu43Pfvaz6T7UvlYM4xfL1m9deWwYnexa1KosOSrxxrczw/jYy0p+lvnm5uaNyyGXEscY/DA+1n/p/H4q9pSy7NrEtX51sq8qxVoPK8uuRaxvGD9icU+ekd2rrhT7Ozt+vVfZLj1gGA8MUvYiNIYM4+tnGD+s3v3ud5er3cZb3vKWdB9qXyuG8Ytl67euPDaMTnYtalWWHJV449ul74x/4PzHLdkTyiGXEh8/hu+Mv022p0p9sCy7NnG+X072VaWNjY0rl2XXIs7VMH7EZj+GKu7LF7L71aVijx+JX48t26bDDOOBQcpehMaQYXz9DOOH1TnnnFOudhsnn3xyug+1rxXD+MWy9VtXHhtGJ7sWtSpLjkq88e3MMH5ra+sq2cfutjinPf2YkDjG4Ifx4QezPdWqrLkWk8nkp7M91aosuzbxeWUYP3LxOX+P7H51sfgcel/8eruydTrIMB4YpOxFaAwZxtev5TD+vPPOm5555pmDa/aHpmbXdh3967/+a7nabTzkIQ9J96H2tTIbxt/qVrfqTS1l96V15bFhdLJrUauy5KjEG9/ODONnso9dpnK4pcTHj2EYPzvPv5vfU60mk8kNyrLNxXW+S7anGsVaZ5Rl1yb20HIY/6notKEV53bzcjl7K85jJT/2q1Wx33fEr7cq26dDDOOBQcpehMaQYXz9Wg7jh+qJT3xiem1bd+ihh5YdtfNrv/Zr6V7UPtYvuy+tK48No5Ndi1qVJUcl3vh2ahgf+3lX9vG7bXNzc7scctfi40cxjI/1n5vtq1K/U5ZtLs7zZcl+anX/suzaxPk2G8YPtbiGtyiXs7fiNfC/x7l8fv7cul5c+zPj15uV06ADDOOBQcpehMaQYXz9DOP3rivD+KOOOqrsqJ0jjzwy3Yvax/pl96V15bFhdLJrUauy5KjEG9+uDeOflH38bptMJvcrh9y1+PhRDOPjGt0021el3luWbS6u8xeT/VQp1tpXll2b2INh/B6La9j7YfxMnMut58+tL8U9+LN1/hc1/B+G8cAgZS9CY8gwvn6G8XvXlWH8Pe95z7Kjdq5+9aune1H7WL/svrSuPDaMTnYtalWWHJV449u1H1Nzs/mPXbJXlUPuWnzsKIbxM9m+alWWbKp8d3C6nwpdVJZdq/i8MozfY3ENBzGMn4nz+a358+tTcS9eP5lMrl1OhzUwjAcGKXsRGkOG8fUzjN+7rgzjH/awh5UdtXHhhRem+9B6Yv2y+9K68tgwOtm1qFVZclTijW+nhvEHHHDAj2Qfv9vivL5QDrlr8fGjGcbHHj6a7a1Sh5dlm4nzazmY/uOy7Fo1PudBFtdwMMP4mTinZ8+fY9+Ke/Lqra2tQ8op0ZBhPDBI2YvQGDKMr59h/N51ZRg/+4NkW/qHf/iHdB9aT6xfdl9aVx4bRie7FrUqS45KvPHt1DB+Jn7/Z+c/fpk2Nzf/aznkrsTHjuk74586v6+KPbYs20xc4xcl+6hSrHW3suxaxT4M4/dYXMNBDeNn4pxen51rDztla2vrKuW0aMAwHhik7EVoDBnG188wfu+6Mox/3OMeV3bUxic+8Yl0H1pPrF92X1pXHhtGJ7sWtSpLjkq88e3cMD729PLsGLttc3PzluWQuxIfO6Zh/OHz+6pVnO87yrLNxLor+Rc7+9PW1tYVy7JrFdfZMH6PxTUc3DB+9l8dxXm9LzvfPhbn8rRl/4Uru2MYDwxS9iI0hgzj62cYv3ddGcY/6UlPKjtq46//+q/TfWg9sX7ZfWldeWwYnexa1KosOSrxxreL3xl/r/mPX7LfK4fclfi40QzjZ7K91aos2cSBBx7449keahT38utl2bWLvRjG77G4hoMbxs8cfPDBcWrt/kDj2sW5fDl6cDk9KjGMBwYpexEaQ4bx9TOM37uuDONPOumksqM23vOe96T70Hpi/bL70rry2DA62bWoVVlyVOKNb+eG8fv27TsoO8Zui3N7XznkrsTHjm0Y/975vdUqzvkXy7LVTSaTX8v2UKM4r5eVZdcu9mIYv8fiGg5yGD8z+8NQ4xzPnT/nPhf36/3L/pdQXD7DeGCQshehMWQYXz/D+L3ryjD+5JNPLjtq46yzzkr3ofXE+mX3pXXlsWF0smtRq7LkqMQb384N42fiYy6aP8YylcPtSnzcqIbxsY/HZfurUctzjvWeP79+xW5fll27uMaG8XssruFgh/EzcX77or/Kzr3nvXYymVy1nCYrYhgPDFL2IjSGDOPrZxi/d10Zxs8+h1t6y1veku5D64n1y+5L68pjw+hk16JWZclRiTe+nRzGx77emh1nt21ubv7Pcsj9Fh83qmH8xsbGNbL91Wh2X8uy1cV6n55fv1b79u37sbLs2sU1NozfY3ENBz2Mn5n9DPk41z+ZP/chFPfvN8tpsgKG8cAgZS9CY8gwvn6G8XvXlWH8y172srKjNk4//fR0H1pPrF92X1pXHhtGJ7sWtSpLjkq88e3qd8Y/dv4YS/aQcsj9Fh8zqmH8TLa/WpUlq2o8PPpCWbYTYj+G8XssruHgh/GXiPN94fz5D6G4h6+PfqacJntgGA8MUvYiNIYM4+tnGL93XRnGv/rVry47auOMM85I96H1xPpl96V15bFhdLJrUauy5KjEG99ODuMnk8kNsuPsttlAphxyv8XHjW4YH3v539kea7TMf62wW7HOrebXrdjzyrKdEPfSMH6PxTUczTB+Js73xOw6DKAvRbcrp8mSDOOBQcpehMaQYXz9DOP3rivD+Fe84hVlR2289a1vTfeh9cT6ZfeldeWxYXSya1GrsuSoxBvfTg7jww9mx9ltcX7/VI633+Ljxvid8Q+f31+t4ryPL8tWE+s8e37dWk0mk079wZFxfQ3j91hcw1EN42fivG8fnb/zOgyoZ5XTZAmG8cAgZS9CY8gwvn6G8XvXlWH8i1/84rKjNt75znem+9B6Yv2y+9K68tgwOtm1qFVZclTijW9Xh/Gzvf1Ndqzdtrm5+d/LIfdLfMwYh/Fb8/ur2JvKstXEtf1ksm6Vtre3/1NZthPi3A3j91hcw9EN42f27dv3k3H+r5q/HgPpg3Ffr15OlV0wjAcGKXsRGkOG8fUzjN+7rgzjn//855cdtfG+970v3YfWE+uX3ZfWlceG0cmuRa3KkqMSb3y7PIz//exYu20ymfxaOeR+iY8Z3TB+JvZ00fweK3VRWbKK2XA8WbNWf1uW7Yz4vDKM32NxDUc5jL9EnP994jpcOH9dBtDXopuX02Q/GcYDg5S9CI0hw/j6GcbvXVeG8c985jPLjtr48Ic/nO5D64n1y+5L68pjw+hk16JWZclRiTe+nR3Gx8fdef44S/bscsj9Er9/rMP4P53fY622trauUpZdubiuv5ytWanfK8t2Rpy/Yfwei2s46mH8zMbGxmZci2avCS3b3Ny8ezlN9oNhPDBI2YvQGDKMr59h/N51ZRj/1Kc+teyojU9+8pPpPrSeWL/svrSuPDaMTnYtalWWHJV449vZYfzGxsb/lx1rt8U5fqQccr/Ex4xyGB/7eXC2z0o9pCy7cnEeJyXrVSnWulFZtjNiT4bxeyyu4eiH8ZeIa/GbcU2+On+N+l6cV6def7vMMB4YpOxFaAwZxtfPMH7vujKM/53f+Z2yozbOO++8dB9aT6xfdl9aVx4bRie7FrUqS45KvPHt7DB+Jj72X+ePtUzlcPslfv8oh/Gr+pcf+9npZdmVi+v6kWS9KpUlOyXO3zB+j8U1NIzfYd++fT8W1+Wp89dpAPmDXfeDYTwwSNmL0BgyjK+fYfzedWUY/5jHPKbsqI3vfOc76T60nli/7L60rjw2jE52LWpVlhyVeOPb6WF87O/Ps+Ptto2NjcPKIS9X/P5RDuNnYk8XZHut0L+VJVcuWatWHypLdkrcQ8P4PRbX0DA+EddmK67NK+avV897ZTk9FjCMBwYpexEaQ4bx9TOM37uuDONPOOGEsqN2rnWta6V7UftYv+y+tK48NoxOdi1qVZYclXjj2/XvjD9h/lhLdkI55OWK3zvmYfxrs73WaBLKsisT+79RtlaNYq0Ty7KdEvsyjN9jcQ0N4y9DfOleP67TW+avW4/zHfKXwTAeGKTsRWgMGcbXzzB+77oyjH/oQx9adtTOUUcdle5F7WP9svvSuvLYMDrZtahVWXJU4o1vp4fxs+9oz4632+I8/6wc8nLF7x/tMH4ymdwj22ulHliWXZm4pr+brFOr65RlOyWugWH8HotraBi/H+I6HRPX673z16+nPbacFnMM44FByl6ExpBhfP0M4/euK8P4u9/97mVH7dztbndL96L2sX7ZfWldeWwYnexa1KosOSrxxrfTw/iZ7HhL9I1yuMsVv3e0w/itra2fyPZaozj/15dlVyaO+4H5dWpVluycuK6G8XssrqFh/C5sbm7+aly3t81fxx628n9BOASG8cAgZS9CY8gwvn6G8XvXlWH8LW95y7KjdmZfo9le1D7WL7svrSuPDaOTXYtalSVHJd74dn4YH3tcyR/IOfsDSsshL1P83tEO42dib+fP77VGcf4XlCVXJlunRrH3d5YlOyf2Zhi/x+IaGsYvYXNz86i4dn+RXdO+FPs/ppwOhWE8MEjZi9AYMoyvn2H83nVlGH/YYYeVHbXzwhe+MN2L2sf6ZfeldeWxYXSya1GrsuSoxBvfPgzjn5Mdc4nuXA55meL3jX0Yf8r8XmsV12BfWXbPNjc3j8jWqFHs+xFl2c6JvRnG77G4hobxexBfizeJ6/in89e1L8X+r1VOhWAYDwxS9iI0hgzj69dyGP/Od75zeswxxwyuQw45JL226+iiiy4qV7uNM888M92H2tfK1772tem73vWu3tRSdl9aVx4bRie7FrUqS45KvPHt/DB+MpkcnR1zt8W5/n455GWK3zvqYXzsa/ZzoNM9r7pY6z5l2T2L4z1+/vi12tjYuEZZtnPimrYcxr84vj6vPbTKpWSPyr8gO3Xuc6YPvbucAsEwHhik7EVoDBnG16/lMP6Nb3xjugetrvPPP79c7Tb+/u//Pt2H2tfKbBifrd/VWsrWb115bBid7FrUqiw5KvHGt/PD+H379v1kdszdFuf6N+WQlyl+76iH8QcccMCPZPutUVyDPyrL7lkc793zx69VWbKT4po2G8bHWo8ry8JCs+80j8+VV2efQx3u8WX7o2cYDwxS9iI0hgzj62cYP6w+/vGPl6vdzlWvetV0L2pbK4bxi2Xrt648NoxOdi1qVZYclXjj2/lh/Ezs85+y4+62ONQPfO+Ii8XvG/Uwfib29plsz6tudl/LknuWHb9Sby5LdlJcU8N4Omn2X5TE502zH4O112bf2V+2PmqG8cAgZS9CY8gwvn6G8cPqrLPOKle7nVvf+tbpXtS2VgzjF8vWb115bBid7FrUqiw5KvHGty/D+Ndnx91tk8nk+uWQC8XvG/0wPvb3vPn91mp//2DdyzL70SLZsSv1kLJsJ8XnlWE8nRZf81eOz58Xzn8+dbAPli2PmmE8MEjZi9AYMoyvn2H8sPrjP/7jcrXbefzjH5/uRW1rxTB+sWz91pXHhtHJrkWtypKjEm98ezGMj2M8ZP6YS/bYcsiF4veMfhg/mUx+JdtzjTY3N+9ell1aHOcx88et2FZZtpMM4+mLjY2NzfgcWtUf0F2rp5TtjpZhPDBI2YvQGDKMr59h/LB61rOeVa52O2eccUa6F7WtFcP4xbL1W1ceG0Ynuxa1KkuOSrzx7cUwfnNz839mx91tcb5vLYdcKH7f6IfxM9meaxTX4RVlyaXFcd42f9xKfbcs2VlxPQ3j6ZV9+/b9bHwuPS0+p74z/znWhba2tq5YtjpKhvHAIGUvQmPIML5+hvHD6kEPelC52u18+ctfTveitrViGL9Ytn7rymPD6GTXolZlyVGJN769GMbPZMddoovK4RaK32MYH2KPH5vfc6XOK0suLTlmleKevb4s2VmxR8N4eulKV7rS/4jPqSdln2vrbHNzc9R/mKthPDBI2YvQGDKMr59h/LC6yU1uUq52W7e61a3S/ahdrRjGL5at37ry2DA62bWoVVlyVOKNb2+G8bHX92XH3m379u07qBwyFb/HMD7E/mbfqZrufdVtb2//VFl21+LjD50/Xq3imtynLNtZsUfDeHqtfKf8ydnn3DqKvXz56KOP/qGyvdExjAcGKXsRGkOG8fUzjB9eF154Ybni7TzhCU9I96J2tWIYv1i2fuvKY8PoZNeiVmXJUYk3vn36zvjfmz/ukt2zHDI1+/tzv79Kce27/p3xN5zfc60mk8mdyrK7FtfxEdkxa3TwwQcfWJbtrLgehvEMQnx+/VJ8np01/3m3jmIvDy7bGh3DeGCQshehMWQYXz/D+OH14Q9/uFzxdt7//vene1G7WjGMXyxbv3XlsWF0smtRq7LkqMQb394M4zc3N2+ZHXu3xTm/rBwyFb/HML7I9l2pl5Qldy2u45nJ8VZerHNBWbLTYp+G8QxKfJ4dn33+Ne4TZTujYxgPDFL2IjSGDOPrZxg/vF772teWK97WzW52s3Q/alMrhvGLZeu3rjw2jE52LWpVlhyVeOPbp2H8f82OvUSfLYdMxd83jC9ij3+V7b1CnytL7lpyrCrFtdjzHzTbQuzTMJ7Bic+120TfyD4PWxXr36JsZ1QM44FByl6ExpBhfP0M44fXE5/4xHLF23rmM5+Z7kdtasUwfrFs/daVx4bRya5FrcqSoxJvfHszjJ+J/X4xO/5uO+CAA36kHPL7xN83jC9in4+f33ettre3r1CW3W9xDa+eHatSx5ZlOy2uiWE8g7SxsXGN+Lz76vznYavi8/1pZSujYhgPDFL2IjSGDOPrZxg/vO52t7uVK97W2Wefne5HbWrFMH6xbP3WlceG0cmuRa3KkqMSb3z7Nox/dXb8JbpZOeT3ib9nGF9sbGwclu29Urcry+63uIYPS45TpX379v1kWbbT4poYxjNY8Tl3o+xzsVEfKtsYFcN4YJCyF6ExZBhfP8P44XWNa1yjXPH27n73u6d7Uv1aMYxfLFu/deWxYXSya1GrsuSoxBvfXg3j41j3nz/2MsV5P6kc8vvE3zeM3yHbe6VeWJbcb3ENz0iOU6PzypKdF9fEMJ5Bi8+7e2efjy2KtX+mbGM0DOOBQcpehMaQYXz9DOOH2Qc+8IFy1dt685vfnO5H9WvFMH6xbP3WlceG0cmuRa3KkqMSb3x7NYzf3Nzczo6/2+K831kO+X3i7xvG7xB7/cv5vddomSFMfNx35o9To9jb75clOy/2ahjP4MXn3qr+K6nd1osfV7VKhvHAIGUvQmPIML5+hvHD7OSTTy5Xvb2jjjoq3ZPq1oph/GLZ+q0rjw2jk12LWpUlRyXe+PZqGD+THX+ZyuG+T/w9w/gdYp+PyPZfo8lk8v+UZS/XxsbGlbNj1Ghzc/PXyrKdF/fLMJ7Bi8+9g7PPyQa9tGxhNAzjgUHKXoTGkGF8/Qzjh9mxxx5brnp7r3zlK9M9qW6tGMYvlq3fuvLYMDrZtahVWXJU4o1v74bxsee3Z2vstq2trauUQ15K/D3D+B1in1fL9l+jWOs2ZdnLtbm5+evZMWq0vb39o2XZzotraBjPKMTn4KvmPydrF5/zHy3Lj4ZhPDBI2YvQGDKMr59h/HC78MILy5Vv75a3vGW6J9WrFcP4xbL1W1ceG0Ynuxa1KkuOSrzx7eN3xj9h/vhL9sByyEuJv24YPyf2+935/dcorsnJZcnLFb//jfMfX6m/K0v2QlxDw3hGIT4Hbz3/OdmgL5XlR8MwHhik7EVoDBnG188wfrj95V/+Zbny7Z155pnpnlSvVgzjF8vWb115bBid7FrUqiw5KvHGt3fD+M3NzZtka+y2OPfXlENeSvw9w/g5sdc/y85h1cU6Z5clL1f8/gvnP75SzypL9kJcQ8N4RiE+B//b/Odki2LpH/jeDsbBMB4YpOxFaAwZxtfPMH64PfnJTy5Xfj0e9rCHpftSnVoxjF8sW7915bFhdLJrUauy5KjEG98+DuP/c7bGEp1fDnkp8dcN4+dMJpNmPxLmwAMP/L/KsgsdfPDBB2UfW6O4T7coy/ZC7NcwntGIz8HPZJ+bNdve3v6psvwoGMYDg5S9CI0hw/j6GcYPt9kfpLpOn//856dXvepV071p9bViGL9Ytn7rymPD6GTXolZlyVGJN769G8bPrGoAc+CBB/54OeS/i79uGD9nY2NjMzuHGm1ubh5Vll0oft/95z+uVrHcD31v1X6IzyvDeEYjPgffl31uVu4XyvKjYBgPDFL2IjSGDOPrZxg/7D7wgQ+Uq78e7nm7WjGMXyxbv3XlsWF0smtRq7LkqMQb314O4+OYL51fY8luVQ757+KvGcYnYr//kp3Hqot1nlGWXCh+36nzH1ej2MtHypK9EXs2jGc04vPwTfOfl7WLz/sbleVHwTAeGKTsRWgMGcbXzzB+2D3+8Y8vV399nv70p6d702prxTB+sWz91pXHhtHJrkWtypKjEm98ezmM39zcvHu2zm6L8z+pHPLfxV83jE/Enl83fw6V+lhZcqG4dl9PPm7lxTq/W5bsjdizYTyjEZ+DH8k+N2sWa/bqR1ftlWE8MEjZi9AYMoyvn2H8sDvssMPK1V+vBz7wgen+tLpaMYxfLFu/deWxYXSya1GrsuSoxBvfvv6Ymn3ZOkv0gXLIfxd/zTA+Efu9d3YeNYrlFv5omMlk8nPZx9Qo1rpBWbY34j4ZxjMa8Tn45exzs3JHluVHwTAeGKTsRWgMGcbXzzB++L3lLW8pd2B9vvnNb07vete7pvvTamrFMH6xbP3WlceG0cmuRa3KkqMSb3x7OYyfib1/O1trt5XD/bv4a4bxiclk8tPZedQo1rppWfb7xN+/1/zvr1VZslfi88ownlFY4R/mvati3WuVLYyCYTwwSNmL0BgyjK+fYfzw+43f+I1yB9bLQL5urRjGL5at37ry2DA62bWoVVlyVOKNb5+H8X+RrbXbJpPJNcshLxZ/zTB+gdj3l+bPo1JPLUt+n7hur05+f43eXZbslbg+hvGMwuwPe84+LxvkD3CtVLymGMYDbWQvQmPIML5+hvHj6IILLih3Yb0M5OvVimH8Ytn6rSuPDaOTXYtalSVHJd749nYYH8d99Pw6S/bQcsiLxf83jF8g9vyy7Fwq9MGy5PeJPXwl+f01emxZslfi+hjGj0Tcg1uX/zlKcf6v2vn52Kp9+/YdVLYwCobxwCBlL0JjyDC+fobx4+gFL3hBuQvd8JjHPCbdp5avFcP4xbL1W1ceG0Ynuxa1KkuOSrzx7fN3xl8vW2u3xXFOK4e8WPw1w/gFJpPJnbJzqVFZ8lLimv1M9ntr1NcfRRHXyDB+JMo9+Eb0sO3t7SuUvzwKW1tbPzH/+diqI4444ofLNkbBMB4YpOxFaAwZxtfPMH4cXec61yl3oTte9apXpXvVcrViGL9Ytn7rymPD6GTXolZlyVGJN769HcbPZGst0dfiOjwpfn1K9NTojPLXqxZr9m4Yf+CBB/54di6V+r4/JDGu2V2T31elsmTvxDUyjB+J5J68tI9/6PAy4lyfP3fuTYrP+bPLFkbDMB4YpOxFaAwZxtfPMH48nXLKKeVOdMeHPvSh6R3ucId0v9pdrRjGL5at37ry2DA62bWoVVlyVOKNb6+H8bH/T2br9aHYe++G8TOx77/PzqdCv1OW/Hex9suT37fyYp0zy5K9E3s3jB+ByWTyc9k9mRX35VPx6+9sbW1do/z2QYlzu/3O821ZXNtL/ZdUY2AYDwxS9iI0hgzj62cYP55ueMMbljvRPa94xSumhx56aLrvvnbMMcdMTz/99PTv1agVw/jFsvVbVx4bRie7FrUqS45KvPHt+3fGv2B+rb4U176Xw/jYe6vvSH1vWfLfxTX7YvL7avRbZcneiWtkGD8Ccf1vPn8/suIefTh+fczGxsaVy4f2WpzLodF5l5xf6+J6/m7ZymgYxgODlL0IjSHD+PoZxo+r17zmNeVudM9syPu4xz1uurW1le69D1372teePve5z52ef/755aymF/9LkOz3rrpWDOMXy9ZvXXlsGJ3sWtSqLDkq8ca318P4zc3NO2br9aG49n39zvjbZOdTo7Lkxfbt2/eT2e+pUZzj1cqyvRN7N4wfgbj+D52/H/vRJ+KenRSvmzcuh+mV2P/tYv9N/pm1qNnXV9nOaBjGA4OUvQiNIcP4+hnGj6ujjjqq3I3u+upXvzp9/vOfPz3yyCPTc+hiv/7rvz79y7/8y3IGl/awhz0s/ZhV14ph/GLZ+q0rjw2jk12LWpUlR6XVYKMst3Kx/2Z/oOeqi733chh/yCGH/MfsfCp1eFm26b94KUv20mxYmJ1TjWItw/g1iWv/B9k92UX/HMd4dfx6r62trZ8vh+2s2Odv7dj72oprdcWypdEwjAcGKXsRGkOG8fUzjB9fL3/5y8sd6b7Z58xsmH3Na14zPZd1NfuXGieeeOL0TW9608XD6csy+xE82TFWXSuG8Ytl67euPDaMTnYtalWWHJV449vrYfxMnMMF2ZpdL/bdy2H8TOz/E/PnU6O4Rr9dlpyt+eL5v1+p08uSvRTXzDB+BOLavzO7J8sWxzsnfn3p5ubm3eN/7yvLrN1sP7Gvv92513UV1+UjZVujYhgPDFL2IjSGDOPrZxg/vq5+9atPzzvvvHJX+uMd73jH9AlPeML0Nre5TXpeNZt9l/4jHvGI6Rve8IbpF7/4xbKj/fOxj30sPeaqa8UwfrFs/daVx4bRya5FrcqSoxJvfHs/jI/jnz6/Xh+Ka9/bYXzs/aTsnFZdrPOOsuTsPp87//drFGs+uCzZS7F/w/gRiOv/pfn7seJmP5f99Nk93tzcvGXL7wiPNa8ePSLWf++O/XShZ5ctjophPDBI2YvQGDKMr1/LYfzXv/716dlnn60Fve1tb0vvUY2OP/74clf66Rvf+Mb0Xe961/R5z3vexT+j/ba3ve308MMPT891f7vKVa4yveUtbzk97rjjpk9/+tOnp5122vQjH/nI9IILLiirLi9bb9W1Yhi/WLZ+68pjQ3PxxuiX1ll2LWqVrd+ycsmbinWH8J3xx2drdr3Yd2+H8ZPJ5KbZOdVoc3PzgNkfPpn9vRodfPDBB5XT7KX4vGo5jP+oLrMXlduyctn9aND5cU5vn51X/O+Hx6+3ia4W//u/lW3t2oEHHvjj8fGHx9f5/eJYz4n//ekoW3vtxf5uUbY9KobxwCBlL0JjyDC+fi2H8Vy2D37wg+k9qtWb3/zmsvJwXHTRRRd/5/qHP/zh6bvf/e7pX/zFX0z/5E/+ZPqqV71q+qIXvWh6yimnTE899dTpW97ylul73vOe6cc//vHpueeee/HPqa/p0EMPTe/BKmvFMH6xbP3WlceG5rK9qE6ba/hD9eKN7xCG8U3/pc2qin33dhg/k53TAPpGOb3eis+rZsN4XW6nlNuyUgcccMCPJGutuwujv4veFp+Dr49f/zB+fVE0G7A/NX59Rvn/r4n+PHpH9Nn4e9mxutjflcs/OobxwCBlL0JjyDC+fobx3dF6GH/Tm960rExt97jHPdJ7sMpaMYxfLFu/deWxoblsL6qTYfzysjW7Xlz7Xg/jY//vz86rz8U5vbacXm/FORjGd6cqw/iNjY1rJGupYvF1NdofyWQYDwxS9iI0hgzj62cY3x2th/Gzfu/3fq+sTk3Petaz0uu/yloxjF8sW7915bGhuWwvqpNh/PJijQ/Nr9n14tr3/TvjnzB/TgPonuX0esswvlNVGcZPJpM7JWupYvv27ev1j6/aC8N4YJCyF6ExZBhfP8P47ljHMH7WH/3RH5UdUMvb3/729NqvslYM4xfL1m9deWxoLtuL6mQYv7xY45nza3a9vg/jY//Xzc6rz8XX4AHl9HrLML5TVRnGx3F/Z24d1e0l5dKPkmE8MEjZi9AYMoyvn2F8d6xrGD/rHe94R9kFNcz+ENjsuq+yVgzjF8vWb115bGgu24vqZBi/vDiP22brdrnYc6+H8TPZefW4L5XT6jXD+E5VZRgf9/g1yVqqVFzvfeXSj5JhPDBI2YvQGDKMr59hfHescxh/rWtda/qZz3ym7IQaJpNJeu1XVSuG8Ytl67euPDY0l+1FdTKMX97W1tZPZOt2ubj2QxjGv23+vHpclcFpa/F5ZRjfnWp9Z/xfz62jej2hXPbRMowHBil7ERpDhvH1M4zvjnUO42f96q/+6vSb3/xm2Q2rdvTRR6fXfVW1Yhi/WLZ+68pjQ3PZXlQnw/i9iXP5crZ2VxvCMH52Dtm59bH4+rtjOa1ei3tiGN+dan1n/L8ka2nFxXX++3hd+M/lso+WYTwwSNmL0BgyjK+fYXx3rHsYP+u4444ru2HVTjzxxPSar6pWDOMXy9ZvXXlsaC7bi+pkGL83sc4fz6/b5eLa934Yv7W1dUh2bn1s9l9XlNPqtfi8MozvTrW+Mz5bSysu/pl8y3LJR80wHhik7EVoDBnG188wvju6MIyfdb/73a/siFU67bTT0uu9qloxjF8sW7915bGhuWwvqpNh/N7EuRyXrd3VhjCMn8nOrW/FvfhMOZ3ei3MxjO9OKx/Gx/39mWQdrbi4zr9bLvnoGcYDg5S9CI0hw/j6GcZ3R1eG8bPucY97+JE1K/bZz342vdarqhXD+MWy9VtXHhuay/aiOhnG702cy9Wytbta7HcQw/g4jzOy8+tZzy+n03txPwzju1ONYfyNknW0wuIav7NcboJhPDBI2YvQGDKMr59hfHd0aRg/6853vvP0ggsuKLtjFbLrvKpaMYxfLFu/deWxoblsL6qTYfzeZWt3tbj2Q/nO+IfMn1vfintxm3I6vRfnYhjfnVY+jI9jPmBuDa22T8Q/iw8ol5tgGA8MUvYiNIYM4+tnGN8dXRvGz5p9fnzlK18pO2SvbnrTm6bXeRW1Yhi/WLZ+68pjQ3PZXlQnw/i9i7XeM792VxvKMD7O4+Ds/PrUFa94xf9STqf3DOM7VY3vjH96so5W02cnoVxqCsN4YJCyF6ExZBhfP8P47ujiMH7Wda973elb3/rWskv24vjjj0+v8SpqxTB+sWz91pXHhuayvahOhvF7F9fwKdn6XSyu/SCG8TNxPt+YP78e9YlyGoNgGN+panxn/Olza2gFxdfNlzc2Nq5RLjM7GMYDg5S9CI0hw/j6GcZ3R1eH8Zd00kknlZ2yrJe//OXptV1FrRjGL5at37ry2NBcthfVyTB+7+J8bpGt38Vir0Maxp86f359Ke7D08tpDEKcj2F8d6rxnfFnJ+tob31sMplctVxi5hjGA4OUvQiNIcP4+hnGd0fXh/Gz7nKXu0zPOeecsmN260Mf+lB6XVdRK4bxi2Xrt648NjSX7UV1Mozfu+3t7R/N1u9ice0HM4yPc7lPdo496WblNAYh7oVhfHeq8Z3x351bQ3vrzVtbWz9RLi8Jw3hgkLIXoTFkGF8/w/ju6MMwftbVrna16ete97qya3Yru6arqBXD+MWy9VtXHhuay/aiOhnGr0as9/n59bvYkIbxBx988IHZOfahcgqDYRjfqVY6jD/iiCN+OFlDy/eScmm5DIbxwCBlL0JjyDC+fobx3dGXYfwl3elOd5q+613vKrtnf1372tdOr+dea8UwfrFs/daVx4bmsr2oTobxqxHrvXJ+/S42pGH8TJzPP2bn2fE+ULY/GJPJ5E7JeWo9rXQYv7GxceVkDe2+8+Kft3csl5XLYRgPDFL2IjSGDOPrZxjfHX0bxl/S7A8l/exnP1vOgstz3/veN72Oe60Vw/jFsvVbVx4bmsv2ojoZxq9GnFMvfmTKAIfxr8jOs+M9sWx/MOKc7jx3jlpfKx3Gx/FuPXd87b5T/Fia3TGMBwYpexEaQ4bx9TOM746+DuMv6elPf/r0n//5n8vZsMjJJ5+cXr+91oph/GLZ+q0rjw3NZXtRnQzjV2MSsj10raEN4+OcejcEjntwvbL9wYhzukt2rlpLKx3Gx0vbT8cxnxh9bsca2r/Oiq+NW5RLyS4YxgODlL0IjSHD+Podc8wx5Qqwbn0fxs86+OCDp4961KMu/oNKubRzzz334kH8zW9+8/Ta7bVWDOMXy9ZvXXlsaC7bi+pkGL862R66Vlz7QQ3j4/P3v2fn2eXK1gclPq/ulp2r1tLK/wDXS0wmkxvE8Z8f97uPPx6qWXF93hfX6uhy2ViCYTwwSNmL0BgyjK/fHe5wh3IFWLchDON3NvuZ8qeeemo5u3E6++yzp0972tOmN73pTdNrtMpaMYxfLFu/deWxoblsL6qTYfzqxJpnze+ha8W1H9QwfibO67Pz59nV4vq/o2x7UCaTyT2y89VaqjaM3ynWOTI+n0+K/mZu/TF3evwz9VfLJWIPDOOBQcpehMaQYXz9ZgNTumFow/hLOuyww6ZPetKTpu9+97vLmQ7bxz72selJJ51U7TvgF9WKYfxi2fqtK48NzWV7UZ0M41cnzuvEbB9dKvY4xGH8C+fPs6tNJpNHlW0PSpzbvebPVWuryTB+p42NjWvEa8v/irXfEr9+e24/gy7Od/ZfCTwlfj24XA5WwDAeGKTsRWgMGcbX79hjjy1XgHUb6jB+Z7PB/CMe8Yjpm9/85um3v/3tcub9ds4550xf97rXTR/5yEc2H8DvrBXD+MWy9VtXHhuay/aiOhnGr06secP5PXStuPaDG8bHOd02O9eOdmjZ9qDEPejFH2A8kpoP43c64ogjfjj2MHstfHx8Xrw9+uaOvQ2lc+O8To5fb15OmxUzjAcGKXsRGkOG8fW7y13uUq5Afd/97ncvjtwYhvE7u/KVrzx90IMeNH3JS14y/au/+qvpN77xjXIluu0jH/nI9KUvfen0uOOOmx5++OHpua2jVgzjF8vWb115bGgu20vjvtuwbP1mGcavThlCpXvZj5p8XsS1H9wwvuXQZq+VLQ9OfF7dNzvfSlX9GhlAax3GZ+KfM/8z9nXPMsB+d/RvZa+9KPb9T9GfR4+L/3+dclpUZBgPDFL2IiRJQ+sWt7jF9Ld+67emp5xyyvT973//9Otf/3oZc7b1rW99a/rpT396+ta3vvXiwfuJJ544vcc97jG9+tWvnu5b6krlsQEAYGUOOuigfZPJ5Kbx64PjeePZ8esZ8evfxq9r/U76WP8z8eub49fnxq/33NraukrZMgDszc5/4EjSmDrkkEMuHtLf8573nP6v//W/ps9+9rOnr33ta6dvf/vbL/4u9dkfkvqZz3xm+oUvfGH6la98ZXrBBRdcPEy/xHe+852Lh/rnnXfexT9S5uMf//j0fe973/Sss86a/vmf//nFf8jsC1/4wumjHvWoi/9Lketf//rpPqQ+VB4bAACa2NrauuJBBx30i7M/DDWeRX4j/vfvxq/Pj14V/Wn8/3dEH40+E30h+kr0L/H3vhPtfI6ZfQf+P0dfimY/WuZvorfH/35d/Dobtj92MpncL3691cbGxpW3t7f/U9kCAKxe/ANn5z+kJEmXU7wxmF71qldN/5401MpjAwBA581+XNjm5uZ/Lv8XALoje8MtSZK0s/LYAAAAACwre8MtSZK0s/LYAAAAACwre8MtSZK0s/LYAAAAACwre8MtSZK0s/LYAAAAACwre8MtSZK0s/LYAAAAACwre8MtSZK0s/LYAAAAACwre8MtSZK0s/LYAAAAACwre8MtSZK0s/LYAAAAACwre8MtSZK0s/LYAAAAACwre8MtSZK0s/LYAAAAACwre8MtSZK0s/LYAAAAACwre8MtSZK0s/LYAAAAACwre8MtSZK0s/LYAAAAACwre8MtSZK0s/LYAAAAACwre8MtSZK0s/LYAAAAACwre8MtSZK0s/LYAAAAACwre8MtSZK0s/LYAAAAACwre8MtSZK0s/LYAAAAACwre8MtSZK0s/LYAAAAACwre8MtSZK0s/LYAAAAACwre8MtSZK0s/LYAAAAACwre8MtSZK0s/LYAAAAACwre8MtSZK0s/LYAAAAACwre8MtSZK0s/LYAAAAACwre8MtSZK0s/LYAAAAACwre8MtSZK0s/LYAAAAACwre8MtSZK0s/LYAAAAACwre8MtSZK0s/LYAAAAACwre8MtSZK0s/LYAAAAACwre8MtSZK0s/LYAAAAACwre8MtSZK0s/LYAAAAACwre8MtSZK0s/LYAAAAACwre8MtSZK0s/LYAAAAACwre8MtSZK0s/LYAAAAACwre8MtSZK0s/LYAAAAACwre8MtSZK0s/LYAAAAACwre8MtSZK0s/LYAAAAACwre8MtSZK0s/LYAAAAACwre8MtSZK0s/LYAAAAACwre8MtSZK0s/LYAAAAACwre8MtSZK0s/LYAAAAACwre8MtSZK0s/LYAAAAACwre8MtSZK0s/LYAAAAACwre8MtSZK0s/LYAAAAACwre8MtSZK0s/LYAAAAACwre8MtSZK0s/LY0MRBBx3025IkSZLW3/b29hXKYzqwCtkbbkmSpJ2Vx4bqZg/82fqSJEmS1tIzy6M6sArJF5kkSdKlKo8N1RnGS5IkSZ3KMB5WKfkikyRJulTlsaE6w3hJkiSpUxnGwyolX2SSJEmXqjw2VGcYL0mSJHUqw3hYpeSLTJIk6VKVx4bqDOMlSZKkTmUYD6uUfJFJkiRdqvLYUJ1hvCRJktSpDONhlZIvMkmSpEtVHhuqM4yXJEmSOpVhPKxS8kUmSZJ0qcpjQ3WG8ZIkSVKnMoyHVUq+yCRJki5VeWyozjBekiRJ6lSG8bBKyReZJEnSpSqPDdUZxkuSJEmdyjAeVin5IpMkSbpU5bGhOsN4SZIkqVMZxgMAwFDNBvKSJEmS1t/29vYVymM6AAAAAAAAAAAAAAAAAAAAAAAAAAAAAAAAAAAAAAAAAAAAAAAAAAAAAAAAAAAAAAAAAAAAAAAAAAAAAAAAAAAAAAAAAAAAAAAAAAAAAAAAAAAAAAAAAAAAAAAAAAAAAAAAAAAAAAAAAAAAAAAAAAAAAAAAAAAAAAAAAAAAAAAAAAAAAAAAAAAAAAAAAAAAAAAAAAAAAAAAAAAAAAAAAAAAAAAAAAAAAAAAAAAAAAAAAAAAAAAAAAAAAAAAAAAAAAAAAAAAAAAAAAAAAAAAAAAAAAAAAAAAAAAAAAAAAAAAAAAAAAAAAAAAAAAAAAAAAAAAAAAAAAAAAAAAAAAAAAAAAAAAAAAAAAAAAAAAAAAAAAAAAAAAAAAAAAAAAAAAAAAAAAAAAAAAAAAAAAAAAAAAAAAAAAAAAAAAAAAAAAAAAAAAAAAAAAAAAAAAAAAAAAAAAAAAAAAAAAAAAAAAAAAAAAAAAAAAAAAAAAAAAAAAAAAAAAAAAAAAAAAAAAAAAAAAAAAAAAAAAAAAAAAAAAAAAAAAAAAAAAAAAAAAAAAAAAAAAAAAAAAAAAAAAAAAAAAAAAAAAAAAAAAAAAAAAAAAAAAAAAAAAAAAAAAAAAAAAAAAAAAAAAAAAAAAAAAAAAAAAAAAAAAAAAAAAAAAAAAAAAAAAAAAAAAAAAAAAAAAAAAAAAAAAAAAAAAAAAAAAAAAAAAAAAAAAAAAAAAAAAAAAAAAAAAAAAAAAAAAAAAAAAAAAAAAAAAAAAAAAAAAAAAAAAAAAAAAAAAAAAAAAAAAAAAAAAAAAAAAAAAAAAAAAAAAAAAAAAAAAAAAAAAAAAAAAAAAAAAAAAAAAAAAAAAAAAAAAAAAAAAAAAAAAAAAAAAAAAAAAAAAAAAAAAAAAADAOPyH//D/Ayr4xHLC2HTvAAAAAElFTkSuQmCC;" parent="1" vertex="1">
          <mxGeometry x="1330" y="20" width="297" height="86.52" as="geometry" />
        </mxCell>
        <mxCell id="iLkB3V-Q7PKIjUPxOMpI-3" value="Mapeamento de Histórias" style="swimlane;horizontal=0;whiteSpace=wrap;html=1;fontSize=20;startSize=40;" parent="1" vertex="1">
          <mxGeometry x="47" y="150" width="1560" height="2080" as="geometry" />
        </mxCell>
        <mxCell id="MgNV9w2ZGS1zsMaX520--3" value="Personas" style="swimlane;horizontal=0;whiteSpace=wrap;html=1;fontSize=21;" parent="iLkB3V-Q7PKIjUPxOMpI-3" vertex="1">
          <mxGeometry x="40" width="1520" height="250" as="geometry" />
        </mxCell>
        <mxCell id="MgNV9w2ZGS1zsMaX520--4" value="&lt;font style=&quot;font-size: 28px;&quot;&gt;Usuário&lt;/font&gt;" style="swimlane;fontStyle=0;childLayout=stackLayout;horizontal=1;startSize=60;fillColor=#f5f5f5;horizontalStack=0;resizeParent=1;resizeParentMax=0;resizeLast=0;collapsible=1;marginBottom=0;whiteSpace=wrap;html=1;fontColor=#333333;strokeColor=#666666;rounded=1;" parent="MgNV9w2ZGS1zsMaX520--3" vertex="1">
          <mxGeometry x="80" y="20" width="370" height="190" as="geometry" />
        </mxCell>
        <mxCell id="MgNV9w2ZGS1zsMaX520--5" value="&lt;font style=&quot;font-size: 23px;&quot;&gt;Utiliza a plataforma, acessando sua conta, cadastrando e consultando suas movimentações de cotas&lt;/font&gt;" style="text;strokeColor=none;fillColor=none;align=left;verticalAlign=top;spacingLeft=4;spacingRight=4;overflow=hidden;rotatable=0;points=[[0,0.5],[1,0.5]];portConstraint=eastwest;whiteSpace=wrap;html=1;" parent="MgNV9w2ZGS1zsMaX520--4" vertex="1">
          <mxGeometry y="60" width="370" height="130" as="geometry" />
        </mxCell>
        <mxCell id="MgNV9w2ZGS1zsMaX520--6" value="" style="shape=image;verticalLabelPosition=bottom;labelBackgroundColor=default;verticalAlign=top;aspect=fixed;imageAspect=0;image=data:image/png,iVBORw0KGgoAAAANSUhEUgAAAgAAAAIACAYAAAD0eNT6AAAABHNCSVQICAgIfAhkiAAAAAlwSFlzAAAPYQAAD2EBqD+naQAAABl0RVh0U29mdHdhcmUAd3d3Lmlua3NjYXBlLm9yZ5vuPBoAACAASURBVHic7d13tG1Vfff/95depSNBQALSRUQQFcSCoogNiWJDRBSfQCxRwZbn9zPGmBh77I9JVDA8FixRsSEWQMGGoIh0pKiACFIvXLiX7/PH2pd7vJx7OOeevfd3rb3erzH2OGgc2R8dY6352XPONVdkJpK6KSJWBbYFHgRsAKw7xw/ALVM+ty7zr6f73ARcClycmQtH/d9R0miEBUBqv4jYGNgB2HGZv9sAqxTFuhu4HLgAuHDq38y8tiiTpFmyAEgtEhEbAfvQDPBTB/sNK3OtgBtZphQAZ1gMpPawAEiFIuJ+wGOA/QafhwBRGmq0zgO+N/j8IDNvLM4j9ZYFQBqjiFiT5hf+kgF/T2Dl0lB17gbOZmkhOD0zb6uNJPWHBUAaocEmvb1YOuA/Cli9NFR73QX8lKYMfBf4sZsMpdGxAEgjEBF7A4cBzwXWL47TVbcAXwCOB05Nb1bSUFkApCGJiK2BFw0+25WGmTyXA58GPp2ZFxdnkSaCBUCah4hYF3g28GKazXyTvIGvLc6gmRX4nJsIpRVnAZDmKCJWAp5AM+g/C1irNlFvLQS+ChwHfDszFxXnkTrFAiDNUkRsBryKZm3/AcVx9JeuBU4A3p+ZV1WHkbrAAiDdh4h4IPB64AhgjeI4mtldNMsD78jMS6rDSG1mAZCWIyK2B94IHAqsWhxHc7MY+DzwL5n56+owUhtZAKRlRMRDgDcDzwFWKo6j+UmafQJvz8yfVYeR2sQCIA1ExCOAfwCehrv5J9HJNEXgtOogUhtYANR7EfE4moH/icVRNB4/pCkC36oOIlWyAKi3Bmv8H8aBv69+BByVmedWB5EquL6p3omINSLin4Bf4eDfZ/sAv4iI90TEOtVhpHFzBkC9EhFPAT4EbFOdRa3ye+A1mXlidRBpXCwA6oWI2AL4d+Dg6ixqtZOBv/MMAfWBSwCaaBGxSkQcA5yPg7/u25OAX0fEWyPCQ5800ZwB0MSKiEcDHwUeXJ1FnXQp8MrM/GZ1EGkUnAHQxImIDSPiE8BpOPhrxW0LfCMivhgRvvtBE8cZAE2UiNgH+AywZXUWTZQ/AYc5G6BJ4gyAJkI03gD8AAd/Dd/GwNcj4h0RsUp1GGkYnAFQ50XExsCngQOqs6gXfgQ8LzN/Vx1Emg9nANRpEbEvcA4O/hqffYBzIuLA6iDSfFgA1EmDKf83A98H3KClcdsIOCki/s0lAXWVSwDqnIjYlGbK/0nVWSSaJYHnZ+ZV1UGkuXAGQJ0yeHPfOTj4qz32Ac6OiKdWB5HmwgKgzoiI1wOnAH9VnUVaxkbA1yLin6uDSLPlEoBaLyICeD/wquos0ix8CjgyMxdVB5FmYgFQq0XEasBxwPOqs0hzcBJwSGbeXh1EWh4LgFpr8I72LwNPrM4irYAzgKdn5g3VQaTpWADUShGxCfBNYI/qLNI8/AZ4socGqY3cBKjWiYi/pnm0ysFfXbczcEZE7FQdRFqWBUCtEhG70Qz+21VnkYZkS+CHEfHI6iDSVBYAtUZEPBY4FR/z0+TZEPiuxwerTSwAaoWIOBj4NrBedRZpRNYCvhIRh1UHkcBNgGqBiDgI+AKwcnUWaQwSODwzj68Oon6zAKjU4G1+JwNrVGeRxmgR8IzM/GZ1EPWXBUBlImJX4DRg/eosUoEFwBMy88fVQdRPFgCViIitaXb7b16bRCp1PbBvZp5fHUT9YwHQ2EXExjSD//bVWaQWuArY28OCNG4+BaCxGhzv+w0c/KUltgS+FREbVAdRv1gANDYRsSrwReDh1VmkltkFOCki1qwOov6wAGgsBq/0/RTwpOIoUlvtDXw+IlapDqJ+sABoXN4LvKA6hNRyTwM+Xh1C/WAB0MhFxGuBv6/OIXXESyLin6pDaPL5FIBGKiL2AX4AOK0pzV4CT/WgII2SBUAjExEbAecAW1RnkTroT8BDM/P31UE0mVwC0EgMNv0dj4O/tKI2Bj7rpkCNigVAo/J6wFefSvPzaOBt1SE0mVwC0NC57i8NVQIHZua3qoNoslgANFSu+0sj4X4ADZ1LABoa1/2lkdkY+ExErFwdRJPDAqBhOhbX/aVR2Rf3A2iIXALQUETE3sCpuO4vjVICT8nMb1cHUfdZADRvg7eY/ZLmrWaSRus6YLfMvLo6iLrNJQANwztw8JfGZRPg/dUh1H3OAGheIuIRwJlAVGeReubJmXlydQh1lwVAK2ywI/lnwO7VWaQeuhjYNTMXVgdRN7kEoPn4Oxz8pSrbAW+oDqHucgZAKyQiNgMuBO5XnUXqsTuAXTLzsuog6h5nALSi3ouDv1RtDeBD1SHUTc4AaM4iYj/gu9U5JN3jbzLzS9Uh1C0WAM1JRKwG/ArYoTqLpHtcBeyUmbdVB1F3uASguToGB3+pbbYE3lIdQt3iDIBmLSK2Bn4DrFmbRNI0FtG8MfC86iDqBmcANBf/joO/1FarAB+uDqHucAZAsxIRe9Ic+iOp3fbPzFOqQ6j9nAHQbP1DdQBJs/K/qwOoG5wB0H2KiF2Ac/G8f6kr9s3MH1aHULs5A6DZeDMO/lKXOAug++QMgGYUEQ8CLgBWrs4iaU4enpk/rw6h9nIGQPflDTj4S13kvh3NyBkALVdEbAlcCqxanUXSnCWwW2aeWx1E7eQMgGZyLA7+UlcFzf4daVrOAGhaEbEpcDke/CN12d007wi4qDqI2scZAC3Pa3Hwl7puJeBN1SHUTs4A6F4iYgPgCmDd6iyS5m0RsF1mXl4dRO3iDICm879w8JcmxSrA31eHUPs4A6B7iYjzgR2rc0gamuuAzTNzUXUQtYczAPoLEbEXDv7SpNkEeEp1CLWLBUDLenF1AEkjcVh1ALWLSwC6R0SsBlwNbFidRdLQLQQ2y8wbq4OoHZwB0FRPw8FfmlSrA4dUh1B7WAA0lVOE0mTzGtc9XAIQABGxMfAHPPpXmnQPysxLq0OonjMAWuL5OPhLffCi6gBqB2cABEBE/BzYozqHpJG7LDO3rQ6hes4AiIjYBQd/qS+2iYhHV4dQPQuAwI1BUt94zcslAEFEXAVsUZ1D0tjcCGzi0cD95gxAz0XEzjj4S32zPrBXdQjVsgBov+oAkkp47fecBUDeBKR+8trvOfcA9FhErETzmlCP/5X65w5gg8y8ozqIajgD0G8PxcFf6qs1gL2rQ6iOBaDfnAKU+s17QI9ZAPrNi1/qN+8BPeYegJ6KiFWAPwPrVGeRVGYRzT6AW6uDaPycAeivvXDwl/puFeAx1SFUwwLQX079SQLvBb1lAegvL3pJ4L2gt9wD0EMRsQbNWeCrV2eRVO5umvcC3FAdROPlDEA/PQwHf0mNlYBHVofQ+FkA+mnH6gCSWsV7Qg9ZAPrJi13SVN4TesgC0E87VAeQ1CreE3rIAtBPtn1JU3lP6CGfAuiZiFgVWEBzAIgkLbFBZt5YHULj4wxA/2yLg7+ke3MWoGcsAP3jWp+k6Xhv6BkLQP/Y8iVNx3tDz1gA+seWL2k63ht6xgLQP7Z8SdPx3tAzPgXQMxFxPbBhdQ5JrXMnsFZmLq4OovFwBqBHImITHPwlTW81YJvqEBofC0C/eHFLmon3iB6xAPTLetUBJLWa94gesQD0y7rVASS1mveIHrEA9IsXt6SZeI/oEQtAv3hxS5qJ94gesQD0ixe3pJl4j+gRC0C/eHFLmon3iB6xAPSLF7ekmXiP6BELQL94cUuaifeIHrEA9IsXt6SZeI/oEQtAv3hxS5qJ94gesQD0ixe3pJl4j+gRC0C/eHFLmon3iB6xAPSLF7ekmXiP6BELQL/cXR1AUqt5j+gRC0C/3FIdQFKreY/oEQtAv3hxS5qJ94gesQD0ixe3pJl4j+gRC0C/eHFLmon3iB6xAPSLF7ekmXiP6BELQL94cUuaifeIHrEA9IsXt6SZeI/oEQtAv3hxS5qJ94gesQD0ixe3pJl4j+gRC0C/eHFLmon3iB6xAPSLF7ekmXiP6BELQL94cUuaifeIHrEA9MufqwNIajXvET1iAeiXS6oDSGo17xE9EplZnUFjFBFXA5tV55DUOrcDa6eDQm84A9A/F1YHkNRKFzn494sFoH8sAJKm472hZywA/XNBdQBJreS9oWcsAP1jy5c0He8NPWMB6B9bvqTpeG/oGZ8C6JmIWAlYAKxenUVSq6ybmbdWh9D4OAPQM5l5N3BxdQ5JrfI7B//+sQD0k2t9kqbyntBDFoB+8mKXNJX3hB6yAPSTm30kTeU9oYcsAP10fnUASa3iPaGHfAqghyJiFZq3fq1TnUVSuUXABm4C7B9nAHooMxcBp1fnkNQKP3Pw7ycLQH99rzqApFbwXtBTFoD+8qKXBN4Less9AD01OBHwOmDD6iySytxBs/5/R3UQjZ8zAD01OBHw1Oockkqd6eDfXxaAfnPqT+o37wE9ZgHot+9WB5BUyntAj7kHoOci4mpgs+ocksbuVpr1/0XVQVTDGQA5BSj102kO/v1mAZAFQOonr/2eswDIm4DUT177PeceABERFwHbVeeQNDbXApsPHgdWTzkDIIBPVweQNFb/18FfzgCIiNgauAyI2iSSxmT3zDynOoRqOQMgMvNy4LTqHJLG4lwHf4EFQEsdXx1A0lh4rQtwCUADEbEucA2wVnUWSSOzGNgqM/9QHUT1nAEQAJl5C/A/1TkkjdR3Hfy1hAVAUx1XHUDSSDn9r3u4BKB7RMRKwFXA5tVZJA3dLcBmmbmgOojawRkA3WPwXPB/V+eQNBJfdPDXVBYALcspQmkyeW3rL7gEoHuJiJ8De1TnkDQ0VwJbpzd8TeEMgKbzyeoAkobqOAd/LcsZAN1LRKwFXA5sUhxF0vwtoPn1f111ELWLMwC6l8FGofdV55A0FB938Nd0nAHQtCLifsAVwPrVWSStsIXAtpn5++ogah9nADStzLwZ+GB1Dknz8ikHfy2PMwBarojYiGYWYO3qLJLmbBGw3eBtn9K9OAOg5crM64GPVeeQtEJOcPDXTJwB0Iwi4q+A3wKrV2eRNGt3Aztn5oXVQdRezgBoRpl5NfCJ6hyS5uREB3/dF2cAdJ8i4oHAJcAq1Vkk3acEHpqZv6oOonZzBkD3KTOvwJcESV3xNQd/zYYzAJqViNgB+A2WRqnt9srMn1WHUPt5M9esDNYTj6vOIWlGX3bw12w5A6BZi4iNgQuBDauzSLqX24CdMvOq6iDqBmcANGuZ+SfgTdU5JE3rnxz8NRfOAGhOIiKAM4BHVmeRdI/zgN0z867qIOoOZwA0J4N3ih8FLK7OIukeRzn4a64sAJqzzDwH+FB1DkkAHJeZp1eHUPe4BKAVEhHrAhcAm1dnkXrsz8AOmXlddRB1jzMAWiGZeQvw2uocUs+9ycFfK8oZAM1LRJwM7F+dQ+qhnwB7Z+bd1UHUTRYAzUtEbAeci28LlMZpMfDwzDy7Ooi6yyUAzUtmXgz8W3UOqWc+7OCv+XIGQPMWEavTTEfuVp1F6oGLgT0G+3CkFeYMgOYtMxcChwDekKTRWggc4uCvYbAAaCgy8yLgf1XnkCbcawbncEjz5hKAhioiPg4cWZ1DmkAnZuYh1SE0OSwAGqqIWJNmP8Cu1VmkCXIp8LDMvLk6iCaHSwAaqsy8nWY/wG3VWaQJcSfwXAd/DZsFQEOXmRcAf1udQ5oQr8vMs6pDaPK4BKCRiYj/Ao6oziF12Jcy82+qQ2gyWQA0MhGxFvBTYJfqLFIH/RbYPTNvqg6iyeQSgEYmMxfQ7AdYUJ1F6pgl6/4O/hoZC4BGKjN/A7wMcKpJmr1XZ+bPqkNoslkANHKZ+RngmOocUke8LTM/Vh1Ck889ABqbiHgncGx1DqnFPp6ZnqipsbAAaGwiIoBPAi+uziK10JeB52Tm4uog6gcLgMYqIlYBvgIcWJ1FapHTgCdn5h3VQdQfFgCN3eDxwFOAR1VnkVrgV8Bj3PGvcbMAqEREbAj8ENipOotU6HJg78y8ujqI+senAFQiM28Angz8rjqLVOQ64EkO/qpiAVCZzLyKpgTcUJ1FGrNbgQMz8+LqIOovC4BKDQ4KehqeFqj+uBM4ODN/Xh1E/WYBULnMPBN4Is4EaPLdAjw1M79THURyE6BaIyJ2Ar4NbFmdRRqBP9JM+/tqX7WCBUCtEhFb0JSAnauzSEP0W5oNf5dUB5GWcAlArZKZvwP2Bc6sziINyS9pHvVz8FerWADUOoNHBJ8IfL06izRPP6A55Oea6iDSsiwAaqXMXAAcBBxXnUVaQV8EDsjMm6uDSNOxAKi1MnNRZh4OvLM6izRHHwMOycyF1UGk5bEAqPUy8w3AawF3rKoL3pqZR2Xm3dVBpJn4FIA6IyKeB/wnsHZ1FmkaC4FXZOZ/VgeRZsMCoE6JiB2BE4EHV2eRpriEZsr/7Oog0my5BKBOycwLgL1oZgKkNvg8sIeDv7rGAqDOyczbM/NI4FCal6pIFRYCR2fmc93pry5yCUCdFhHb0/wC2606i3rlEuA5mXlOdRBpRTkDoE7LzIuARwL/pzqLeuNzwMMc/NV1zgBoYkTEc4H/ANatzqKJdAfwmsz8WHUQaRgsAJooEfEgmiWB3auzaKJcTLPL31/9mhguAWiiDF648ijgLTS/2KT5WAS8F6f8NYGcAdDEiohtgQ8BB1RnUSf9CDgqM8+tDiKNgjMAmliZeWlmPgV4DvD76jzqjD8BRwD7OvhrklkANPEy8wvAjjRTuYuK46i9Evg4sENmfjKdHtWEcwlAvRIRDwE+CuxdnUWtcjbNdP9PqoNI4+IMgHolM38FPBp4KXB9cRzVuxl4FfBwB3/1jTMA6q2I2Ah4B/ASYOXiOBqvBP4vcExmXlMdRqpgAVDvDZ4WeCNwGLBacRyN1mLgM8C/ZuZvqsNIlSwA0kBEbAG8HngZsGZxHA3XncCngH/LzMuKs0itYAGQlhERmwKvBY7GY4W7bgHN8dDvykwfBZWmsABIyxERGwCvBF4NbFgcR3NzM/Bh4H2ZeV11GKmNLADSfYiIdYCjaGYFNiuOo5ldD7wf+FBm3lgdRmozC4A0SxGxBs1GwZfQvIJY7fELmjX+T2TmbcVZpE6wAEgrICK2pykDLwK2Ko7TV38ATgCOy8zzqsNIXWMBkOYhIgJ4HE0ZeDawTmmgyXc78GXgeOCUzFxcnEfqLAuANCQRsTZwME0Z2A9P2hyWBE4HjgO+kJk3F+eRJoIFQBqBwZkChw4+uxTH6aqLaKb4P52Zv60OI00aC4A0YoMy8HiaWYH9cM/A8vwB+D7wPeC7mXlFcR5polkApDGLiAextAw8Hti0NlGZ64Ef0Az438vMC2rjSP1iAZCKRcSDWVoIHgusX5toZG4BTmMw4AO/TG9AUhkLgNQiEbES8GBgx8Fnh8Hf7enOEwYLaNbvLwQumPL33MxcVBlM0lIWAKkjIuIB/GUpWPJ3SyAKIv2eew/yFwJX+steaj8LgNRxEbEWsA2wAc3Li+bygWZqfsnn1mX+9XSfm4BLM/PW0f+3kzQqFgBJknrIg0okSeohC4AkST1kAZAkqYcsAJIk9ZAFQJKkHrIASJLUQxYASZJ6yAIgSVIPrVIdQP0QEWvTnHG/ObDxlM+dwCXAxYO/V3uMrCZZRKxGc3Ljg2he/LRw8LmD5qTF8zLz5rqE6gtPAtTQRcTGwO7LfLZjdjNONwBfAP4b+KFlQF0XERsBzwQOAnYFtmLmayGBy4Czp34y85oRR1XPWAA0LxGxNUsH+YcO/m4xpP/3VwDHA+/2F5G6JCJWAQ4Dng88juHMtl7DMqUAuMySrBVlAdCsRMTKNG+em/qr/qE0L6AZtWuAYzLzhDF8lzQvEbE/8H5g5zF83c3AOYPPklLwm8y8awzfrY6zAGi5BlP5TwOeATwJWLs2EacCR2fmb4pzSPcSEdsC76W5XirdDpwCfBX4WmZeW5xHLWUB0F+IiO1pbmDPBPamfU+K3Am8BXhXZi6uDiNFRACvAN4BrFUcZ1l3Az8BvgJ8JTMvKM6jFrEA9FxErAQ8kmbAfwbNNH8X/AQ43BuaKg32wHwCeHxtklm7iEEZAM7MzLuL86iQBaCHImItYH+aQf9pwCa1iVbYHcD/Bt7njUzjFhEvB94DrFOdZQVdB5xEUwa+k5kLivNozCwAPRER9weeTvMr/4nAmrWJhupHwEsy8+LqIJp8EbEF8J/Ak6uzDNHtwHdoysBJmfnH4jwaAwvABBvs3H868EqaKcqoTTRSC4A3AR/0sSiNSkS8GPh3YL3qLCN0N80mwg8C33B2bXJZACZQRGwIvAw4GnhgcZxxO5VmNuC31UE0OSJiM+DjNIW6Ty4FPgx8IjNvqg6j4bIATJCI2I3m1/4LmKwp/rm6DfhX4D2ZeUd1GHXX4ECfo4F/ZDxnXrTVbTSHcn0wM8+vDqPhsAB03OAGdRDNwP+Y4jhtcyXwhsz8bHUQdU9EPA14N7BDdZaWOQX4APB1lwe6zQLQURGxCXAkcBTDO3p3Up0BvCYzf1odRO0XEQ+mOdBn/+osLXcZS5cHbqwOo7mzAHRMROxB82v/ecDqxXG6JIETgDdl5u+qw6h9BqX6bTT7Z1YujtMltwGfplke8JTODrEAdMBgmv/ZNAP/3sVxum4B8E6akwR97llExOrAq2jOlLhfcZyu+y7N8sBJLg+0nwWg5SLimTQD1vbVWSbM72hu+Cdk5qLqMBq/wSmYzwH+BdimOM6kORt4XWZ+vzqIls8C0FKDqf73AI+tzjLhrqBZ7/2vzLytOoxGb/CL/8XAMcB2xXEm3deAYzPzwuogujcLQMtExJY0v0heyGQf3NM219NsaPpgZv6pOoyGLyLWo9k0+2pgs+I4fbII+BjwVq+tdrEAtERE3A94I/AaYI3iOH12O83LXd7jYUKTISI2B/4e+Ftg3eI4fXYT8HbgA5m5sDqMLADlBhv8jqQ5aGTT2jSaYjFwIvDOzDy7OozmLiJ2BI4FDgVWK46jpX5L8zTO56qD9J0FoNDgoJF3AjtVZ9GMTgH+C/gfTxZst4hYFTgQOILm2F6X0drrx8BrM/PM6iB9ZQEoEBG705wwtl91Fs3JTTSzAsdl5g+rw2ipiNiTZmPf84CNi+Nobj4PvNElt/GzAIxRRDyAZg3sRcBKxXE0P5fRnI1+vDeuGoPX8h4KHIazaF23kObtg//sS4fGxwIwBoPnjY8F3kK/X9IziRL4IXAccGJm3lycZ6JFxNrAwTSD/n5YpCfN9cCrM/OE6iB9YAEYsYjYiuaXos/zT77bgZOBbwHfyszLa+NMhsEv/QMGnycD69Qm0hh8BjjadwyMlgVghCLiBcBHgPWqs6jEhcC3aQrBDzLz9uI8nTA4qGdflg76u9QmUpErgcMy89TqIJPKAjACEbE+zcD//Oosao07gNNYOjvgO9WniIjtWDrgPw5YqzSQ2uJu4F3A/5eZd1WHmTQWgCGLiMfRTPlvWRxF7XYVzWNQZw0+v8jMG2ojjcegIO8O7AE8DHgk8NelodR2ZwMvyMwLqoNMEgvAkETEajSvEj0GNyZpxVzOoAywtBRcV5poniJiQ5pBfo8pf7fB5/M1d7cDx2TmR6qDTAoLwBBExM4075p/aHUWTZyraH79XEqzJnolzQuMrmxLOYiIjYAHAltN+WxD8yt/67pkmlDfAI7IzGurg3SdBWCeIuIVNGtUnt+vcbudpiDcUwoGnxuBBVM+ty/zrxfkMhd+RATNI6przfBZj2Zpa9nB3vV6jdt1wEsz82vVQbrMArCCImIz4JM0m5akrrmDpgwkzQDu+RTqoo8Br8vMBdVBusgCsAIi4iDgP/DIUUmqdiHwwsw8qzpI17hZbQ4iYqWI+ADwZRz8JakNdgDOjIijq4N0jTMAsxQRa9GcTvWM6iySpGm9C3jDsntcND0LwCxExCbAScBe1VkkSTP6PM0Jggurg7SdBeA+DE4o+yawbXUWSdKsnA4c1JfDtVaUewBmEBF7A2fi4C9JXbIvcEZEeMLkDCwAyxERBwPfBTaqziJJmrMlmwP3rA7SVhaAaUTE3wMn4uE+ktRl9wdOjYinVwdpIwvAFIPH/N4HvA//t5GkSbAW8OWIOKo6SNu4CXAgItYA/hv4m+oskqSReCfwRh8TbFgAuOdlJl8F9q7OIkkaqc8Ch/uYoAWAiNiG5jG/7auzSJLG4jSaxwT/XB2kUq8LwGB36NeBTauzSJLG6gLgyZl5ZXWQKr0tABGxC00L3LA6iySpxMXAvpl5bXWQCr3c6R4RWwMn4+AvSX22HfCtiFivOkiF3hWAiLg/8B1g8+oskqRyDwVOiog1q4OMW68KwKDlfQt4UHUWSVJrPBr4YkSsWh1knHpTAAbt7ms0bU+SpKmeAhwfEb0ZF3vxXzQiVqF5ReS+1VkkSa31PODD1SHGZeILQEQE8EngadVZJEmt97cR8fbqEOMw8QUAeD9waHUISVJnvDkiXlcdYtQmugBExP8PvKo6hySpc94dEUdUhxiliT0IKCL+DvhQdQ5JUmctBg7JzC9VBxmFiSwAEfF84AQgqrNIkjrtTuCpmXlKdZBhm7gCEBFPAb4C9Op5TknSyNwKPDEzf1IdZJgmqgBExF7A94G1qrNIkibKDcDemXlhdZBhmZgCEBEbAGcDD6zOIkmaSL8G9srM26uDDMMkPQXwCRz8JUmj82AmaHP5RBSAiHglcFB1DknSxDsiIg6rDjEMnV8CiIiHAWcCq1VnkST1wm3AwzPz/Oog89HpAhAR6wK/wLf7SZLG6zya/QALqoOsqK4vAXwcB39J0vjtAnykOsR8dLYARMSRNG9ukiSpwosj4vDqECuqk0sAEfFg4KfAmtVZJEm9toBmKeC86iBz1bkCEBFrAT8HdqrOIkkScD7NpsDbqoPMRReXAD6Eg78kqT12Aj5aHWKuOlUAIuJQ4CXVOSRJWsaLqD/CowAAD8VJREFUIuKl1SHmojNLABGxPXAWsE51FkmSpnE78IjMPLc6yGx0YgYgItYAPo+DvySpvdYEToyIToxVnSgAwHuA3apDSJJ0H3YAPlYdYjZavwQQEfsApwNRnUWSpFl6RmZ+rTrETFpdACJiFZqjfnetziJJ0hxcCezc5kcD274E8Goc/CVJ3bMV8E/VIWbS2hmAiNiC5nCFTmymkCRpGYuBPTPznOog02nzDMD7cPCXJHXXysDHI6KVY20rQ0XEAcCzq3NIkjRPDwf+rjrEdFq3BDB45v/XwLbVWSRJGoKbaTYE/r46yFRtnAF4Ew7+kqTJcT/gA9UhltWqGYCI2A44F1i9OoskSUPWqrMB2lYAvg08qTqHJEkj0KqzAVqzBBARh+DgL0maXK06G6AVMwARsTZwEbB5dRZJkkZoMbBbZp5XHaQtMwBH4+AvSZp8KwP/UB0CWjADEBFrAr8F7l8aRJKk8VgM7JCZl1aGaMMMwJE4+EuS+mNl4A3VIUpnACJiNeBSYIuyEJIkjd+dwDaVhwNVzwAcjoO/JKl/VgOOqQxQNgMQEavQ7Pz/65IAkiTVWgA8MDP/VPHllTMAL8TBX5LUX2sBr6768pIZgMGrEc8Hth/7l0uS1B430swC3DzuL66aATgEB39JktanOQtn7MY+AxARAfwKePBYv1iSpHb6I7B1Zt4+zi+tmAE4CAd/SZKW2BR42bi/tGIG4CzgYWP9UkmS2u1K4EGZede4vnCsMwARsTcO/pIkLWsr4Knj/MJxLwE8Z8zfJ0lSVzxznF821iWAiLgKT/6TJGk6fwI2zTENzGMrABGxOnDHWL5MkqRuWjMzxzJWjnMJYJ0xfpckSZrBOAvA6mP8LkmSuuZuYPG4vmycBeBq4NYxfp8kSV1y5kQ+BjjY1PCrcX2fJEkdc9I4v2zcjwGeOebvkySpC+4EThznF467AHxqzN8nSVIXvD0zLx3nF1YcBXwm8MixfqkkSe11LrDHONf/oeZlQG8r+E5JktrobuBl4x78oaAAZOY3gM+P+3slSWqhj2TmTyu+eOxLAAARsRlwPrD+2L9ckqR2+AOwU2beXPHlFUsAZOY1wOsrvluSpJZ4VdXgD0UzAAAREcCpwL4lASRJqnNSZj69MkBZAQCIiB2BXwKrlYWQJGm8bgN2zswrK0OULAEskZkXAP9amUGSpDF7S/XgD8UzAAARsRrNLMCOpUEkSRq9c4A9M3NsL/1ZntIZAIDMvBN4OVDbRCRJGq27gZe3YfCHFhQAgMw8HfjP6hySJI3QRzLzZ9UhlihfAlgiItYHLgDuX51FkqQhK33mfzqtmAEAyMwbgVdX55AkaQRKn/mfTmsKAEBmfg74UnUOSZKG6ITM/GJ1iGW1ZglgiYjYkOapgC2qs0iSNE+XArtn5i3VQZbVqhkAgMy8AXghzW5JSZK66i7g+W0c/KGFBQAgM08D/qU6hyRJ8/APbdr1v6zWLQEsERGrAKcBj6rOIknSHJ0MHJBtHWRpcQEAiIitaU5NWq82iSRJs/ZH4CGZeW11kJm0cglgicy8HPjb6hySJM1SAi9u++APLS8AAJn5WeBT1TkkSZqF92bmt6pDzEarlwCWiIi1gbOB7aqzSJK0HGcBj8rMu6qDzEbrZwAAMvM24PnAndVZJEmaxq3A87oy+ENHCgBAZp4F/EN1DkmSpnF0Zl5SHWIuOrEEsEREBHAScGB1FkmSBo7LzMOrQ8xVpwoAQESsB/wU2L46iySp935Js+5/e3WQuepcAQCIiJ2AnwDrVmeRJPXWjcAemXlZdZAV0Zk9AFNl5vnAoTTPW0qSNG4JvKirgz90tAAAZOZXgX+sziFJ6qW3Z+ZJ1SHmo5NLAEsMNgV+CTioOoskqTdOBp6SmZ1+a22nCwBARKwL/BjYuTqLJGniXUGz7n99dZD56uwSwBKD9yw/k2YzhiRJo7IQePYkDP4wAQUAYHD4wvOBTk/HSJJa7ajM/Hl1iGGZiAIAMHj5wpurc0iSJtK/ZuYnq0MMU+f3ACwrIj4LPLc6hyRpYnwOeH5O2IA5iQVgLeAMYLfqLJKkzjsDeEJm3lEdZNgmrgAARMTWwM+BjWqTSJI67FLgkZn5p+ogozAxewCmyszLgUOAxcVRJEnddANw4KQO/jChBQAgM78HHFOdQ5LUOXcCz8rMi6qDjNLEFgCAzHw/8OnqHJKkTjkiM0+rDjFqE10ABo4ETqkOIUnqhGMz84TqEOMw8QUgMxfSnBR4anUWSVKrvTUz310dYlwm8imA6UTEOjQvcHhUdRZJUuu8OzOPrQ4xTr0pAAARsR7NcsCe1VkkSa3x0cw8ujrEuPWqAABExAbA9/GgIEkSHA8cPmmn/M1G7woAQERsDPwA2KU4iiSpzheA52VmL8+M6WUBAIiIzWg2Bm5fnUWSNHZfp3nW/67qIFV6WwAAIuIBwGnANtVZJElj8z3gqZN4vv9c9LoAAETEA2lKwFbVWSRJI3cG8KTMvK06SLXeFwCAiNiWpgRsXp1FkjQyvwD2y8ybqoO0wcQfBDQbmXkpsB9wbXUWSdJInAc82cF/KQvAQGZeCDwRuL46iyRpqC4B9p/kN/utCAvAFJn5a2B/4M/VWSRJQ3El8ITMvLo6SNtYAJaRmWcDBwA3V2eRJM3LNTSD/5XVQdrIAjCNzPwpcCCWAEnqqmuBJ2bmJdVB2soCsByZ+SPgsbgxUJK65gpg38w8rzpIm1kAZpCZ5wD7AJdVZ5EkzcoFwKMz8+LqIG1nAbgPg0cE9wF+VZ1FkjSjs2h++f+uOkgXWABmITOvAR4DnF6dRZI0rVOBx/uo3+xZAGZpcHjEk4CvVmeRJP2Fk4ADMvOW6iBdYgGYg8GLIw4GPlmdRZIEwAk0b/Xr9Yt9VoQFYI4yc3FmHgG8qzqLJPXch4EXZeai6iBdZAFYQZn5euBYwLcpSdL4/XNmviJ9o90K822A8xQRhwP/AaxSHEWS+iCBYzLzvdVBus4CMAQR8XTgc8Ca1VkkaYItBl6emZ+oDjIJLABDEhGPBr4GrF+dRZIm0J3ACzLzi9VBJoUFYIgiYleax1G2qs4iSRPkZuDZmfmd6iCTxE2AQ5SZ5wIPB35UnUWSJsRFwCMc/IfPAjBkmflHYD88K0CS5usbwF6ZeUF1kElkARiBzLxzcFbAa2k2rUiS5uYdwNMHp7BqBNwDMGIRcQDwWWC96iyS1AELgCMy83PVQSadBWAMImJHmncIbFedRZJa7ArgoMGr2DViLgGMwWD96hHAKdVZJKmlfgDs6eA/PhaAMcnMPwMHAB+sziJJLfMhYH9f5TteLgEUiIgjaV5isWp1FkkqdCdwlCf71bAAFImIxwBfBDauziJJBa4GDs7MH1cH6SsLQKGI2Jpmc+CutUkkaax+QjP4/6E6SJ+5B6BQZl4O7A18uTiKJI3LJ4DHOvjXswAUy8xbM/Ng4Ejg1uo8kjQi1wPPycyXZubC6jByCaBVIuKvgU8BjymOIknDdBJwZGZeUx1ESzkD0CKZ+Vvg8cAxgA1ZUtfdSjPwP93Bv32cAWipiNgFOB54WHUWSVoBpwMvHvywUQs5A9BSmXke8EjgbcCi4jiSNFsLgWOBxzn4t5szAB0QEXvRzAbsUJ1FkmZwNvCiwQ8YtZwzAB2QmT8Fdgc+ANjYJLXNYuDtwCMc/LvDGYCOiYj9gE8CW1VnkSTgIuCwzPxJdRDNjTMAHZOZ3wMeAhxXnUVSryXNO012d/DvJmcAOiwiDgL+D7BpdRZJvfI74IjM/E51EK04ZwA6LDP/B3gw8D/VWST1xgnArg7+3WcB6LjMvC4znwUcDtxYHEfS5PoTzVG+h2am95oJYAGYEJl5HLA9zZLA4uI4kibHXcD7ge0y8wvVYTQ87gGYQBGxK80Fu191Fkmd9nXgtZl5UXUQDZ8FYIJFxDOBdwMPqs4iqVPOoxn4T64OotFxCWCCZeZXgF1ojuW8uTiOpPa7HngFsJuD/+RzBqAnImJTmvcKvAyLn6S/dBfwEeCtmfnn6jAaDwtAz0TEQ2j2Bzy+OoukVvgGzXT/hdVBNF4WgJ4aHCL0bmDb6iySSvyGZuD/dnUQ1XAquKcGhwjtDLwe9wdIfXID8EqadX4H/x5zBkBL9gf8M/BSLIXSpFpEs87/j67zCywAmiIidqPZH/C44iiShuubNNP9F1QHUXv4a0/3yMxfZubjgWcBZ1XnkTRvZwAHZOaBDv5aljMAWq6I2B94I54oKHXNN4B3ZObp1UHUXhYA3aeIeDhNEXgWEMVxJE1vMfB54N8y85fVYdR+FgDNWkTsSPPUwKHAqsVxJDXuAD4JvDszL6sOo+6wAGjOImIL4LXAy4G1i+NIfXUT8FHg/Zl5bXUYdY8FQCssIjakeZ74lcBGxXGkvrgWeB/w0cz0DA+tMAuA5i0i1qZ5x8DrgC2L40iT6jLgXcCnMvOO6jDqPguAhiYiVgVeSLNPYKfiONKk+CXwDuDEzFxcHUaTwwKgoYuIAJ4JvAnYqziO1FWn0TzK983qIJpMFgCNVEQ8DjiS5hHCNWvTSK13K/AF4OOZeWZ1GE02C4DGIiLWAw4BDgf2rk0jtUoCpwKfAr6QmbfVxlFfWAA0dhGxPfBi4EW4aVD9dRlwHHB8Zl5enEU9ZAFQmYhYCXgCzayASwTqg1uAE2kG/tPTG7AKWQDUChFxP5YuEexTm0YaqgS+TzPF/8XMXFAbR2pYANQ6EbEdzRLBYbhEoO66hKVT/FdWh5GWZQFQaw2WCPajmRU4GJcI1H4307yQ57jM/GF1GGkmFgB1wpQlghcCjwZWqU0k3WMhzRT/fwNfyszbi/NIs2IBUOcMHil8IvCUwWfz2kTqod8C3xx8vue6vrrIAqDOi4jdWFoG9sbZAQ3fQpqT+b4JfDMzLyjOI82bBUATZcrswIHAATg7oBV3OX/5K98DejRRLACaaM4OaA4WAqcD38Bf+eoBC4B6YzA7sD9NGXB2QOCvfPWYBUC9NZgdOAB4BLAnnjnQB5cBPwd+DHwrM88vziOVsQBIAxGxCU0R2GPK3y1KQ2k+LqcZ7M9a8jcz/1yaSGoRC4A0g4i4P39ZCPbEpYM2upJ7D/bX10aS2s0CIM1RRGzGvWcK/qo0VL/8jnsP9tfVRpK6xwIgDUFEbM7SQrArsDWwFbBRYayuu47ml/3lwK9oBvufZ+YfK0NJk8ICII1QRKxNUwQeuJy/D6CfjybeRfNL/gqaQf7KKf98BXClR+pKo2UBkApFxMo0ewqmKwhL/nmdsoAr7iamGdSn/L06M++uiyfJAiC1XERsCGwGrA2sNc1nef/+TP+3tYHVgTuABYPPbVP+ecF9/PvL+8/eSjO43zSa/zUkDcv/A/m9Y6tDC2Q4AAAAAElFTkSuQmCC;" parent="MgNV9w2ZGS1zsMaX520--3" vertex="1">
          <mxGeometry x="115" y="34" width="39" height="39" as="geometry" />
        </mxCell>
        <mxCell id="MckcUySxEsMvAVjsXWF0-1" value="StoryBoard" style="swimlane;horizontal=0;whiteSpace=wrap;html=1;fontSize=20;" parent="iLkB3V-Q7PKIjUPxOMpI-3" vertex="1">
          <mxGeometry x="40" y="250" width="1520" height="310" as="geometry" />
        </mxCell>
        <mxCell id="MckcUySxEsMvAVjsXWF0-6" value="&lt;font style=&quot;font-size: 19px;&quot;&gt;Cadastro de Tipo de Investimento&lt;/font&gt;" style="swimlane;fontStyle=0;childLayout=stackLayout;horizontal=1;startSize=50;fillColor=#f5f5f5;horizontalStack=0;resizeParent=1;resizeParentMax=0;resizeLast=0;collapsible=1;marginBottom=0;whiteSpace=wrap;html=1;fontColor=#333333;strokeColor=#666666;rounded=1;fontSize=19;" parent="MckcUySxEsMvAVjsXWF0-1" vertex="1">
          <mxGeometry x="320" y="55" width="220" height="200" as="geometry" />
        </mxCell>
        <mxCell id="MckcUySxEsMvAVjsXWF0-7" value="Processo de gerenciar os tipos de investimento presentes no sistema (FII, ação, tesouro direto)" style="text;strokeColor=none;fillColor=none;align=center;verticalAlign=middle;spacingLeft=4;spacingRight=4;overflow=hidden;rotatable=0;points=[[0,0.5],[1,0.5]];portConstraint=eastwest;whiteSpace=wrap;html=1;fontSize=18;" parent="MckcUySxEsMvAVjsXWF0-6" vertex="1">
          <mxGeometry y="50" width="220" height="150" as="geometry" />
        </mxCell>
        <mxCell id="MckcUySxEsMvAVjsXWF0-8" value="&lt;font style=&quot;font-size: 19px;&quot;&gt;Cadastro de Compra&lt;/font&gt;" style="swimlane;fontStyle=0;childLayout=stackLayout;horizontal=1;startSize=50;fillColor=#f5f5f5;horizontalStack=0;resizeParent=1;resizeParentMax=0;resizeLast=0;collapsible=1;marginBottom=0;whiteSpace=wrap;html=1;fontColor=#333333;strokeColor=#666666;rounded=1;fontSize=19;" parent="MckcUySxEsMvAVjsXWF0-1" vertex="1">
          <mxGeometry x="800" y="55" width="220" height="200" as="geometry" />
        </mxCell>
        <mxCell id="MckcUySxEsMvAVjsXWF0-9" value="Processo de cadastrar a compra de uma Cota, agregando seu valor ao Saldo" style="text;strokeColor=none;fillColor=none;align=center;verticalAlign=middle;spacingLeft=4;spacingRight=4;overflow=hidden;rotatable=0;points=[[0,0.5],[1,0.5]];portConstraint=eastwest;whiteSpace=wrap;html=1;fontSize=18;" parent="MckcUySxEsMvAVjsXWF0-8" vertex="1">
          <mxGeometry y="50" width="220" height="150" as="geometry" />
        </mxCell>
        <mxCell id="MckcUySxEsMvAVjsXWF0-10" value="&lt;font style=&quot;font-size: 19px;&quot;&gt;Cadatro de Cota&lt;/font&gt;" style="swimlane;fontStyle=0;childLayout=stackLayout;horizontal=1;startSize=50;fillColor=#f5f5f5;horizontalStack=0;resizeParent=1;resizeParentMax=0;resizeLast=0;collapsible=1;marginBottom=0;whiteSpace=wrap;html=1;fontColor=#333333;strokeColor=#666666;rounded=1;fontSize=19;" parent="MckcUySxEsMvAVjsXWF0-1" vertex="1">
          <mxGeometry x="560" y="55" width="220" height="200" as="geometry" />
        </mxCell>
        <mxCell id="MckcUySxEsMvAVjsXWF0-11" value="Processo de cadastrar novas cotas e vinculá-las à tipos de investimentos" style="text;strokeColor=none;fillColor=none;align=center;verticalAlign=middle;spacingLeft=4;spacingRight=4;overflow=hidden;rotatable=0;points=[[0,0.5],[1,0.5]];portConstraint=eastwest;whiteSpace=wrap;html=1;fontSize=18;" parent="MckcUySxEsMvAVjsXWF0-10" vertex="1">
          <mxGeometry y="50" width="220" height="150" as="geometry" />
        </mxCell>
        <mxCell id="gb2gfo0okuCf4ySqPKWt-1" value="&lt;font style=&quot;font-size: 19px;&quot;&gt;Cadastro de Dividendo&lt;/font&gt;" style="swimlane;fontStyle=0;childLayout=stackLayout;horizontal=1;startSize=50;fillColor=#f5f5f5;horizontalStack=0;resizeParent=1;resizeParentMax=0;resizeLast=0;collapsible=1;marginBottom=0;whiteSpace=wrap;html=1;fontColor=#333333;strokeColor=#666666;rounded=1;fontSize=19;" parent="MckcUySxEsMvAVjsXWF0-1" vertex="1">
          <mxGeometry x="1280" y="55" width="220" height="200" as="geometry" />
        </mxCell>
        <mxCell id="gb2gfo0okuCf4ySqPKWt-2" value="Processo de cadastrar o recebimento de dividendos de uma cota, agregando seu valor ao Saldo" style="text;strokeColor=none;fillColor=none;align=center;verticalAlign=middle;spacingLeft=4;spacingRight=4;overflow=hidden;rotatable=0;points=[[0,0.5],[1,0.5]];portConstraint=eastwest;whiteSpace=wrap;html=1;fontSize=18;" parent="gb2gfo0okuCf4ySqPKWt-1" vertex="1">
          <mxGeometry y="50" width="220" height="150" as="geometry" />
        </mxCell>
        <mxCell id="gb2gfo0okuCf4ySqPKWt-3" value="&lt;font style=&quot;font-size: 19px;&quot;&gt;Cadastro de Venda&lt;/font&gt;" style="swimlane;fontStyle=0;childLayout=stackLayout;horizontal=1;startSize=50;fillColor=#f5f5f5;horizontalStack=0;resizeParent=1;resizeParentMax=0;resizeLast=0;collapsible=1;marginBottom=0;whiteSpace=wrap;html=1;fontColor=#333333;strokeColor=#666666;rounded=1;fontSize=19;" parent="MckcUySxEsMvAVjsXWF0-1" vertex="1">
          <mxGeometry x="1040" y="55" width="220" height="200" as="geometry" />
        </mxCell>
        <mxCell id="gb2gfo0okuCf4ySqPKWt-4" value="Processo de cadastrar a venda de uma Cota, agregando seu valor ao Saldo" style="text;strokeColor=none;fillColor=none;align=center;verticalAlign=middle;spacingLeft=4;spacingRight=4;overflow=hidden;rotatable=0;points=[[0,0.5],[1,0.5]];portConstraint=eastwest;whiteSpace=wrap;html=1;fontSize=18;" parent="gb2gfo0okuCf4ySqPKWt-3" vertex="1">
          <mxGeometry y="50" width="220" height="150" as="geometry" />
        </mxCell>
        <mxCell id="MckcUySxEsMvAVjsXWF0-2" value="&lt;font style=&quot;font-size: 19px;&quot;&gt;Acesso do Usuário&lt;/font&gt;" style="swimlane;fontStyle=0;childLayout=stackLayout;horizontal=1;startSize=50;fillColor=#f5f5f5;horizontalStack=0;resizeParent=1;resizeParentMax=0;resizeLast=0;collapsible=1;marginBottom=0;whiteSpace=wrap;html=1;fontColor=#333333;strokeColor=#666666;rounded=1;fontSize=19;" parent="MckcUySxEsMvAVjsXWF0-1" vertex="1">
          <mxGeometry x="80" y="55" width="220" height="200" as="geometry" />
        </mxCell>
        <mxCell id="MckcUySxEsMvAVjsXWF0-3" value="Processo de cadastro, autenticação, alteração de dados pessoais, logout e exclusão de conta" style="text;strokeColor=none;fillColor=none;align=center;verticalAlign=middle;spacingLeft=4;spacingRight=4;overflow=hidden;rotatable=0;points=[[0,0.5],[1,0.5]];portConstraint=eastwest;whiteSpace=wrap;html=1;fontSize=18;" parent="MckcUySxEsMvAVjsXWF0-2" vertex="1">
          <mxGeometry y="50" width="220" height="150" as="geometry" />
        </mxCell>
        <mxCell id="gb2gfo0okuCf4ySqPKWt-5" value="Épicos" style="swimlane;horizontal=0;whiteSpace=wrap;html=1;fontSize=20;" parent="iLkB3V-Q7PKIjUPxOMpI-3" vertex="1">
          <mxGeometry x="40" y="560" width="1520" height="250" as="geometry" />
        </mxCell>
        <mxCell id="gb2gfo0okuCf4ySqPKWt-23" value="Receber dividendos de cotas" style="html=1;whiteSpace=wrap;fontSize=19;rounded=1;fillColor=#f5f5f5;fontColor=#333333;strokeColor=#666666;" parent="gb2gfo0okuCf4ySqPKWt-5" vertex="1">
          <mxGeometry x="1281.5" y="70.5" width="220" height="109" as="geometry" />
        </mxCell>
        <mxCell id="gb2gfo0okuCf4ySqPKWt-22" value="Realizar venda de cotas" style="html=1;whiteSpace=wrap;fontSize=19;rounded=1;fillColor=#f5f5f5;fontColor=#333333;strokeColor=#666666;" parent="gb2gfo0okuCf4ySqPKWt-5" vertex="1">
          <mxGeometry x="1041.5" y="70.5" width="220" height="109" as="geometry" />
        </mxCell>
        <mxCell id="gb2gfo0okuCf4ySqPKWt-21" value="Realizar compra de cotas" style="html=1;whiteSpace=wrap;fontSize=19;rounded=1;fillColor=#f5f5f5;fontColor=#333333;strokeColor=#666666;" parent="gb2gfo0okuCf4ySqPKWt-5" vertex="1">
          <mxGeometry x="801.5" y="70.5" width="220" height="109" as="geometry" />
        </mxCell>
        <mxCell id="gb2gfo0okuCf4ySqPKWt-20" value="Cadastrar novas cotas" style="html=1;whiteSpace=wrap;fontSize=19;rounded=1;fillColor=#f5f5f5;fontColor=#333333;strokeColor=#666666;" parent="gb2gfo0okuCf4ySqPKWt-5" vertex="1">
          <mxGeometry x="561.5" y="70.5" width="220" height="109" as="geometry" />
        </mxCell>
        <mxCell id="gb2gfo0okuCf4ySqPKWt-19" value="Gerenciar tipos de investimento" style="html=1;whiteSpace=wrap;fontSize=19;rounded=1;fillColor=#f5f5f5;fontColor=#333333;strokeColor=#666666;" parent="gb2gfo0okuCf4ySqPKWt-5" vertex="1">
          <mxGeometry x="321.5" y="70.5" width="220" height="109" as="geometry" />
        </mxCell>
        <mxCell id="gb2gfo0okuCf4ySqPKWt-18" value="Gerenciar contas de usuário" style="html=1;whiteSpace=wrap;fontSize=19;rounded=1;fillColor=#f5f5f5;fontColor=#333333;strokeColor=#666666;" parent="gb2gfo0okuCf4ySqPKWt-5" vertex="1">
          <mxGeometry x="81.5" y="70.5" width="220" height="109" as="geometry" />
        </mxCell>
        <mxCell id="gb2gfo0okuCf4ySqPKWt-24" value="Histórias do Usuário" style="swimlane;horizontal=0;whiteSpace=wrap;html=1;fontSize=20;" parent="iLkB3V-Q7PKIjUPxOMpI-3" vertex="1">
          <mxGeometry x="40" y="810" width="1520" height="1270" as="geometry" />
        </mxCell>
        <mxCell id="gb2gfo0okuCf4ySqPKWt-63" value="MVP" style="swimlane;horizontal=0;whiteSpace=wrap;html=1;fontSize=20;" parent="gb2gfo0okuCf4ySqPKWt-24" vertex="1">
          <mxGeometry x="23" width="1497" height="560" as="geometry" />
        </mxCell>
        <mxCell id="gb2gfo0okuCf4ySqPKWt-64" value="Cadastrar uma nova conta de usuário" style="html=1;whiteSpace=wrap;fontSize=18;rounded=1;fillColor=#FFFFFF;fontColor=#333333;strokeColor=#666666;" parent="gb2gfo0okuCf4ySqPKWt-63" vertex="1">
          <mxGeometry x="57" y="20" width="220" height="109" as="geometry" />
        </mxCell>
        <mxCell id="gb2gfo0okuCf4ySqPKWt-72" value="Cadastrar um novo tipo de investimento" style="html=1;whiteSpace=wrap;fontSize=18;rounded=1;fillColor=#FFFFFF;fontColor=#333333;strokeColor=#666666;" parent="gb2gfo0okuCf4ySqPKWt-63" vertex="1">
          <mxGeometry x="297" y="20" width="220" height="109" as="geometry" />
        </mxCell>
        <mxCell id="gb2gfo0okuCf4ySqPKWt-77" value="Criar uma movimentação de venda de uma cota" style="html=1;whiteSpace=wrap;fontSize=18;rounded=1;fillColor=#FFFFFF;fontColor=#333333;strokeColor=#666666;" parent="gb2gfo0okuCf4ySqPKWt-63" vertex="1">
          <mxGeometry x="1017" y="20" width="220" height="109" as="geometry" />
        </mxCell>
        <mxCell id="gb2gfo0okuCf4ySqPKWt-78" value="Criar uma movimentação de dividendos de uma cota" style="html=1;whiteSpace=wrap;fontSize=18;rounded=1;fillColor=#FFFFFF;fontColor=#333333;strokeColor=#666666;" parent="gb2gfo0okuCf4ySqPKWt-63" vertex="1">
          <mxGeometry x="1257" y="20" width="220" height="109" as="geometry" />
        </mxCell>
        <mxCell id="gb2gfo0okuCf4ySqPKWt-79" value="Autenticar-se no sistema" style="html=1;whiteSpace=wrap;fontSize=18;rounded=1;fillColor=#FFFFFF;fontColor=#333333;strokeColor=#666666;" parent="gb2gfo0okuCf4ySqPKWt-63" vertex="1">
          <mxGeometry x="57" y="149" width="220" height="109" as="geometry" />
        </mxCell>
        <mxCell id="gb2gfo0okuCf4ySqPKWt-80" value="Visualizar dados de usuário" style="html=1;whiteSpace=wrap;fontSize=18;rounded=1;fillColor=#FFFFFF;fontColor=#333333;strokeColor=#666666;" parent="gb2gfo0okuCf4ySqPKWt-63" vertex="1">
          <mxGeometry x="57" y="278" width="220" height="109" as="geometry" />
        </mxCell>
        <mxCell id="gb2gfo0okuCf4ySqPKWt-75" value="Cadastrar uma nova cota" style="html=1;whiteSpace=wrap;fontSize=18;rounded=1;fillColor=#FFFFFF;fontColor=#333333;strokeColor=#666666;" parent="gb2gfo0okuCf4ySqPKWt-63" vertex="1">
          <mxGeometry x="537" y="20" width="220" height="109" as="geometry" />
        </mxCell>
        <mxCell id="gb2gfo0okuCf4ySqPKWt-76" value="Criar uma movimentação de compra de uma cota" style="html=1;whiteSpace=wrap;fontSize=18;rounded=1;fillColor=#FFFFFF;fontColor=#333333;strokeColor=#666666;" parent="gb2gfo0okuCf4ySqPKWt-63" vertex="1">
          <mxGeometry x="777" y="20" width="220" height="109" as="geometry" />
        </mxCell>
        <mxCell id="gb2gfo0okuCf4ySqPKWt-91" value="Visualizar tipos de investimento cadastrados" style="html=1;whiteSpace=wrap;fontSize=18;rounded=1;fillColor=#FFFFFF;fontColor=#333333;strokeColor=#666666;" parent="gb2gfo0okuCf4ySqPKWt-63" vertex="1">
          <mxGeometry x="297" y="149" width="220" height="109" as="geometry" />
        </mxCell>
        <mxCell id="gb2gfo0okuCf4ySqPKWt-92" value="Alterar sua senha" style="html=1;whiteSpace=wrap;fontSize=18;rounded=1;fillColor=#FFFFFF;fontColor=#333333;strokeColor=#666666;" parent="gb2gfo0okuCf4ySqPKWt-63" vertex="1">
          <mxGeometry x="57" y="407" width="220" height="109" as="geometry" />
        </mxCell>
        <mxCell id="gb2gfo0okuCf4ySqPKWt-95" value="Visualizar cotas cadastradas" style="html=1;whiteSpace=wrap;fontSize=18;rounded=1;fillColor=#FFFFFF;fontColor=#333333;strokeColor=#666666;" parent="gb2gfo0okuCf4ySqPKWt-63" vertex="1">
          <mxGeometry x="537" y="149" width="220" height="109" as="geometry" />
        </mxCell>
        <mxCell id="gb2gfo0okuCf4ySqPKWt-96" value="Visualizar o valor atual das cotas cadastradas" style="html=1;whiteSpace=wrap;fontSize=18;rounded=1;fillColor=#FFFFFF;fontColor=#333333;strokeColor=#666666;" parent="gb2gfo0okuCf4ySqPKWt-63" vertex="1">
          <mxGeometry x="537" y="278" width="220" height="109" as="geometry" />
        </mxCell>
        <mxCell id="3TIUXnlON5-1j7hvIi4n-1" value="Exibir o saldo atual baseado na cotação atual e na quantidade de cotas do usuário" style="html=1;whiteSpace=wrap;fontSize=18;rounded=1;fillColor=#FFFFFF;fontColor=#333333;strokeColor=#666666;" parent="gb2gfo0okuCf4ySqPKWt-63" vertex="1">
          <mxGeometry x="777" y="278" width="220" height="109" as="geometry" />
        </mxCell>
        <mxCell id="3TIUXnlON5-1j7hvIi4n-2" value="Visualizar compras realizadas" style="html=1;whiteSpace=wrap;fontSize=18;rounded=1;fillColor=#FFFFFF;fontColor=#333333;strokeColor=#666666;" parent="gb2gfo0okuCf4ySqPKWt-63" vertex="1">
          <mxGeometry x="777" y="149" width="220" height="109" as="geometry" />
        </mxCell>
        <mxCell id="3TIUXnlON5-1j7hvIi4n-3" value="Visualizar vendas realizadas" style="html=1;whiteSpace=wrap;fontSize=18;rounded=1;fillColor=#FFFFFF;fontColor=#333333;strokeColor=#666666;" parent="gb2gfo0okuCf4ySqPKWt-63" vertex="1">
          <mxGeometry x="1017" y="149" width="220" height="109" as="geometry" />
        </mxCell>
        <mxCell id="3TIUXnlON5-1j7hvIi4n-4" value="Desconsiderar do saldo atual cotas já vendidas" style="html=1;whiteSpace=wrap;fontSize=18;rounded=1;fillColor=#FFFFFF;fontColor=#333333;strokeColor=#666666;" parent="gb2gfo0okuCf4ySqPKWt-63" vertex="1">
          <mxGeometry x="1017" y="278" width="220" height="109" as="geometry" />
        </mxCell>
        <mxCell id="3TIUXnlON5-1j7hvIi4n-5" value="Visualizar dividendos recebidos" style="html=1;whiteSpace=wrap;fontSize=18;rounded=1;fillColor=#FFFFFF;fontColor=#333333;strokeColor=#666666;" parent="gb2gfo0okuCf4ySqPKWt-63" vertex="1">
          <mxGeometry x="1257" y="149" width="220" height="109" as="geometry" />
        </mxCell>
        <mxCell id="3TIUXnlON5-1j7hvIi4n-6" value="Exibir o valor total recebido em dividendos" style="html=1;whiteSpace=wrap;fontSize=18;rounded=1;fillColor=#FFFFFF;fontColor=#333333;strokeColor=#666666;" parent="gb2gfo0okuCf4ySqPKWt-63" vertex="1">
          <mxGeometry x="1257" y="278" width="220" height="109" as="geometry" />
        </mxCell>
        <mxCell id="RA07RnHaFsr7JkQCPWkw-1" value="Atualizar o valor atual diário das cotas cadastradas" style="html=1;whiteSpace=wrap;fontSize=18;rounded=1;fillColor=#FFFFFF;fontColor=#333333;strokeColor=#666666;" vertex="1" parent="gb2gfo0okuCf4ySqPKWt-63">
          <mxGeometry x="537" y="407" width="220" height="119" as="geometry" />
        </mxCell>
        <mxCell id="gb2gfo0okuCf4ySqPKWt-81" value="2° Release" style="swimlane;horizontal=0;whiteSpace=wrap;html=1;fontSize=20;" parent="gb2gfo0okuCf4ySqPKWt-24" vertex="1">
          <mxGeometry x="23" y="560" width="1497" height="410" as="geometry" />
        </mxCell>
        <mxCell id="gb2gfo0okuCf4ySqPKWt-82" value="Alterar demais dados de usuário" style="html=1;whiteSpace=wrap;fontSize=18;rounded=1;fillColor=#FFFFFF;fontColor=#333333;strokeColor=#666666;" parent="gb2gfo0okuCf4ySqPKWt-81" vertex="1">
          <mxGeometry x="57" y="20" width="220" height="109" as="geometry" />
        </mxCell>
        <mxCell id="gb2gfo0okuCf4ySqPKWt-83" value="Alterar as informações de um tipo de investimento" style="html=1;whiteSpace=wrap;fontSize=18;rounded=1;fillColor=#FFFFFF;fontColor=#333333;strokeColor=#666666;" parent="gb2gfo0okuCf4ySqPKWt-81" vertex="1">
          <mxGeometry x="297" y="20" width="220" height="109" as="geometry" />
        </mxCell>
        <mxCell id="gb2gfo0okuCf4ySqPKWt-84" value="Exibir o lucro obtido pela compra e venda de cotas" style="html=1;whiteSpace=wrap;fontSize=18;rounded=1;fillColor=#FFFFFF;fontColor=#333333;strokeColor=#666666;" parent="gb2gfo0okuCf4ySqPKWt-81" vertex="1">
          <mxGeometry x="1017" y="20" width="220" height="109" as="geometry" />
        </mxCell>
        <mxCell id="gb2gfo0okuCf4ySqPKWt-85" value="Exibir de forma gráfica os recebimentos em dividendos" style="html=1;whiteSpace=wrap;fontSize=18;rounded=1;fillColor=#FFFFFF;fontColor=#333333;strokeColor=#666666;" parent="gb2gfo0okuCf4ySqPKWt-81" vertex="1">
          <mxGeometry x="1257" y="20" width="220" height="109" as="geometry" />
        </mxCell>
        <mxCell id="gb2gfo0okuCf4ySqPKWt-88" value="Alterar as informações de uma cota" style="html=1;whiteSpace=wrap;fontSize=18;rounded=1;fillColor=#FFFFFF;fontColor=#333333;strokeColor=#666666;" parent="gb2gfo0okuCf4ySqPKWt-81" vertex="1">
          <mxGeometry x="537" y="20" width="220" height="109" as="geometry" />
        </mxCell>
        <mxCell id="gb2gfo0okuCf4ySqPKWt-89" value="Exibir de forma gráfica as compras realizadas" style="html=1;whiteSpace=wrap;fontSize=18;rounded=1;fillColor=#FFFFFF;fontColor=#333333;strokeColor=#666666;" parent="gb2gfo0okuCf4ySqPKWt-81" vertex="1">
          <mxGeometry x="777" y="20" width="220" height="109" as="geometry" />
        </mxCell>
        <mxCell id="gb2gfo0okuCf4ySqPKWt-90" value="Inativar sua conta" style="html=1;whiteSpace=wrap;fontSize=18;rounded=1;fillColor=#FFFFFF;fontColor=#333333;strokeColor=#666666;" parent="gb2gfo0okuCf4ySqPKWt-81" vertex="1">
          <mxGeometry x="57" y="149" width="220" height="109" as="geometry" />
        </mxCell>
        <mxCell id="gb2gfo0okuCf4ySqPKWt-94" value="Excluir um tipo de investimento" style="html=1;whiteSpace=wrap;fontSize=18;rounded=1;fillColor=#FFFFFF;fontColor=#333333;strokeColor=#666666;" parent="gb2gfo0okuCf4ySqPKWt-81" vertex="1">
          <mxGeometry x="297" y="149" width="220" height="109" as="geometry" />
        </mxCell>
        <mxCell id="gb2gfo0okuCf4ySqPKWt-97" value="Excluir uma cota do sistema" style="html=1;whiteSpace=wrap;fontSize=18;rounded=1;fillColor=#FFFFFF;fontColor=#333333;strokeColor=#666666;" parent="gb2gfo0okuCf4ySqPKWt-81" vertex="1">
          <mxGeometry x="537" y="149" width="223" height="109" as="geometry" />
        </mxCell>
        <mxCell id="3TIUXnlON5-1j7hvIi4n-10" value="3° Release" style="swimlane;horizontal=0;whiteSpace=wrap;html=1;fontSize=20;" parent="gb2gfo0okuCf4ySqPKWt-24" vertex="1">
          <mxGeometry x="23" y="970" width="1497" height="300" as="geometry" />
        </mxCell>
        <mxCell id="3TIUXnlON5-1j7hvIi4n-13" value="Considerar as vendas de cotas no saldo final diário" style="html=1;whiteSpace=wrap;fontSize=18;rounded=1;fillColor=#FFFFFF;fontColor=#333333;strokeColor=#666666;" parent="3TIUXnlON5-1j7hvIi4n-10" vertex="1">
          <mxGeometry x="1017" y="20" width="220" height="109" as="geometry" />
        </mxCell>
        <mxCell id="3TIUXnlON5-1j7hvIi4n-14" value="Exibir o comparativo entre os dividendos e o valor gasto com a compra de cotas" style="html=1;whiteSpace=wrap;fontSize=18;rounded=1;fillColor=#FFFFFF;fontColor=#333333;strokeColor=#666666;" parent="3TIUXnlON5-1j7hvIi4n-10" vertex="1">
          <mxGeometry x="1257" y="20" width="220" height="109" as="geometry" />
        </mxCell>
        <mxCell id="3TIUXnlON5-1j7hvIi4n-16" value="Armazenar o saldo final diário no banco para acompanhamento" style="html=1;whiteSpace=wrap;fontSize=18;rounded=1;fillColor=#FFFFFF;fontColor=#333333;strokeColor=#666666;" parent="3TIUXnlON5-1j7hvIi4n-10" vertex="1">
          <mxGeometry x="777" y="20" width="220" height="109" as="geometry" />
        </mxCell>
      </root>
    </mxGraphModel>
  </diagram>
</mxfile>
